<?xml version="1.0" standalone="no"?>
<!DOCTYPE svg PUBLIC "-//W3C//DTD SVG 1.1//EN" "http://www.w3.org/Graphics/SVG/1.1/DTD/svg11.dtd" >
<svg xmlns="http://www.w3.org/2000/svg" xmlns:xlink="http://www.w3.org/1999/xlink" version="1.1">
<metadata>
Created by FontForge 20170910 at Thu Mar 19 18:47:57 2015
 By Jimmy Wärting
Copyright (c) 2015 by Fernando Diaz. All rights reserved.
</metadata>
<defs>
<font id="LibertadOffice" horiz-adv-x="250" >
  <font-face 
    font-family="LibertadOffice"
    font-weight="400"
    font-stretch="normal"
    units-per-em="1000"
    panose-1="1 0 0 0 0 0 0 0 0 0"
    ascent="772"
    descent="-228"
    x-height="500"
    cap-height="649"
    bbox="-45 -244 1110 938"
    underline-thickness="54"
    underline-position="-195"
    unicode-range="U+000D-FB06"
  />
<missing-glyph horiz-adv-x="658" 
d="M85 650h488v-650h-488v650zM167 441l116 -115l-117 -118l46 -46l118 116l116 -116l46 46l-117 118l116 115l-46 46l-115 -115l-117 115z" />
    <glyph glyph-name="onequarter" unicode="&#x31;&#x2f;&#x34;" horiz-adv-x="638" 
d="M589 623l-463 -633l-51 37l462 633zM531 283v-174h45v-52h-45v-57h-60v57h-136v49l136 177h60zM127 423v175l-71 -9l-7 49q34 5 69.5 10.5t65.5 10.5h8v-236l63 -2v-54h-202v54zM471 109v89l-69 -89h69z" />
    <glyph glyph-name="onehalf" unicode="&#x31;&#x2f;&#x32;" horiz-adv-x="666" 
d="M589 623l-463 -633l-51 37l462 633zM403 51q69 45 101.5 76.5t32.5 64.5q0 23 -13.5 33t-35.5 10q-23 0 -42 -8t-24 -10l-20 48q6 5 31.5 16t59.5 11q57 0 83.5 -29.5t26.5 -68.5q0 -43 -29 -77.5t-77 -60.5h120v-56h-214v51zM127 423v175l-71 -9l-7 49q34 5 69.5 10.5
t65.5 10.5h8v-236l63 -2v-54h-202v54z" />
    <glyph glyph-name="threequarters" unicode="&#x33;&#x2f;&#x34;" horiz-adv-x="618" 
d="M569 623l-462 -633l-52 37l462 633zM511 283v-174h44v-52h-44v-57h-60v57h-136v49l136 177h60zM179 569q0 17 -13 25.5t-34 8.5q-18 0 -35 -4t-28 -9l-17 49q8 5 29.5 12.5t51.5 7.5q54 0 81.5 -25t27.5 -60q0 -26 -12.5 -39.5t-21.5 -18.5q12 -5 27.5 -20.5t15.5 -45.5
q0 -45 -31.5 -69t-86.5 -24q-29 0 -51.5 6.5t-32.5 11.5l17 50q9 -3 27.5 -7.5t43.5 -4.5q24 0 37.5 9t13.5 28q0 37 -53 37h-39v48h67q5 5 10.5 12.5t5.5 21.5zM451 109v89l-69 -89h69z" />
    <glyph glyph-name="ff" unicode="ff" horiz-adv-x="600" 
d="M456 500h130v-65h-127v-435h-78v435h-205v-628h-79v628h-82v57l86 6v61q0 36 12 66.5t34 52t53 33.5t68 12q26 0 48 -5.5t34 -9.5l-15 -62q-12 3 -31 6.5t-39 3.5q-93 0 -93 -106v-50h212v59q0 36 12 66.5t34.5 52t53.5 33.5t68 12q26 0 48 -5.5t34 -9.5l-15 -62
q-12 3 -31 6.5t-39 3.5q-93 0 -93 -106v-50z" />
    <glyph glyph-name="fi" unicode="fi" horiz-adv-x="540" 
d="M172 500h283v-500h-79v435h-200v-628h-79v628h-82v57l86 6v56q0 38 14.5 69.5t41 53.5t63.5 34t82 12q23 0 45 -2.5t40 -6t31.5 -7.5t19.5 -6l-15 -62q-17 5 -48.5 11t-75.5 6q-127 0 -127 -111v-45z" />
    <glyph glyph-name="fl" unicode="fl" horiz-adv-x="560" 
d="M172 500h120v-65h-116v-628h-79v628h-82v57l86 6v44q0 83 55 132t149 49q58 0 104 -9.5t65 -15.5v-698h-78v645q-15 4 -39 7.5t-55 3.5q-63 0 -96.5 -28.5t-33.5 -94.5v-33z" />
    <glyph glyph-name="ffi" unicode="ffi" horiz-adv-x="824" 
d="M172 500h212v54q0 38 14.5 69.5t41.5 53.5t64 34t82 12q23 0 44.5 -2.5t40 -6t32 -7.5t19.5 -6l-15 -62q-17 5 -48.5 11t-75.5 6q-127 0 -127 -111v-45h282v-500h-78v435h-201v-628h-78v628h-205v-628h-79v628h-82v57l86 6v61q0 36 12 66.5t34 52t53 33.5t68 12
q26 0 48 -5.5t34 -9.5l-15 -62q-12 3 -31 6.5t-39 3.5q-93 0 -93 -106v-50z" />
    <glyph glyph-name="ffl" unicode="ffl" horiz-adv-x="843" 
d="M456 500h120v-65h-117v-435h-78v435h-205v-628h-79v628h-82v57l86 6v61q0 36 12 66.5t34 52t53 33.5t68 12q26 0 48 -5.5t34 -9.5l-15 -62q-12 3 -31 6.5t-39 3.5q-93 0 -93 -106v-50h212v42q0 83 55 132t150 49q58 0 104 -9.5t65 -15.5v-698h-79v645q-14 4 -38.5 7.5
t-54.5 3.5q-64 0 -97 -28.5t-33 -94.5v-33z" />
    <glyph glyph-name="endash_guilsinglright" unicode="&#x2d;&#x3e;" horiz-adv-x="772" 
d="M448 500l218 -217l33 -33l-33 -33l-218 -217l-46 46l205 204l-205 204zM73 283h398v-65h-398v65z" />
    <glyph glyph-name="f_b" unicode="fb" horiz-adv-x="873" 
d="M172 500h120v-65h-116v-435h-79v435h-82v57l86 6v44q0 83 55 132t149 49q58 0 104 -9.5t65 -15.5v-219q61 31 122 31q52 0 94.5 -18.5t73 -52t47 -81t16.5 -104.5q0 -125 -66.5 -194.5t-185.5 -69.5q-21 0 -46 4t-49.5 11.5t-46.5 17t-37 20.5v602q-15 4 -39 7.5t-55 3.5
q-63 0 -96.5 -28.5t-33.5 -94.5v-33zM743 246q0 44 -11.5 79.5t-32.5 61t-50.5 39.5t-65.5 14q-58 0 -109 -27v-332q23 -11 50.5 -16t53.5 -5q81 0 123 47.5t42 138.5z" />
    <glyph glyph-name="f_f_b" unicode="ffb" horiz-adv-x="1157" 
d="M456 500h120v-65h-117v-435h-78v435h-205v-628h-79v628h-82v57l86 6v61q0 36 12 66.5t34 52t53 33.5t68 12q26 0 48 -5.5t34 -9.5l-15 -62q-12 3 -31 6.5t-39 3.5q-93 0 -93 -106v-50h212v42q0 83 55 132t150 49q58 0 104 -9.5t65 -15.5v-219q61 31 122 31
q52 0 94.5 -18.5t72.5 -52t46.5 -81t16.5 -104.5q0 -125 -66 -194.5t-185 -69.5q-21 0 -46 4t-49.5 11.5t-46.5 17t-38 20.5v602q-14 4 -38.5 7.5t-54.5 3.5q-64 0 -97 -28.5t-33 -94.5v-33zM1027 246q0 44 -11.5 79.5t-32.5 61t-50.5 39.5t-65.5 14q-58 0 -109 -27v-332
q23 -11 50.5 -16t53.5 -5q81 0 123 47.5t42 138.5z" />
    <glyph glyph-name="f_f_h" unicode="ffh" horiz-adv-x="1155" 
d="M456 500h120v-65h-117v-435h-78v435h-205v-628h-79v628h-82v57l86 6v61q0 36 12 66.5t34 52t53 33.5t68 12q26 0 48 -5.5t34 -9.5l-15 -62q-12 3 -31 6.5t-39 3.5q-93 0 -93 -106v-50h212v42q0 83 55 132t150 49q55 0 100 -9t65 -15l4 -1v-254q38 32 80 49t82 17
q77 0 117 -46t40 -135v-329h-79v317q0 123 -102 123q-32 0 -71 -17.5t-67 -43.5v-379h-79v645q-14 4 -38.5 7.5t-54.5 3.5q-64 0 -97 -28.5t-33 -94.5v-33z" />
    <glyph glyph-name="f_f_hbar" unicode="ff&#x127;" horiz-adv-x="1155" 
d="M456 500h120v-65h-117v-435h-78v435h-205v-628h-79v628h-82v57l86 6v61q0 36 12 66.5t34 52t53 33.5t68 12q26 0 48 -5.5t34 -9.5l-15 -62q-12 3 -31 6.5t-39 3.5q-93 0 -93 -106v-50h212v42q0 83 55 132t150 49q55 0 100 -9t65 -15l4 -1v-53h180v-55h-180v-146
q38 32 80 49t82 17q77 0 117 -46t40 -135v-329h-79v317q0 123 -102 123q-32 0 -71 -17.5t-67 -43.5v-379h-79v645q-14 4 -38.5 7.5t-54.5 3.5q-64 0 -97 -28.5t-33 -94.5v-33z" />
    <glyph glyph-name="f_f_ibreve" unicode="ff&#x12d;" horiz-adv-x="849" 
d="M456 500h130v-65h-127v-435h-78v435h-205v-628h-79v628h-82v57l86 6v61q0 36 12 66.5t34 52t53 33.5t68 12q26 0 48 -5.5t34 -9.5l-15 -62q-12 3 -31 6.5t-39 3.5q-93 0 -93 -106v-50h212v59q0 36 12 66.5t34.5 52t53.5 33.5t68 12q19 0 36 -3t30 -7h34q3 -32 19 -54
t54 -22q37 0 53 22t19 54h57q4 -60 -31.5 -98t-97.5 -38q-44 0 -75 19t-45 53q-12 3 -27 5t-29 2q-93 0 -93 -106v-50zM764 500v-500h-79v500h79z" />
    <glyph glyph-name="f_f_igrave" unicode="ff&#xec;" horiz-adv-x="824" 
d="M453 500h123v-65h-121v-435h-79v435h-200v-628h-79v628h-73v58l74 5v61q0 36 12 66.5t34 52t52 33.5t67 12q25 0 46.5 -5.5t33.5 -9.5l-15 -62q-12 3 -30.5 6.5t-37.5 3.5q-86 0 -86 -106v-50h203v59q0 36 11.5 66.5t32.5 52t50.5 33.5t65.5 12q20 0 36.5 -4.5t30.5 -9.5
l21 39l198 -117l-24 -45l-185 82l-11 -27q-12 5 -28.5 10t-40.5 5q-81 0 -81 -106v-50zM738 500v-500h-78v500h78z" />
    <glyph glyph-name="f_f_ij" unicode="ff&#x133;" horiz-adv-x="1073" 
d="M172 500h212v54q0 38 14.5 69.5t41.5 53.5t64 34t82 12q23 0 44.5 -2.5t40 -6t32 -7.5t19.5 -6l-15 -62q-17 5 -48.5 11t-75.5 6q-127 0 -127 -111v-45h282v-500h-78v435h-201v-628h-78v628h-205v-628h-79v628h-82v57l86 6v61q0 36 12 66.5t34 52t53 33.5t68 12
q26 0 48 -5.5t34 -9.5l-15 -62q-12 3 -31 6.5t-39 3.5q-93 0 -93 -106v-50zM909 500h79v-521q0 -97 -39.5 -139.5t-119.5 -42.5q-12 0 -27 1.5t-23 3.5l8 65q15 -3 37 -3q45 0 65 25t20 82v529zM894 657q0 23 16 39.5t41 16.5q21 0 36.5 -15.5t15.5 -36.5q0 -25 -16.5 -41
t-40.5 -16q-21 0 -36.5 15.5t-15.5 37.5z" />
    <glyph glyph-name="f_f_imacron" unicode="ff&#x12b;" horiz-adv-x="844" 
d="M587 652q-10 2 -21 3t-22 1q-93 0 -93 -106v-50h130v-65h-126v-435h-79v435h-200v-628h-79v628h-73v58l74 5v61q0 36 12 66.5t34 52t52 33.5t67 12q25 0 46.5 -5.5t33.5 -9.5l-15 -62q-12 3 -30.5 6.5t-37.5 3.5q-86 0 -86 -106v-50h205v59q0 36 12 66.5t34.5 52
t53.5 33.5t68 12q29 0 53.5 -5.5t38.5 -9.5l-6 -23h219v-60h-265v27zM738 500v-500h-78v500h78z" />
    <glyph glyph-name="f_f_iogonek" unicode="ff&#x12f;" horiz-adv-x="824" 
d="M172 500h212v54q0 38 14.5 69.5t41.5 53.5t64 34t82 12q23 0 44.5 -2.5t40 -6t32 -7.5t19.5 -6l-15 -62q-17 5 -48.5 11t-75.5 6q-127 0 -127 -111v-45h282v-500q-13 -9 -26 -20t-23.5 -24t-17.5 -28t-7 -31q0 -23 12 -35.5t32 -12.5q18 0 33.5 5.5t18.5 7.5l17 -40
q-6 -6 -28 -15.5t-51 -9.5q-42 0 -71 24t-29 62q0 39 23.5 68.5t51.5 48.5h-13v435h-201v-435h-78v435h-205v-628h-79v628h-82v57l86 6v61q0 36 12 66.5t34 52t53 33.5t68 12q26 0 48 -5.5t34 -9.5l-15 -62q-12 3 -31 6.5t-39 3.5q-93 0 -93 -106v-50z" />
    <glyph glyph-name="f_f_itilde" unicode="ff&#x129;" horiz-adv-x="844" 
d="M451 500h130v-65h-126v-435h-79v435h-200v-628h-79v628h-73v58l74 5v61q0 36 12 66.5t34 52t52 33.5t67 12q25 0 46.5 -5.5t33.5 -9.5l-15 -62q-12 3 -30.5 6.5t-37.5 3.5q-86 0 -86 -106v-50h205v59q0 36 12 66.5t34 52t51.5 33.5t65.5 12q25 0 44 -8t33 -19
q11 12 26 19.5t36 7.5q13 0 26 -5t25 -11t23.5 -11t21.5 -5q20 0 32.5 12.5t19.5 20.5l41 -39q-17 -29 -42 -45.5t-57 -16.5q-13 0 -25 5t-24 11t-23.5 11t-23.5 5q-20 0 -34 -13t-19 -20q-8 8 -27 21t-51 13q-93 0 -93 -106v-50zM738 500v-500h-78v500h78z" />
    <glyph glyph-name="f_f_j" unicode="ffj" horiz-adv-x="824" 
d="M660 435h-201v-435h-78v435h-205v-628h-79v628h-82v57l86 6v61q0 36 12 66.5t34 52t53 33.5t68 12q26 0 48 -5.5t34 -9.5l-15 -62q-12 3 -31 6.5t-39 3.5q-93 0 -93 -106v-50h212v54q0 38 14.5 69.5t41.5 53.5t64 34t82 12q23 0 44.5 -2.5t40 -6t32 -7.5t19.5 -6l-15 -62
q-17 5 -48.5 11t-75.5 6q-127 0 -127 -111v-45h282v-521q0 -97 -39.5 -139.5t-119.5 -42.5q-12 0 -27 1.5t-23 3.5l9 65q7 -2 17 -2.5t19 -0.5q45 0 65.5 25t20.5 82v464z" />
    <glyph glyph-name="f_f_k" unicode="ffk" horiz-adv-x="1107" 
d="M456 500h120v-65h-117v-435h-78v435h-205v-628h-79v628h-82v57l86 6v61q0 36 12 66.5t34 52t53 33.5t68 12q26 0 48 -5.5t34 -9.5l-15 -62q-12 3 -31 6.5t-39 3.5q-93 0 -93 -106v-50h212v42q0 83 55 132t150 49q58 0 104 -9.5t65 -15.5v-467l209 269h92l-163 -209
l182 -291h-91l-149 240l-80 -100v-140h-79v645q-14 4 -38.5 7.5t-54.5 3.5q-64 0 -97 -28.5t-33 -94.5v-33z" />
    <glyph glyph-name="f_f_kcommaaccent" unicode="ff&#x137;" horiz-adv-x="1107" 
d="M456 500h120v-65h-117v-435h-78v435h-205v-628h-79v628h-82v57l86 6v61q0 36 12 66.5t34 52t53 33.5t68 12q26 0 48 -5.5t34 -9.5l-15 -62q-12 3 -31 6.5t-39 3.5q-93 0 -93 -106v-50h212v42q0 83 55 132t150 49q58 0 104 -9.5t65 -15.5v-467l209 269h92l-163 -209
l182 -291h-91l-149 240l-80 -100v-140h-79v645q-14 4 -38.5 7.5t-54.5 3.5q-64 0 -97 -28.5t-33 -94.5v-33zM889 -48q7 -5 21 -24.5t14 -49.5q0 -26 -11 -45t-29.5 -32t-42 -20.5t-48.5 -9.5l-15 42q30 6 53 21.5t23 41.5t-12 41.5t-17 19.5z" />
    <glyph glyph-name="f_f_lcaron" unicode="ff&#x13e;" horiz-adv-x="893" 
d="M456 500h120v-65h-117v-435h-78v435h-205v-628h-79v628h-82v57l86 6v61q0 36 12 66.5t34 52t53 33.5t68 12q26 0 48 -5.5t34 -9.5l-15 -62q-12 3 -31 6.5t-39 3.5q-93 0 -93 -106v-50h212v42q0 83 55 132t150 49q58 0 104 -9.5t65 -15.5v-698h-79v645q-14 4 -38.5 7.5
t-54.5 3.5q-64 0 -97 -28.5t-33 -94.5v-33zM886 745q3 -2 9 -8.5t12 -17t10.5 -23.5t4.5 -29q0 -24 -7.5 -43t-20 -34t-28.5 -26t-32 -18l-26 37q15 9 29.5 27.5t14.5 47.5q0 13 -5 24.5t-11 21.5t-12.5 16.5t-9.5 8.5z" />
    <glyph glyph-name="f_f_lcommaaccent" unicode="ff&#x13c;" horiz-adv-x="843" 
d="M456 500h120v-65h-117v-435h-78v435h-205v-628h-79v628h-82v57l86 6v61q0 36 12 66.5t34 52t53 33.5t68 12q26 0 48 -5.5t34 -9.5l-15 -62q-12 3 -31 6.5t-39 3.5q-93 0 -93 -106v-50h212v42q0 83 55 132t150 49q58 0 104 -9.5t65 -15.5v-698h-79v645q-14 4 -38.5 7.5
t-54.5 3.5q-64 0 -97 -28.5t-33 -94.5v-33zM747 -48q7 -5 21 -24.5t14 -49.5q0 -26 -11 -45t-29.5 -32t-42 -20.5t-48.5 -9.5l-15 42q30 6 53 21.5t23 41.5t-12 41.5t-17 19.5z" />
    <glyph glyph-name="f_f_ldot" unicode="ff&#x140;" horiz-adv-x="916" 
d="M456 500h120v-65h-117v-435h-78v435h-205v-628h-79v628h-82v57l86 6v61q0 36 12 66.5t34 52t53 33.5t68 12q26 0 48 -5.5t34 -9.5l-15 -62q-12 3 -31 6.5t-39 3.5q-93 0 -93 -106v-50h212v42q0 83 55 132t150 49q58 0 104 -9.5t65 -15.5v-698h-79v645q-14 4 -38.5 7.5
t-54.5 3.5q-64 0 -97 -28.5t-33 -94.5v-33zM821 363q0 24 16.5 40t40.5 16q21 0 36.5 -15.5t15.5 -36.5q0 -25 -16.5 -41t-39.5 -16q-22 0 -37.5 15.5t-15.5 37.5z" />
    <glyph glyph-name="f_f_lslash" unicode="ff&#x142;" horiz-adv-x="874" 
d="M456 500h120v-65h-117v-435h-78v435h-205v-628h-79v628h-82v57l86 6v61q0 36 12 66.5t34 52t53 33.5t68 12q26 0 48 -5.5t34 -9.5l-15 -62q-12 3 -31 6.5t-39 3.5q-93 0 -93 -106v-50h212v42q0 83 55 132t150 49q58 0 104 -9.5t65 -15.5v-283l62 47l39 -51l-101 -78v-333
h-79v274l-63 -48l-39 52l102 77v290q-14 4 -38.5 7.5t-54.5 3.5q-64 0 -97 -28.5t-33 -94.5v-33z" />
    <glyph glyph-name="f_h" unicode="fh" horiz-adv-x="871" 
d="M474 0h-78v645q-15 4 -39 7.5t-55 3.5q-63 0 -96.5 -28.5t-33.5 -94.5v-33h120v-65h-116v-435h-79v435h-82v57l86 6v44q0 83 55 132t149 49q55 0 100 -9t65 -15l4 -1v-254q38 32 80 49t83 17q77 0 116.5 -46t39.5 -135v-329h-79v317q0 123 -101 123q-32 0 -71.5 -17.5
t-67.5 -43.5v-379z" />
    <glyph glyph-name="f_hbar" unicode="f&#x127;" horiz-adv-x="871" 
d="M172 500h120v-65h-116v-435h-79v435h-82v57l86 6v44q0 83 55 132t149 49q55 0 100 -9t65 -15l4 -1v-53h181v-55h-181v-146q38 32 80 49t83 17q77 0 116.5 -46t39.5 -135v-329h-79v317q0 123 -101 123q-32 0 -71.5 -17.5t-67.5 -43.5v-379h-78v645q-15 4 -39 7.5t-55 3.5
q-63 0 -96.5 -28.5t-33.5 -94.5v-33z" />
    <glyph glyph-name="f_ibreve" unicode="f&#x12d;" horiz-adv-x="565" 
d="M172 500h130v-65h-126v-435h-79v435h-82v57l86 6v61q0 36 12 66.5t34 52t53 33.5t68 12q19 0 36 -3t30 -7h35q2 -32 18.5 -54t53.5 -22t53.5 22t18.5 54h57q4 -60 -31.5 -98t-97.5 -38q-44 0 -75 19t-45 53q-12 3 -26.5 5t-29.5 2q-93 0 -93 -106v-50zM480 500v-500h-79
v500h79z" />
    <glyph glyph-name="f_igrave" unicode="f&#xec;" horiz-adv-x="565" 
d="M172 500h130v-65h-126v-435h-79v435h-82v57l86 6v61q0 36 12 66.5t34 52t53 33.5t68 12q20 0 37.5 -4.5t30.5 -9.5l22 38l196 -116l-24 -45l-188 83l-9 -26q-8 2 -25 7.5t-43 5.5q-93 0 -93 -106v-50zM480 500v-500h-79v500h79z" />
    <glyph glyph-name="f_ij" unicode="f&#x133;" horiz-adv-x="790" 
d="M172 500h283v-500h-79v435h-200v-628h-79v628h-82v57l86 6v56q0 38 14.5 69.5t41 53.5t63.5 34t82 12q23 0 45 -2.5t40 -6t31.5 -7.5t19.5 -6l-15 -62q-17 5 -48.5 11t-75.5 6q-127 0 -127 -111v-45zM625 500h79v-521q0 -97 -39.5 -139.5t-119.5 -42.5q-12 0 -27 1.5
t-23 3.5l8 65q15 -3 37 -3q45 0 65 25t20 82v529zM610 657q0 23 16.5 39.5t40.5 16.5q21 0 36.5 -15.5t15.5 -36.5q0 -25 -16.5 -41t-39.5 -16q-22 0 -37.5 15.5t-15.5 37.5z" />
    <glyph glyph-name="f_imacron" unicode="f&#x12b;" horiz-adv-x="565" 
d="M309 652q-11 2 -22 3t-22 1q-93 0 -93 -106v-50h130v-65h-126v-435h-79v435h-82v57l86 6v61q0 36 12 66.5t34 52t53 33.5t68 12q29 0 53.5 -5.5t38.5 -9.5l-6 -23h219v-60h-264v27zM480 500v-500h-79v500h79z" />
    <glyph glyph-name="f_iogonek" unicode="f&#x12f;" horiz-adv-x="579" 
d="M172 500h283v-500q-13 -9 -26.5 -20t-24 -24t-17.5 -28t-7 -31q0 -23 12 -35.5t32 -12.5q19 0 34.5 5.5t18.5 7.5l17 -40q-7 -6 -29 -15.5t-50 -9.5q-43 0 -72 24t-29 62q0 39 24 68.5t52 48.5h-14v435h-200v-628h-79v628h-82v57l86 6v56q0 38 14.5 69.5t41 53.5t63.5 34
t82 12q23 0 45 -2.5t40 -6t31.5 -7.5t19.5 -6l-15 -62q-17 5 -48.5 11t-75.5 6q-127 0 -127 -111v-45z" />
    <glyph glyph-name="f_itilde" unicode="f&#x129;" horiz-adv-x="565" 
d="M343 622q-8 8 -27 21t-51 13q-93 0 -93 -106v-50h130v-65h-126v-435h-79v435h-82v57l86 6v61q0 36 12 66.5t33.5 52t51 33.5t65.5 12q25 0 44 -8t33 -19q11 12 26.5 19.5t35.5 7.5q13 0 26 -5t25.5 -11t24 -11t20.5 -5q20 0 33 12.5t19 20.5l41 -39q-17 -29 -42 -45.5
t-57 -16.5q-13 0 -25 5t-24 11t-23.5 11t-23.5 5q-20 0 -34 -13t-19 -20zM480 500v-500h-79v500h79z" />
    <glyph glyph-name="f_j" unicode="fj" horiz-adv-x="540" 
d="M376 435h-200v-435h-79v435h-82v57l86 6v56q0 38 14.5 69.5t41 53.5t63.5 34t82 12q23 0 45 -2.5t40 -6t31.5 -7.5t19.5 -6l-15 -62q-17 5 -48.5 11t-75.5 6q-127 0 -127 -111v-45h283v-521q0 -97 -40 -139.5t-120 -42.5q-11 0 -26 1.5t-23 3.5l8 65q15 -3 37 -3
q45 0 65 25t20 82v464z" />
    <glyph glyph-name="f_k" unicode="fk" horiz-adv-x="823" 
d="M172 500h120v-65h-116v-435h-79v435h-82v57l86 6v44q0 83 55 132t149 49q58 0 104 -9.5t65 -15.5v-467l210 269h91l-163 -209l182 -291h-90l-149 240l-81 -100v-140h-78v645q-15 4 -39 7.5t-55 3.5q-63 0 -96.5 -28.5t-33.5 -94.5v-33z" />
    <glyph glyph-name="f_kcommaaccent" unicode="f&#x137;" horiz-adv-x="823" 
d="M172 500h120v-65h-116v-435h-79v435h-82v57l86 6v44q0 83 55 132t149 49q58 0 104 -9.5t65 -15.5v-467l210 269h91l-163 -209l182 -291h-90l-149 240l-81 -100v-140h-78v645q-15 4 -39 7.5t-55 3.5q-63 0 -96.5 -28.5t-33.5 -94.5v-33zM605 -48q7 -5 21 -24.5t14 -49.5
q0 -26 -11 -45t-29.5 -32t-42 -20.5t-48.5 -9.5l-14 42q30 6 52.5 21.5t22.5 41.5t-11.5 41.5t-16.5 19.5z" />
    <glyph glyph-name="f_lcaron" unicode="f&#x13e;" horiz-adv-x="609" 
d="M172 500h120v-65h-116v-628h-79v628h-82v57l86 6v44q0 83 55 132t149 49q58 0 104 -9.5t65 -15.5v-698h-78v645q-15 4 -39 7.5t-55 3.5q-63 0 -96.5 -28.5t-33.5 -94.5v-33zM602 745q3 -2 9 -8.5t12 -17t10.5 -23.5t4.5 -29q0 -24 -7.5 -43t-20 -34t-28 -26t-31.5 -18
l-27 37q15 9 29.5 27.5t14.5 47.5q0 13 -5 24.5t-11 21.5t-12 16.5t-9 8.5z" />
    <glyph glyph-name="f_lcommaaccent" unicode="f&#x13c;" horiz-adv-x="560" 
d="M172 500h120v-65h-116v-628h-79v628h-82v57l86 6v44q0 83 55 132t149 49q58 0 104 -9.5t65 -15.5v-698h-78v645q-15 4 -39 7.5t-55 3.5q-63 0 -96.5 -28.5t-33.5 -94.5v-33zM463 -48q7 -5 21 -24.5t14 -49.5q0 -26 -11 -45t-29.5 -32t-42 -20.5t-48.5 -9.5l-14 42
q30 6 52.5 21.5t22.5 41.5t-12 41.5t-17 19.5z" />
    <glyph glyph-name="f_ldot" unicode="f&#x140;" horiz-adv-x="632" 
d="M172 500h120v-65h-116v-628h-79v628h-82v57l86 6v44q0 83 55 132t149 49q58 0 104 -9.5t65 -15.5v-698h-78v645q-15 4 -39 7.5t-55 3.5q-63 0 -96.5 -28.5t-33.5 -94.5v-33zM538 363q0 24 16 40t40 16q21 0 36.5 -15.5t15.5 -36.5q0 -25 -16 -41t-40 -16
q-21 0 -36.5 15.5t-15.5 37.5z" />
    <glyph glyph-name="f_lslash" unicode="f&#x142;" horiz-adv-x="590" 
d="M172 500h120v-65h-116v-628h-79v628h-82v57l86 6v44q0 83 55 132t149 49q58 0 104 -9.5t65 -15.5v-283l62 47l40 -51l-102 -78v-333h-78v274l-63 -48l-40 52l103 77v290q-15 4 -39 7.5t-55 3.5q-63 0 -96.5 -28.5t-33.5 -94.5v-33z" />
    <glyph glyph-name="guilsinglleft_endash" unicode="&#x3c;&#x2d;" horiz-adv-x="772" 
d="M370 454l-205 -204l205 -204l-46 -46l-251 250l251 250zM301 283h398v-65h-398v65z" />
    <glyph glyph-name="longs_f" unicode="&#x17f;f" horiz-adv-x="585" 
d="M176 -193h-79v628h-82v57l83 6v61q0 36 12 66.5t34 52t52 33.5t67 12q27 0 50.5 -5.5t36.5 -9.5l-20 -62q-12 3 -31 6.5t-39 3.5q-84 0 -84 -106v-743zM441 500h130v-65h-126v-435h-79v435h-82v57l86 6v61q0 36 12 66.5t34 52t53 33.5t68 12q26 0 48 -5.5t34 -9.5
l-15 -62q-12 3 -31 6.5t-39 3.5q-93 0 -93 -106v-50z" />
    <glyph glyph-name="longs_h" unicode="&#x17f;h" horiz-adv-x="827" 
d="M430 0h-78v644q-11 3 -30 7.5t-42 4.5q-104 0 -104 -121v-535h-79v435h-82v57l83 6v46q0 41 13.5 74t38 56t58.5 36t75 13q52 0 89 -12.5t58 -23.5v-243q38 32 80.5 49t82.5 17q77 0 116.5 -46t39.5 -135v-329h-79v317q0 123 -101 123q-32 0 -71.5 -17.5t-67.5 -43.5
v-379z" />
    <glyph glyph-name="longs_i" unicode="&#x17f;i" horiz-adv-x="501" 
d="M176 -193h-79v628h-82v57l83 6v46q0 41 14 74t39.5 56t61.5 36t79 13q37 0 67 -8.5t40 -13.5l-15 -62q-12 5 -37 11t-57 6q-114 0 -114 -121v-728zM416 500v-500h-79v500h79z" />
    <glyph glyph-name="longs_j" unicode="&#x17f;j" horiz-adv-x="501" 
d="M176 0h-79v435h-82v57l83 6v46q0 41 14 74t39.5 56t61.5 36t79 13q37 0 67 -8.5t40 -13.5l-15 -62q-12 5 -37 11t-57 6q-114 0 -114 -121v-535zM337 500h79v-521q0 -97 -40 -139.5t-120 -42.5q-11 0 -26 1.5t-23 3.5l8 65q8 -2 17.5 -2.5t18.5 -0.5q45 0 65.5 25t20.5 82
v529z" />
    <glyph glyph-name="longs_k" unicode="&#x17f;k" horiz-adv-x="779" 
d="M176 0h-79v435h-82v57l83 6v46q0 41 13.5 74t38 56t58.5 36t75 13q52 0 89 -12.5t58 -23.5v-456l210 269h91l-163 -209l182 -291h-90l-149 240l-81 -100v-140h-78v644q-11 3 -30 7.5t-42 4.5q-104 0 -104 -121v-535z" />
    <glyph glyph-name="longs_l" unicode="&#x17f;l" horiz-adv-x="516" 
d="M176 -193h-79v628h-82v57l83 6v46q0 41 13.5 74t38 56t58.5 36t75 13q52 0 89 -12.5t58 -23.5v-687h-78v644q-11 3 -30 7.5t-42 4.5q-104 0 -104 -121v-728z" />
    <glyph glyph-name="longs_longs" unicode="&#x17f;&#x17f;" horiz-adv-x="540" 
d="M176 -193h-79v628h-82v57l83 6v61q0 36 12 66.5t34 52t52 33.5t67 12q27 0 50.5 -5.5t36.5 -9.5l-20 -62q-12 3 -31 6.5t-39 3.5q-84 0 -84 -106v-743zM445 0h-79v435h-82v57l83 6v61q0 36 12.5 66.5t35 52t53.5 33.5t69 12q26 0 48 -5.5t34 -9.5l-15 -62q-12 3 -31 6.5
t-39 3.5q-89 0 -89 -106v-550z" />
    <glyph glyph-name=".notdef" horiz-adv-x="658" 
d="M85 650h488v-650h-488v650zM167 441l116 -115l-117 -118l46 -46l118 116l116 -116l46 46l-117 118l116 115l-46 46l-115 -115l-117 115z" />
    <glyph glyph-name=".null" horiz-adv-x="0" 
 />
    <glyph glyph-name=".null" horiz-adv-x="0" 
 />
    <glyph glyph-name="nonmarkingreturn" unicode="&#xd;" horiz-adv-x="225" 
 />
    <glyph glyph-name="space" unicode=" " horiz-adv-x="225" 
 />
    <glyph glyph-name="exclam" unicode="!" horiz-adv-x="246" 
d="M169 649l-18 -463h-57l-18 463h93zM68 43q0 24 16.5 40t40.5 16q21 0 36.5 -15.5t15.5 -36.5q0 -24 -16.5 -40.5t-39.5 -16.5q-22 0 -37.5 15.5t-15.5 37.5z" />
    <glyph glyph-name="quotedbl" unicode="&#x22;" horiz-adv-x="366" 
d="M154 713l-14 -243h-58l-14 243h86zM297 713l-13 -243h-58l-14 243h85z" />
    <glyph glyph-name="numbersign" unicode="#" horiz-adv-x="748" 
d="M562 649l-24 -178h112l-9 -64h-112l-23 -167h112l-8 -63h-113l-24 -177h-71l24 177h-160l-24 -177h-70l24 177h-118l8 63h118l23 167h-115l8 64h115l25 178h71l-24 -178h160l25 178h70zM275 240h160l23 167h-160z" />
    <glyph glyph-name="dollar" unicode="$" horiz-adv-x="535" 
d="M308 745l-4 -127q41 -2 75 -11t48 -17l-17 -56q-19 6 -53 14t-70 8q-64 0 -93 -24t-29 -63q0 -36 29.5 -59.5t96.5 -52.5q47 -19 77.5 -38t49.5 -39.5t26.5 -44.5t7.5 -54q0 -60 -40 -98.5t-114 -47.5l4 -131h-73l3 129q-48 2 -85 14.5t-57 24.5l22 58q24 -12 61.5 -22
t83.5 -10q60 0 90.5 18t30.5 62q0 19 -7.5 34t-24 29t-43.5 28t-67 31q-75 32 -110 71.5t-35 93.5q0 58 40.5 97.5t107.5 50.5l-4 132h73z" />
    <glyph glyph-name="percent" unicode="%" horiz-adv-x="729" 
d="M534 -10q-31 0 -57 11.5t-44 31.5t-28 47t-10 58q0 68 38.5 111t107.5 43q32 0 57.5 -11.5t43.5 -31.5t28 -47t10 -58q0 -68 -38.5 -111t-107.5 -43zM188 357q-31 0 -57 11.5t-44 31.5t-28 47t-10 58q0 68 38.5 111t106.5 43q32 0 57.5 -11.5t43.5 -31.5t28 -47t10 -58
q0 -68 -38 -111t-107 -43zM621 623l-462 -633l-52 37l462 633zM194 417q35 0 53 25.5t18 62.5q0 40 -18.5 67t-58.5 27q-35 0 -53 -25.5t-18 -62.5q0 -40 19 -67t58 -27zM541 50q34 0 52 25.5t18 62.5q0 40 -18.5 67t-58.5 27q-35 0 -53 -25.5t-18 -62.5q0 -40 19 -67
t59 -27z" />
    <glyph glyph-name="ampersand" unicode="&#x26;" horiz-adv-x="665" 
d="M59 166q0 56 35 105t98 80q-25 28 -41 49t-25.5 38.5t-13 34t-3.5 35.5q0 33 12.5 60.5t34.5 48t52.5 31.5t66.5 11q34 0 64 -11t52 -30t34.5 -45.5t12.5 -56.5q0 -23 -9 -49t-25 -49h226v-63h-95q12 -26 19.5 -58t7.5 -58q0 -38 -12.5 -77t-35.5 -71l82 -92l-53 -48
l-80 90q-36 -25 -81.5 -38t-94.5 -13q-50 0 -92 13t-72 36.5t-47 55.5t-17 71zM323 412q23 29 31 48.5t8 47.5q0 38 -26.5 62t-68.5 24q-33 0 -57.5 -23t-24.5 -55q0 -30 13 -55.5t50 -66.5l219 -248q11 18 18 42.5t7 42.5q0 33 -7 62.5t-22 61.5h-95zM295 55q31 0 63.5 10
t59.5 27l-186 214q-46 -26 -71 -61t-25 -71q0 -55 42.5 -87t116.5 -32z" />
    <glyph glyph-name="quotesingle" unicode="'" horiz-adv-x="183" 
d="M134 713l-13 -243h-59l-13 243h85z" />
    <glyph glyph-name="parenleft" unicode="(" horiz-adv-x="330" 
d="M132 328q0 -92 21.5 -163.5t50.5 -124t60.5 -86.5t50.5 -52l-42 -47q-21 15 -59.5 51.5t-75.5 95t-64.5 138t-27.5 180.5q0 102 28 183.5t65.5 141t76 96.5t59.5 52l40 -46q-19 -18 -50.5 -52t-60.5 -86t-50.5 -122t-21.5 -159z" />
    <glyph glyph-name="parenright" unicode=")" horiz-adv-x="330" 
d="M187 321q0 92 -21 163t-50.5 123.5t-60 87t-50.5 52.5l41 46q22 -15 60 -51.5t75 -94.5t64.5 -137.5t27.5 -180.5q0 -102 -27.5 -183.5t-65 -141t-76 -97t-59.5 -52.5l-40 47q20 18 50.5 52t60 86t50.5 122t21 159z" />
    <glyph glyph-name="asterisk" unicode="*" horiz-adv-x="404" 
d="M167 713h70l-11 -129l120 47l21 -67l-127 -27l90 -91l-52 -45l-77 105l-76 -105l-53 45l91 91l-126 27l19 67l121 -47z" />
    <glyph glyph-name="plus" unicode="+" horiz-adv-x="620" 
d="M346 542v-185h181v-65h-181v-184h-73v184h-180v65h180v185h73z" />
    <glyph glyph-name="comma" unicode="," horiz-adv-x="203" 
d="M15 -117q20 16 40 40.5t21 60.5q0 35 -16 60.5t-27 36.5l80 19q5 -4 11.5 -13t13.5 -22.5t11.5 -31.5t4.5 -39q0 -29 -10 -52.5t-25 -42t-33.5 -33t-36.5 -24.5z" />
    <glyph glyph-name="hyphen" unicode="-" horiz-adv-x="436" 
d="M85 292h265v-64h-265v64z" />
    <glyph glyph-name="period" unicode="." horiz-adv-x="216" 
d="M54 43q0 24 16 40t40 16q21 0 37 -15.5t16 -36.5q0 -24 -16.5 -40.5t-40.5 -16.5q-21 0 -36.5 15.5t-15.5 37.5z" />
    <glyph glyph-name="slash" unicode="/" horiz-adv-x="413" 
d="M437 774l-378 -896h-76l378 896h76z" />
    <glyph glyph-name="zero" unicode="0" horiz-adv-x="628" 
d="M317 59q74 0 120 67.5t46 193.5q0 62 -12 112.5t-34 85.5t-54 54t-72 19q-75 0 -120.5 -69t-45.5 -195q0 -62 12 -111.5t34 -84.5t54 -53.5t72 -18.5zM311 -10q-64 0 -111 25t-78 69t-46 104.5t-15 131.5t16 133t48 108t80 72t112 26t111 -25t78 -69.5t46 -105t15 -132.5
q0 -71 -16 -132.5t-48 -107t-80 -71.5t-112 -26z" />
    <glyph glyph-name="one" unicode="1" horiz-adv-x="404" 
d="M168 66v519q-32 -2 -65.5 -4t-66.5 -4l-7 61q107 8 211 21h8v-593l117 -2v-64h-331v64z" />
    <glyph glyph-name="two" unicode="2" horiz-adv-x="512" 
d="M56 57q88 97 145 163t90.5 112.5t46.5 77.5t13 57q0 59 -30.5 91t-90.5 32q-23 0 -45.5 -4.5t-40.5 -10.5t-31 -12t-18 -9l-25 55q8 5 24.5 13.5t39 16.5t49.5 14t56 6q45 0 81.5 -13.5t62 -37.5t39 -58t13.5 -75q0 -37 -16.5 -76t-50.5 -87t-86 -108t-123 -138h304v-66
h-407v57z" />
    <glyph glyph-name="three" unicode="3" horiz-adv-x="510" 
d="M342 477q0 55 -33.5 84t-99.5 29q-20 0 -39.5 -3.5t-36 -8.5t-29 -10t-17.5 -8l-25 55q5 3 19 10.5t34.5 15t46.5 13t56 5.5q50 0 87.5 -13.5t63.5 -37t39 -55.5t13 -69q0 -47 -27.5 -84.5t-65.5 -60.5q49 -20 81.5 -60.5t32.5 -98.5q0 -86 -61.5 -138t-171.5 -52
q-52 0 -92 14t-61 25l24 58q14 -6 48 -16.5t90 -10.5q28 0 54 7.5t46 21.5t32 35t12 49q0 62 -39.5 94t-113.5 32h-47v66h97q14 5 28.5 14.5t26.5 23.5t20 32.5t8 41.5z" />
    <glyph glyph-name="four" unicode="4" horiz-adv-x="564" 
d="M337 650h83v-432h100v-66h-100v-152h-79v152h-302v63zM341 218v323l-218 -323h218z" />
    <glyph glyph-name="five" unicode="5" horiz-adv-x="514" 
d="M364 193q0 35 -12 62t-33 45.5t-50 28t-63 9.5q-48 0 -78 -5t-50 -10l10 327h330v-66h-253l-6 -182q8 2 24.5 3.5t30.5 1.5q109 0 170.5 -55t60.5 -151q0 -46 -16 -84.5t-45.5 -66.5t-73 -44t-99.5 -16q-28 0 -53.5 5.5t-46.5 12.5t-35.5 14t-19.5 11l23 59
q5 -2 17.5 -7.5t31 -11t42 -9.5t50.5 -4q69 0 106.5 38t37.5 95z" />
    <glyph glyph-name="six" unicode="6" horiz-adv-x="575" 
d="M351 589q-51 0 -89.5 -23.5t-64 -60t-39 -81.5t-14.5 -87q9 8 24.5 17.5t35 17.5t43 13.5t48.5 5.5q47 0 86 -13t67 -38.5t43.5 -62t15.5 -83.5q0 -45 -14.5 -82.5t-42.5 -64.5t-69 -42t-93 -15q-114 0 -170.5 77.5t-56.5 224.5q0 75 17.5 141.5t53.5 117t92.5 79.5
t134.5 29q42 0 70 -9.5t36 -13.5l-16 -61q-8 3 -35 8.5t-63 5.5zM295 59q57 0 92 32.5t35 94.5q0 38 -11 64t-29.5 42t-42.5 23t-51 7q-50 0 -88 -19.5t-54 -39.5q0 -94 36 -149t113 -55z" />
    <glyph glyph-name="seven" unicode="7" horiz-adv-x="509" 
d="M453 585l-242 -585h-82l243 584h-257l-5 -107h-54l-7 173h404v-65z" />
    <glyph glyph-name="eight" unicode="8" horiz-adv-x="536" 
d="M268 -10q-45 0 -84 10.5t-68 31t-45.5 51t-16.5 69.5q0 57 36.5 97.5t104.5 77.5l-12 6q-19 9 -39 22.5t-36.5 33t-27.5 43.5t-11 54q0 37 16 68.5t43 55t63.5 36.5t76.5 13q45 0 81.5 -12t62.5 -33.5t40.5 -52.5t14.5 -70q0 -28 -11 -51t-29.5 -42t-42.5 -34t-50 -29
l22 -10q52 -25 89 -65.5t37 -98.5q0 -36 -16.5 -67.5t-45.5 -54.5t-68 -36t-84 -13zM268 58q25 0 49 6.5t43 19.5t30.5 31t11.5 42q0 44 -26.5 69.5t-74.5 48.5l-44 22q-70 -37 -96.5 -71t-26.5 -69q0 -25 11.5 -44t30.5 -31t43 -18t49 -6zM387 487q0 47 -34 76t-85 29
q-25 0 -47 -7.5t-38 -21t-25 -32t-9 -39.5q0 -40 22.5 -65t76.5 -51l23 -11q58 31 87 59t29 63z" />
    <glyph glyph-name="nine" unicode="9" horiz-adv-x="575" 
d="M234 60q49 0 85 18t60 51t36.5 79.5t14.5 103.5q-9 -8 -24.5 -17t-35 -17t-42.5 -13.5t-48 -5.5q-99 0 -155.5 52.5t-56.5 143.5q0 45 14.5 82.5t43 64.5t69.5 42t93 15q113 0 169.5 -77.5t56.5 -224.5q0 -86 -16.5 -154t-51.5 -115.5t-89.5 -72.5t-130.5 -25
q-42 0 -77 9t-49 15l16 60q14 -5 44.5 -9.5t73.5 -4.5zM280 591q-57 0 -92 -33.5t-35 -95.5q0 -37 11 -62.5t29.5 -41.5t43 -23t51.5 -7q50 0 87.5 19.5t54.5 38.5q0 94 -37 149.5t-113 55.5z" />
    <glyph glyph-name="colon" unicode=":" horiz-adv-x="216" 
d="M54 454q0 23 16 39.5t40 16.5q21 0 37 -15.5t16 -36.5q0 -25 -16.5 -41t-40.5 -16q-21 0 -36.5 15.5t-15.5 37.5zM54 43q0 24 16 40t40 16q21 0 37 -15.5t16 -36.5q0 -24 -16.5 -40.5t-40.5 -16.5q-21 0 -36.5 15.5t-15.5 37.5z" />
    <glyph glyph-name="semicolon" unicode=";" horiz-adv-x="203" 
d="M15 -117q20 16 40 40.5t21 60.5q0 35 -16 60.5t-27 36.5l80 19q5 -4 11.5 -13t13.5 -22.5t11.5 -31.5t4.5 -39q0 -29 -10 -52.5t-25 -42t-33.5 -33t-36.5 -24.5zM42 454q0 23 16 39.5t40 16.5q21 0 36.5 -15.5t15.5 -36.5q0 -25 -16.5 -41t-39.5 -16q-22 0 -37 15.5
t-15 37.5z" />
    <glyph glyph-name="less" unicode="&#x3c;" horiz-adv-x="496" 
d="M403 500l-232 -175l232 -176l-43 -50l-297 226l297 226z" />
    <glyph glyph-name="equal" unicode="=" horiz-adv-x="598" 
d="M93 442h412v-65h-412v65zM93 272h412v-64h-412v64z" />
    <glyph glyph-name="greater" unicode="&#x3e;" horiz-adv-x="496" 
d="M93 149l232 176l-232 175l43 51l297 -226l-297 -226z" />
    <glyph glyph-name="question" unicode="?" horiz-adv-x="391" 
d="M110 228q0 24 8.5 45t22 39.5t30.5 34.5t33 31q24 23 44.5 51.5t20.5 60.5q0 53 -33 76t-79 23t-73.5 -11t-38.5 -16l-25 56q17 11 54.5 26t91.5 15q38 0 71.5 -11t59 -31.5t40.5 -49.5t15 -65q0 -28 -8.5 -51t-21.5 -42.5t-29.5 -36.5t-33.5 -33q-29 -28 -53 -53
t-26 -57q-2 -16 -0.5 -25.5t3.5 -14.5l-66 -8q-3 8 -5 22t-2 25zM105 43q0 24 16.5 40t40.5 16q21 0 36.5 -15.5t15.5 -36.5q0 -24 -16.5 -40.5t-39.5 -16.5q-22 0 -37.5 15.5t-15.5 37.5z" />
    <glyph glyph-name="at" unicode="@" horiz-adv-x="1087" 
d="M790 2q-29 0 -51 10t-37 23.5t-23.5 28t-11.5 23.5q-13 -13 -30.5 -28t-38.5 -27.5t-45.5 -21t-52.5 -8.5q-45 0 -78 19.5t-55 51.5t-33 73t-11 84q0 54 17 104.5t49 89.5t80 62.5t109 23.5q30 0 58 -7.5t50.5 -17t38 -18.5t21.5 -13l-22 -297q-2 -40 19.5 -63.5
t51.5 -23.5q56 0 86 62t30 170q0 167 -89 260t-258 93q-93 0 -166.5 -35.5t-125 -94t-78.5 -135t-27 -158.5q0 -85 24.5 -153.5t68.5 -117t105.5 -74t135.5 -25.5q28 0 53.5 3.5t46 8.5t34.5 10t20 8l20 -57q-8 -3 -24.5 -9.5t-39.5 -13t-52 -11t-62 -4.5q-92 0 -168 30
t-131 85.5t-85 134.5t-30 177t33 188t96 159t154.5 110.5t208.5 41.5q96 0 173.5 -29.5t132.5 -83.5t84.5 -130t29.5 -169q0 -64 -14 -120.5t-40.5 -98.5t-64.5 -66t-86 -24zM664 420q-6 3 -31.5 11.5t-63.5 8.5t-68.5 -16.5t-51.5 -44t-32 -64t-11 -76.5q0 -35 6.5 -65.5
t20.5 -53.5t35.5 -36.5t51.5 -13.5q21 0 40 7.5t35 18t28.5 22t19.5 20.5z" />
    <glyph glyph-name="A" unicode="A" horiz-adv-x="601" 
d="M437 174h-273l-63 -174h-86l248 649h74l249 -649h-86zM188 240h225l-113 321z" />
    <glyph glyph-name="B" unicode="B" horiz-adv-x="580" 
d="M85 0v649h199q100 0 156.5 -43t56.5 -121q0 -46 -23.5 -84t-65.5 -60q56 -17 87 -60t31 -102q0 -85 -62 -132t-172 -47h-207zM165 302v-239h127q71 0 110.5 29t39.5 80q0 61 -39.5 95.5t-110.5 34.5h-127zM165 366h175q35 13 54 42.5t19 69.5q0 51 -36 79.5t-100 28.5
h-112v-220z" />
    <glyph glyph-name="C" unicode="C" horiz-adv-x="546" 
d="M46 323q0 74 22 136t63 106.5t100 69t132 24.5q39 0 76.5 -9.5t63.5 -22.5l-20 -61q-24 10 -54.5 17t-65.5 7q-52 0 -95 -17t-73.5 -50t-47.5 -81t-17 -110t16 -112.5t47.5 -86t77.5 -54.5t106 -19q35 0 68 7t56 17l21 -60q-29 -15 -69.5 -24.5t-82.5 -9.5q-76 0 -136 24
t-102 67.5t-64 105t-22 136.5z" />
    <glyph glyph-name="D" unicode="D" horiz-adv-x="630" 
d="M85 0v649h191q76 0 133.5 -23.5t96.5 -66.5t58.5 -102t19.5 -131q0 -73 -21.5 -133t-62.5 -103t-100 -66.5t-135 -23.5h-180zM276 63q48 0 89 16.5t71 49t47 80.5t17 110q0 126 -61 196.5t-174 70.5h-101v-523h112z" />
    <glyph glyph-name="E" unicode="E" horiz-adv-x="509" 
d="M443 583h-286v-223h276v-66h-276v-228h296v-66h-375v649h365v-66z" />
    <glyph glyph-name="F" unicode="F" horiz-adv-x="480" 
d="M441 583h-276v-223h256v-66h-256v-294h-80v649h356v-66z" />
    <glyph glyph-name="G" unicode="G" horiz-adv-x="604" 
d="M550 43q-31 -23 -83 -38t-103 -15q-77 0 -136.5 24.5t-100 69t-61 105.5t-20.5 134t21.5 134.5t62.5 106.5t100 70t135 25q40 0 81 -10t76 -28l-24 -59q-25 9 -59.5 18.5t-76.5 9.5q-50 0 -92.5 -16.5t-73.5 -49.5t-48.5 -81.5t-17.5 -112.5t17 -114.5t49 -85t77.5 -52.5
t101.5 -18q24 0 51 4t44 11v199l-126 2v61h206v-294z" />
    <glyph glyph-name="H" unicode="H" horiz-adv-x="654" 
d="M489 294h-324v-294h-80v649h80v-289h324v289h80v-649h-80v294z" />
    <glyph glyph-name="I" unicode="I" 
d="M85 649h80v-649h-80v649z" />
    <glyph glyph-name="J" unicode="J" horiz-adv-x="345" 
d="M279 649v-503q0 -75 -41.5 -115.5t-119.5 -40.5q-24 0 -52.5 8.5t-45.5 22.5l21 56q16 -8 35.5 -12.5t47.5 -4.5q76 0 76 79v510h79z" />
    <glyph glyph-name="K" unicode="K" horiz-adv-x="581" 
d="M165 276l274 373h96l-208 -278l239 -371h-95l-197 312l-109 -141v-171h-80v649h80v-373z" />
    <glyph glyph-name="L" unicode="L" horiz-adv-x="456" 
d="M441 0h-356v649h80v-583h276v-66z" />
    <glyph glyph-name="M" unicode="M" horiz-adv-x="811" 
d="M85 649h121l199 -469l199 469h121v-649h-77v570l-207 -487h-72l-206 487v-570h-78v649z" />
    <glyph glyph-name="N" unicode="N" horiz-adv-x="654" 
d="M163 548v-548h-78v649h101l306 -548v548h77v-649h-101z" />
    <glyph glyph-name="O" unicode="O" horiz-adv-x="680" 
d="M343 58q97 0 151.5 69t54.5 192q0 129 -56 201t-157 72q-97 0 -151.5 -69t-54.5 -193q0 -128 56.5 -200t156.5 -72zM337 -10q-68 0 -122 23t-91.5 65.5t-57.5 104.5t-20 140q0 79 20.5 141t58.5 105.5t93.5 66.5t124.5 23q68 0 121.5 -23t91 -65.5t57.5 -104.5t20 -140
q0 -79 -20 -141t-58.5 -105.5t-93.5 -66.5t-124 -23z" />
    <glyph glyph-name="P" unicode="P" horiz-adv-x="518" 
d="M85 0v649h189q103 0 161 -51t58 -141q0 -95 -59 -148.5t-165 -53.5h-104v-255h-80zM165 319h109q63 0 99 34.5t36 96.5q0 66 -36 101t-104 35h-104v-267z" />
    <glyph glyph-name="Q" unicode="Q" horiz-adv-x="680" 
d="M810 -194q-49 -9 -97 -9q-108 0 -182 53.5t-123 148.5q-34 -9 -71 -9q-67 0 -121 24.5t-91.5 69t-58 105.5t-20.5 134t21 134.5t60 106.5t94 70t122 25t121 -24.5t91.5 -69t57.5 -105.5t20 -134q0 -103 -41 -182t-114 -119q42 -77 99.5 -119t145.5 -42q19 0 38.5 1.5
t41.5 5.5zM343 58q41 0 78 16.5t65.5 49.5t45.5 82t17 113q0 65 -16.5 115.5t-45.5 85.5t-67.5 53.5t-83.5 18.5q-40 0 -77.5 -17t-66 -50t-45.5 -82t-17 -113t16.5 -114.5t45.5 -85.5t68 -53.5t83 -18.5z" />
    <glyph glyph-name="R" unicode="R" horiz-adv-x="547" 
d="M85 0v649h198q103 0 161 -49.5t58 -137.5q0 -28 -10.5 -56.5t-29 -52.5t-43.5 -43t-55 -29l149 -281h-86l-136 266h-126v-266h-80zM165 330h162q42 12 66.5 46.5t24.5 78.5q0 63 -36 97t-103 34h-114v-256z" />
    <glyph glyph-name="S" unicode="S" horiz-adv-x="491" 
d="M62 99q28 -14 68.5 -26.5t90.5 -12.5q67 0 106 25.5t39 73.5q0 42 -27 69t-93 54l-69 30q-62 26 -96.5 65.5t-34.5 105.5q0 41 17.5 74t47 55.5t67.5 34.5t80 12q51 0 92 -11t69 -25l-18 -63q-26 11 -65.5 20.5t-78.5 9.5q-60 0 -95 -28t-35 -73q0 -43 23.5 -68t80.5 -48
l73 -32q71 -32 107 -73.5t36 -102.5q0 -84 -60 -129.5t-166 -45.5q-58 0 -105.5 14.5t-73.5 31.5z" />
    <glyph glyph-name="T" unicode="T" horiz-adv-x="486" 
d="M15 649h456v-66h-188v-583h-80v583h-188v66z" />
    <glyph glyph-name="U" unicode="U" horiz-adv-x="613" 
d="M148 257q0 -97 42.5 -147t118.5 -50q72 0 114 48t42 138v403h79v-396q0 -124 -63.5 -193.5t-177.5 -69.5q-110 0 -172.5 68t-62.5 192v399h80v-392z" />
    <glyph glyph-name="V" unicode="V" horiz-adv-x="601" 
d="M586 649l-243 -649h-85l-243 649h86l199 -555l200 555h86z" />
    <glyph glyph-name="W" unicode="W" horiz-adv-x="947" 
d="M923 649l-203 -649h-92l-154 514l-155 -514h-92l-203 649h90l159 -555l163 546h76l162 -546l159 555h90z" />
    <glyph glyph-name="X" unicode="X" horiz-adv-x="616" 
d="M592 0h-92l-192 272l-189 -272h-95l236 332l-213 317h92l169 -257l171 257h91l-213 -317z" />
    <glyph glyph-name="Y" unicode="Y" horiz-adv-x="537" 
d="M228 250l-213 399h86l169 -324l168 324h84l-213 -399v-250h-81v250z" />
    <glyph glyph-name="Z" unicode="Z" horiz-adv-x="515" 
d="M372 583h-313v66h407v-57l-333 -526h353v-66h-447v58z" />
    <glyph glyph-name="bracketleft" unicode="[" horiz-adv-x="312" 
d="M283 -133l-198 -3v920h198v-63l-121 -2v-789h121v-63z" />
    <glyph glyph-name="backslash" unicode="\" horiz-adv-x="413" 
d="M52 774l378 -896h-76l-378 896h76z" />
    <glyph glyph-name="bracketright" unicode="]" horiz-adv-x="312" 
d="M20 780l197 4v-920h-197v62l120 2v790h-120v62z" />
    <glyph glyph-name="asciicircum" unicode="^" horiz-adv-x="540" 
d="M54 388l178 335h76l178 -335h-83l-133 259l-133 -259h-83z" />
    <glyph glyph-name="underscore" unicode="_" horiz-adv-x="588" 
d="M85 -33h417v-65h-417v65z" />
    <glyph glyph-name="grave" unicode="`" horiz-adv-x="345" 
d="M271 585l-217 77l32 71l206 -101z" />
    <glyph glyph-name="a" unicode="a" horiz-adv-x="485" 
d="M399 97q0 -44 34 -44q10 0 16.5 2t10.5 4l8 -57q-8 -4 -23 -8t-32 -4q-36 0 -55.5 20.5t-26.5 47.5q-29 -32 -65.5 -50t-77.5 -18q-31 0 -58 9.5t-46.5 27.5t-30.5 42.5t-11 54.5q0 53 26.5 84.5t67.5 47.5t90 18.5t94 -2.5v54q0 54 -24 84t-83 30q-38 0 -73 -10t-54 -19
l-20 58q20 12 62.5 26.5t94.5 14.5q86 0 131 -45.5t45 -125.5v-242zM123 133q0 -35 23 -55.5t62 -20.5q32 1 60.5 16t51.5 40v105q-23 3 -56.5 3.5t-65 -7.5t-53.5 -26.5t-22 -54.5z" />
    <glyph glyph-name="b" unicode="b" horiz-adv-x="563" 
d="M164 723v-244q61 31 122 31q52 0 94.5 -18.5t73 -52t47 -81t16.5 -104.5q0 -125 -66.5 -194.5t-185.5 -69.5q-21 0 -46 4t-49.5 11.5t-46.5 17t-38 20.5v670zM433 246q0 44 -11.5 79.5t-32.5 61t-50.5 39.5t-65.5 14q-58 0 -109 -27v-332q23 -11 50.5 -16t53.5 -5
q81 0 123 47.5t42 138.5z" />
    <glyph glyph-name="c" unicode="c" horiz-adv-x="456" 
d="M130 253q0 -91 44.5 -142t123.5 -51q54 0 107 22l21 -59q-26 -14 -63.5 -23.5t-74.5 -9.5q-54 0 -98.5 18.5t-76.5 52t-49.5 80.5t-17.5 104q0 59 18 108t50.5 84t78 54t100.5 19q38 0 70 -9.5t54 -22.5l-23 -58q-21 8 -46 14t-57 6q-75 0 -118 -50t-43 -137z" />
    <glyph glyph-name="d" unicode="d" horiz-adv-x="568" 
d="M424 0l-10 58q-35 -33 -74.5 -50.5t-81.5 -17.5q-48 0 -87 18.5t-67 52t-43 80.5t-15 104q0 58 18.5 106.5t51.5 84t78 55t97 19.5q26 0 56.5 -7t56.5 -20v230l79 10v-723h-59zM404 415q-23 12 -53.5 18.5t-62.5 6.5q-35 0 -64 -14t-50 -39t-32.5 -59t-11.5 -75
q0 -88 39 -140.5t104 -52.5q39 0 74.5 16t56.5 43v296z" />
    <glyph glyph-name="e" unicode="e" horiz-adv-x="506" 
d="M131 232q2 -82 44.5 -127t120.5 -45q33 0 66.5 6.5t56.5 15.5l19 -61q-25 -11 -66 -21t-86 -10q-55 0 -99.5 18.5t-76 52.5t-48 81t-16.5 104q0 59 16.5 108t46.5 83.5t73 53.5t97 19q87 0 133.5 -49t46.5 -134q0 -29 -5 -55t-10 -40h-313zM270 445q-63 0 -98.5 -43
t-40.5 -113h245q3 9 4 19.5t1 23.5q-1 56 -30.5 84.5t-80.5 28.5z" />
    <glyph glyph-name="f" unicode="f" horiz-adv-x="316" 
d="M172 500h130v-65h-126v-435h-79v435h-82v57l86 6v61q0 36 12 66.5t34 52t53 33.5t68 12q26 0 48 -5.5t34 -9.5l-15 -62q-12 3 -31 6.5t-39 3.5q-93 0 -93 -106v-50z" />
    <glyph glyph-name="g" unicode="g" horiz-adv-x="507" 
d="M225 158h-12.5t-10.5 1q-14 -11 -25.5 -25.5t-11.5 -29.5q-2 -34 47 -34h96q35 0 65 -9.5t52 -26.5t34.5 -42.5t12.5 -56.5q0 -33 -17.5 -60.5t-48.5 -47t-74 -30t-94 -10.5q-96 0 -147.5 30.5t-51.5 87.5q0 40 28.5 70.5t62.5 47.5q-11 7 -23.5 21t-12.5 39
q0 23 16 45.5t42 41.5q-51 17 -79 58.5t-28 102.5q0 41 14 74.5t38.5 56.5t59 35.5t74.5 12.5q33 0 62 -10t52 -28q29 23 65 31.5t68 3.5v-66q-20 3 -45 1t-49 -12q12 -20 19 -43.5t7 -50.5q0 -41 -13.5 -74t-38.5 -56t-58.5 -35.5t-74.5 -12.5zM228 216q47 0 76.5 31
t29.5 83q0 60 -29 91t-77 31q-47 0 -77 -31.5t-30 -83.5q0 -60 29.5 -90.5t77.5 -30.5zM251 -150q63 0 102.5 21t39.5 58q0 34 -25.5 52.5t-80.5 18.5h-110q-23 -11 -42 -31t-19 -46q0 -35 35.5 -54t99.5 -19z" />
    <glyph glyph-name="h" unicode="h" horiz-adv-x="561" 
d="M164 723v-279q38 32 80 49t83 17q77 0 116.5 -46t39.5 -135v-329h-79v317q0 123 -101 123q-32 0 -71.5 -17.5t-67.5 -43.5v-379h-79v713z" />
    <glyph glyph-name="i" unicode="i" 
d="M164 500v-500h-79v500h79zM70 657q0 23 16.5 39.5t40.5 16.5q21 0 36.5 -15.5t15.5 -36.5q0 -25 -16.5 -41t-39.5 -16q-22 0 -37.5 15.5t-15.5 37.5z" />
    <glyph glyph-name="j" unicode="j" 
d="M85 500h79v-521q0 -97 -39.5 -139.5t-119.5 -42.5q-12 0 -27 1.5t-23 3.5l8 65q15 -3 37 -3q45 0 65 25t20 82v529zM70 657q0 23 16.5 39.5t40.5 16.5q21 0 36.5 -15.5t15.5 -36.5q0 -25 -16.5 -41t-39.5 -16q-22 0 -37.5 15.5t-15.5 37.5z" />
    <glyph glyph-name="k" unicode="k" horiz-adv-x="513" 
d="M164 723v-492l210 269h91l-163 -209l182 -291h-90l-149 240l-81 -100v-140h-79v713z" />
    <glyph glyph-name="l" unicode="l" 
d="M164 723v-723h-79v713z" />
    <glyph glyph-name="m" unicode="m" horiz-adv-x="860" 
d="M149 500l8 -61q39 34 81.5 52.5t83.5 18.5q96 0 131 -77q51 43 96 60t81 17q75 0 113.5 -46t38.5 -135v-329h-79v317q0 123 -97 123q-26 0 -61 -14.5t-72 -44.5v-381h-79v317q0 123 -96 123q-31 0 -69 -17.5t-65 -43.5v-379h-79v500h64z" />
    <glyph glyph-name="n" unicode="n" horiz-adv-x="561" 
d="M149 500l8 -61q40 34 84 52.5t86 18.5q77 0 116.5 -46t39.5 -135v-329h-79v317q0 123 -101 123q-32 0 -71.5 -17.5t-67.5 -43.5v-379h-79v500h64z" />
    <glyph glyph-name="o" unicode="o" horiz-adv-x="557" 
d="M275 -10q-51 0 -93 18.5t-72.5 52.5t-47 81t-16.5 104q0 59 17 108t48 83.5t74.5 53.5t95.5 19q51 0 93 -18.5t72.5 -52.5t47 -81t16.5 -104q0 -59 -17 -108t-47.5 -83.5t-74 -53.5t-96.5 -19zM281 55q67 0 106.5 51.5t39.5 139.5q0 93 -40.5 146t-111.5 53
q-66 0 -105.5 -51.5t-39.5 -139.5q0 -93 40 -146t111 -53z" />
    <glyph glyph-name="p" unicode="p" horiz-adv-x="568" 
d="M144 500l10 -58q35 33 74.5 50.5t81.5 17.5q48 0 87 -18.5t67 -52t43 -80.5t15 -105q0 -57 -18.5 -105.5t-51.5 -84t-77.5 -55t-97.5 -19.5q-26 0 -56.5 7t-56.5 20v-210h-79v693h59zM164 85q23 -12 53.5 -18.5t62.5 -6.5q36 0 65 14t49.5 39t32 59t11.5 74
q0 89 -38.5 141.5t-104.5 52.5q-39 0 -74.5 -16t-56.5 -43v-296z" />
    <glyph glyph-name="q" unicode="q" horiz-adv-x="563" 
d="M399 -193v214q-61 -31 -122 -31q-52 0 -94.5 18.5t-73 52t-47 80.5t-16.5 104q0 125 66.5 195t185.5 70q21 0 46 -4t49.5 -10.5t46.5 -15.5t38 -19v-654h-79zM130 253q0 -43 11.5 -78.5t32.5 -61t50.5 -39.5t65.5 -14q58 0 109 27v332q-23 11 -50.5 16t-53.5 5
q-81 0 -123 -47.5t-42 -139.5z" />
    <glyph glyph-name="r" unicode="r" horiz-adv-x="344" 
d="M145 500l12 -70q10 12 27.5 25.5t39 25t46.5 20t49 9.5v-80q-45 -2 -88.5 -18.5t-66.5 -39.5v-372h-79v500h60z" />
    <glyph glyph-name="s" unicode="s" horiz-adv-x="404" 
d="M61 91q20 -10 55 -20.5t78 -10.5q45 0 72 14.5t27 49.5q0 32 -24 51t-75 39l-42 16q-51 20 -79 52.5t-28 85.5q0 34 14 60.5t37.5 44.5t54 27.5t64.5 9.5q47 0 83 -10.5t53 -19.5l-18 -64q-20 8 -50 16t-68 8q-42 0 -68 -17t-26 -50q0 -27 18 -46t71 -40l43 -17
q57 -23 87 -56t30 -87q0 -64 -44.5 -100.5t-130.5 -36.5q-53 0 -91.5 11.5t-64.5 25.5z" />
    <glyph glyph-name="t" unicode="t" horiz-adv-x="368" 
d="M173 500h151v-65h-148v-288q0 -48 20 -69t64 -21q14 0 33 3t31 7l15 -62q-18 -6 -45 -10.5t-48 -4.5q-72 0 -110.5 37.5t-38.5 107.5v300h-82v57l87 5l2 114l69 9v-120z" />
    <glyph glyph-name="u" unicode="u" horiz-adv-x="549" 
d="M400 0l-8 61q-39 -34 -81.5 -52.5t-83.5 -18.5q-75 0 -113 46t-38 135v329h79v-317q0 -123 96 -123q31 0 69 17.5t65 43.5v379h78v-500h-63z" />
    <glyph glyph-name="v" unicode="v" horiz-adv-x="504" 
d="M489 500l-201 -500h-72l-201 500h84l153 -402l153 402h84z" />
    <glyph glyph-name="w" unicode="w" horiz-adv-x="780" 
d="M755 500l-160 -500h-83l-122 379l-123 -379h-83l-160 500h82l121 -411l130 406h66l130 -406l121 411h81z" />
    <glyph glyph-name="x" unicode="x" horiz-adv-x="487" 
d="M472 0h-92l-137 199l-136 -199h-92l183 255l-166 245h93l118 -187l119 187h93l-166 -245z" />
    <glyph glyph-name="y" unicode="y" horiz-adv-x="500" 
d="M485 500l-177 -488q-22 -60 -43.5 -101.5t-46 -66.5t-54 -36t-68.5 -11q-29 0 -53.5 7.5t-32.5 12.5l19 60q8 -3 25.5 -8t41.5 -5q44 0 71.5 27.5t51.5 98.5l-209 510h85l164 -423l142 423h84z" />
    <glyph glyph-name="z" unicode="z" horiz-adv-x="469" 
d="M312 435h-242v65h336v-57l-264 -378h278v-65h-371v57z" />
    <glyph glyph-name="braceleft" unicode="{" horiz-adv-x="319" 
d="M146 667q0 -29 15.5 -54.5t34 -51.5t34 -54t15.5 -63q0 -42 -25 -74t-63 -46q38 -14 63 -45t25 -66q0 -37 -15.5 -67t-34 -56.5t-34 -50t-15.5 -49.5q0 -30 21 -50t57 -20q16 0 31 2.5t28 6.5l14 -61q-11 -5 -32.5 -9t-48.5 -4q-31 0 -57 10t-45 27.5t-29.5 41.5
t-10.5 51q0 35 15 63.5t33.5 54.5t33.5 50.5t15 51.5q0 33 -25.5 59.5t-80.5 26.5h-11v66h16q26 0 44.5 7.5t31.5 18.5t19 25.5t6 27.5q0 30 -15 56t-33.5 51.5t-33.5 53t-15 58.5q0 61 41 99.5t109 38.5q21 0 41.5 -4t31.5 -9l-14 -61q-13 4 -29 7t-38 3q-30 0 -50 -19.5
t-20 -42.5z" />
    <glyph glyph-name="bar" unicode="|" horiz-adv-x="248" 
d="M162 744v-988h-77v988h77z" />
    <glyph glyph-name="braceright" unicode="}" horiz-adv-x="319" 
d="M163 667q0 23 -19.5 42.5t-49.5 19.5q-22 0 -38 -3t-29 -7l-15 61q12 5 32 9t42 4q68 0 109 -38.5t41 -99.5q0 -31 -15 -58.5t-33.5 -53t-33.5 -51.5t-15 -56q0 -13 6 -27.5t19 -25.5t32 -18.5t44 -7.5h16v-66h-12q-54 0 -79.5 -26.5t-25.5 -59.5q0 -27 15 -51.5
t33.5 -50.5t33.5 -54.5t15 -63.5q0 -27 -10.5 -51t-29.5 -41.5t-45 -27.5t-57 -10q-28 0 -49 4t-33 9l15 61q13 -4 28 -6.5t31 -2.5q36 0 56.5 20t20.5 50q0 26 -15.5 49.5t-33.5 50t-33.5 56.5t-15.5 67q0 35 25 66t63 45q-38 14 -63 46t-25 74q0 35 15.5 63t33.5 54
t33.5 51.5t15.5 54.5z" />
    <glyph glyph-name="asciitilde" unicode="~" horiz-adv-x="518" 
d="M73 323q27 26 56 39t65 13q20 0 38 -5.5t34.5 -12t32.5 -12t34 -5.5q28 0 50 12t36 21l26 -47q-27 -26 -55.5 -38.5t-65.5 -12.5q-20 0 -38 5.5t-34.5 12t-32.5 12t-34 5.5q-28 0 -50 -12t-36 -21z" />
    <glyph glyph-name="nonbreakingspace" unicode="&#xa0;" horiz-adv-x="225" 
 />
    <glyph glyph-name="exclamdown" unicode="&#xa1;" horiz-adv-x="246" 
d="M77 -149l17 463h58l17 -463h-92zM68 454q0 23 16.5 39.5t40.5 16.5q21 0 36.5 -15.5t15.5 -36.5q0 -25 -16.5 -41t-39.5 -16q-22 0 -37.5 15.5t-15.5 37.5z" />
    <glyph glyph-name="cent" unicode="&#xa2;" horiz-adv-x="585" 
d="M387 711l-4 -129q28 -3 57.5 -11t55.5 -20l-26 -54q-23 8 -52 14.5t-61 6.5q-37 0 -69 -12t-56 -36t-37.5 -60t-13.5 -83q0 -95 52 -147t143 -52q26 0 51 5t57 16l23 -54q-24 -13 -57.5 -21t-66.5 -10l4 -127h-73l3 129q-54 7 -94.5 29t-68.5 55.5t-42 77t-14 94.5
t15 95.5t43.5 78.5t69 56t92.5 28l-4 131h73z" />
    <glyph glyph-name="sterling" unicode="&#xa3;" horiz-adv-x="604" 
d="M94 363h63q-4 25 -6.5 50t-2.5 51q0 44 14 80t39.5 61.5t61 39.5t78.5 14q48 0 84.5 -13t53.5 -23l-26 -59q-23 8 -50 17t-65 9q-50 0 -78.5 -32.5t-28.5 -86.5q0 -27 3 -54t8 -54h177v-63h-169q2 -17 3 -33t1 -33q0 -37 -6.5 -78t-20.5 -82q49 -2 87 -10t77 -8
q34 -1 52 18t30 48l52 -21q-10 -50 -47.5 -80.5t-91.5 -30.5q-45 0 -89 10t-94 10h-13q-4 -5 -9 -9q-4 -4 -9 -8.5t-10 -7.5l-52 14l-13 53q8 5 21.5 9.5t28.5 7.5q14 42 19 82.5t5 75.5q0 18 -1.5 36.5t-3.5 36.5h-72v63z" />
    <glyph glyph-name="currency" unicode="&#xa4;" horiz-adv-x="739" 
d="M578 75l-94 82q-24 -14 -52.5 -22t-61.5 -8t-62 8t-53 22l-93 -82l-42 35l79 99q-36 50 -36 118t35 117l-78 100l42 35l93 -82q24 14 53 22t62 8t61.5 -8t52.5 -22l94 82l42 -35l-79 -100q36 -50 36 -117q0 -34 -9.5 -63.5t-26.5 -54.5l79 -99zM370 193q27 0 50 10
t40.5 27.5t27 42t9.5 54.5t-9.5 54.5t-27 42t-40.5 27.5t-50 10t-50 -10t-40.5 -27.5t-27 -42t-9.5 -54.5t9.5 -54.5t27 -42t40.5 -27.5t50 -10z" />
    <glyph glyph-name="yen" unicode="&#xa5;" horiz-adv-x="645" 
d="M109 358v63h93l-139 228h86l173 -290l175 290h84l-141 -228h96v-63h-427zM119 292h407v-63h-164v-229h-80v229h-163v63z" />
    <glyph glyph-name="brokenbar" unicode="&#xa6;" horiz-adv-x="248" 
d="M162 744v-381h-77v381h77zM162 137v-381h-77v381h77z" />
    <glyph glyph-name="section" unicode="&#xa7;" horiz-adv-x="456" 
d="M403 625q-21 8 -57 18t-75 11q-27 -51 -21 -111.5t39 -137.5l58 -135q29 -69 51 -133.5t22 -130.5q0 -46 -17 -84.5t-47.5 -66t-73.5 -43t-94 -15.5q-54 0 -95.5 13t-63.5 26l24 59q21 -8 57 -18t75 -11q27 51 21 111t-39 138l-58 135q-29 69 -51 133.5t-22 130.5
q0 46 17 84.5t47.5 66t73.5 43t94 15.5q54 0 95.5 -13.5t63.5 -25.5zM245 131q35 -84 37 -146t-23 -107q40 15 61 47t21 76q0 61 -22.5 126t-48.5 127l-59 135q-35 84 -37 146t23 107q-40 -16 -61 -48t-21 -75q0 -61 22.5 -126t49.5 -127z" />
    <glyph glyph-name="dieresis" unicode="&#xa8;" horiz-adv-x="415" 
d="M59 657q0 23 16 39.5t40 16.5q21 0 36.5 -15.5t15.5 -36.5q0 -25 -16 -41t-40 -16q-21 0 -36.5 15.5t-15.5 37.5zM247 657q0 23 16 39.5t41 16.5q21 0 36.5 -15.5t15.5 -36.5q0 -25 -16.5 -41t-40.5 -16q-21 0 -36.5 15.5t-15.5 37.5z" />
    <glyph glyph-name="copyright" unicode="&#xa9;" horiz-adv-x="750" 
d="M110 327q0 -58 21 -109t57 -88.5t84.5 -59.5t104.5 -22q54 0 102 21.5t84 59t57 87t21 105.5q0 58 -21 109t-57.5 89t-86 60t-106.5 22q-53 0 -100.5 -22t-83 -59.5t-56 -87t-20.5 -105.5zM49 321q0 71 25.5 132.5t70 107t104 72t128.5 26.5q66 0 125.5 -26.5
t103.5 -71.5t70 -105.5t26 -128.5q0 -70 -26 -131.5t-71 -107.5t-105.5 -72t-129.5 -26q-66 0 -124 26t-102 71t-69.5 105.5t-25.5 128.5zM267 328q0 -64 31 -100.5t86 -36.5q17 0 37.5 3.5t42.5 13.5l19 -49q-21 -13 -50.5 -20t-56.5 -7q-40 0 -73 13.5t-57 38.5t-37 60
t-13 77q0 44 13.5 80t37.5 62t58 40t75 14q28 0 53 -7.5t43 -18.5l-19 -48q-17 7 -36.5 11t-42.5 4q-51 0 -81 -35t-30 -95z" />
    <glyph glyph-name="ordfeminine" unicode="&#xaa;" horiz-adv-x="308" 
d="M248 427q0 -16 16 -16q5 0 9.5 1t6.5 2l9 -45q-2 -2 -16 -7t-31 -5t-32 7t-22 23q-12 -10 -28 -20t-42 -10q-38 0 -63.5 21t-27.5 59q-2 41 27.5 64.5t78.5 27.5q13 1 25 0.5t20 -1.5v20q0 25 -10.5 39.5t-38.5 14.5q-29 0 -50 -8t-27 -11l-16 50q8 5 35.5 15.5
t65.5 10.5q57 0 84 -27t27 -72v-133zM95 443q1 -17 11.5 -24.5t25.5 -7.5q14 0 25.5 5.5t20.5 13.5v52q-3 1 -13 2t-24 -1q-47 -6 -46 -40z" />
    <glyph glyph-name="guillemotleft" unicode="&#xab;" horiz-adv-x="558" 
d="M292 426q-27 -43 -67 -88.5t-82 -87.5q42 -42 82 -87t67 -89l-57 -42q-38 54 -87 112.5t-94 105.5q45 48 94 106t87 112zM487 406q-26 -42 -57 -79.5t-70 -76.5q39 -39 70 -76.5t57 -78.5l-57 -43q-38 54 -76 102.5t-83 95.5q45 47 83 95.5t76 102.5z" />
    <glyph glyph-name="logicalnot" unicode="&#xac;" horiz-adv-x="604" 
d="M93 357h418v-220h-72v155h-346v65z" />
    <glyph glyph-name="uni00AD" unicode="&#xad;" horiz-adv-x="436" 
d="M85 292h265v-64h-265v64z" />
    <glyph glyph-name="registered" unicode="&#xae;" horiz-adv-x="750" 
d="M49 321q0 71 25.5 132.5t70 107t104 72t128.5 26.5q66 0 125.5 -26.5t103.5 -71.5t70 -105.5t26 -128.5q0 -70 -26 -131.5t-71 -107.5t-105.5 -72t-129.5 -26q-66 0 -124 26t-102 71t-69.5 105.5t-25.5 128.5zM110 327q0 -58 21 -109t57 -88.5t84.5 -59.5t104.5 -22
q54 0 102 21.5t84 59t57 87t21 105.5q0 58 -21 109t-57.5 89t-86 60t-106.5 22q-53 0 -100.5 -22t-83 -59.5t-56 -87t-20.5 -105.5zM253 135v375h118q62 0 97 -29.5t35 -82.5q0 -32 -21 -61t-53 -42l84 -160h-67l-76 147h-55v-147h-62zM315 332h79q19 6 31.5 23.5t12.5 38.5
q0 32 -17.5 49t-50.5 17h-55v-128z" />
    <glyph glyph-name="macron" unicode="&#xaf;" horiz-adv-x="372" 
d="M54 689h264v-60h-264v60z" />
    <glyph glyph-name="degree" unicode="&#xb0;" horiz-adv-x="326" 
d="M160 400q-29 0 -53 10t-41.5 27.5t-27 40.5t-9.5 48q0 28 9.5 52t27.5 42t43.5 28.5t56.5 10.5q29 0 53 -10t41 -27.5t26.5 -40.5t9.5 -49q0 -27 -9.5 -51t-27.5 -42t-43 -28.5t-56 -10.5zM166 460q29 0 45 20t16 46q0 30 -17 51.5t-50 21.5q-29 0 -45 -20.5t-16 -46.5
q0 -29 17.5 -50.5t49.5 -21.5z" />
    <glyph glyph-name="plusminus" unicode="&#xb1;" horiz-adv-x="571" 
d="M321 592v-161h157v-65h-157v-159h-72v159h-156v65h156v161h72zM102 94h367v-65h-367v65z" />
    <glyph glyph-name="twosuperior" unicode="&#xb2;" horiz-adv-x="278" 
d="M30 417q69 45 102 77t33 65q0 22 -14 32.5t-35 10.5q-24 0 -43 -8t-23 -10l-21 48q6 4 31.5 15.5t60.5 11.5q56 0 82.5 -30t26.5 -68q0 -43 -28.5 -77.5t-76.5 -61.5h119v-55h-214v50z" />
    <glyph glyph-name="threesuperior" unicode="&#xb3;" horiz-adv-x="261" 
d="M150 569q0 17 -13.5 25.5t-33.5 8.5q-18 0 -35 -4t-28 -9l-18 49q8 5 29.5 12.5t52.5 7.5q54 0 81.5 -25t27.5 -60q0 -26 -13 -39.5t-22 -18.5q13 -5 28.5 -20.5t15.5 -45.5q0 -45 -31.5 -69t-86.5 -24q-29 0 -51.5 6.5t-32.5 11.5l17 50q8 -3 26.5 -7.5t44.5 -4.5
q24 0 37.5 9t13.5 28t-12.5 28t-41.5 9h-39v48h67q6 5 11.5 12.5t5.5 21.5z" />
    <glyph glyph-name="acute" unicode="&#xb4;" horiz-adv-x="345" 
d="M54 632l216 106l32 -71l-227 -82z" />
    <glyph glyph-name="mu" unicode="&#xb5;" horiz-adv-x="549" 
d="M400 0l-8 61q-39 -34 -81.5 -52.5t-83.5 -18.5t-75 16v-37q0 -81 -36.5 -126.5t-110.5 -45.5q-10 0 -21.5 1.5t-18.5 3.5l8 65q6 -2 15 -2.5t17 -0.5q37 0 54 22.5t17 74.5v539h79v-317q0 -123 96 -123q31 0 69 17.5t65 43.5v379h78v-500h-63z" />
    <glyph glyph-name="paragraph" unicode="&#xb6;" horiz-adv-x="550" 
d="M268 250q-48 0 -88 13.5t-68.5 39t-44.5 62.5t-16 84t16.5 84t46 63t70 39.5t88.5 13.5h220v-66h-75v-604q0 -97 -41 -139.5t-124 -42.5q-11 0 -24 1.5t-20 3.5l8 65q8 -2 17.5 -2.5t18.5 -0.5q45 0 65 25t20 82v612h-69v-333z" />
    <glyph glyph-name="periodcentered" unicode="&#xb7;" horiz-adv-x="216" 
d="M54 248q0 24 16 40t40 16q21 0 37 -15.5t16 -36.5q0 -24 -16.5 -40.5t-40.5 -16.5q-21 0 -36.5 15.5t-15.5 37.5z" />
    <glyph glyph-name="cedilla" unicode="&#xb8;" horiz-adv-x="251" 
d="M60 -162q5 -2 16 -3.5t24 -1.5q21 0 30 11t9 25q0 15 -9.5 25t-28.5 10h-32l4 45h41q38 0 60.5 -18.5t22.5 -54.5q0 -43 -27 -66t-76 -23q-13 0 -24.5 2.5t-18.5 5.5z" />
    <glyph glyph-name="onesuperior" unicode="&#xb9;" horiz-adv-x="255" 
d="M105 423v175l-71 -9l-7 49q34 5 69.5 10.5t65.5 10.5h8v-236l63 -2v-54h-202v54z" />
    <glyph glyph-name="ordmasculine" unicode="&#xba;" horiz-adv-x="331" 
d="M162 357q-31 0 -55.5 12t-41.5 32t-26.5 47t-9.5 57q0 32 9.5 60t27 49t43.5 33t59 12q31 0 55.5 -12t42 -32t26.5 -47t9 -57q0 -33 -9 -61t-27 -48.5t-44 -32.5t-59 -12zM168 417q33 0 49 26.5t16 61.5q0 40 -17 67t-54 27q-32 0 -48 -26.5t-16 -61.5q0 -40 17 -67
t53 -27z" />
    <glyph glyph-name="guillemotright" unicode="&#xbb;" horiz-adv-x="558" 
d="M256 75q27 43 67 88t82 87q-42 42 -82 87.5t-67 88.5l57 42q39 -54 88 -112.5t94 -105.5q-45 -48 -94 -105.5t-88 -112.5zM61 95q27 41 57.5 79t69.5 76q-39 39 -69.5 77t-57.5 79l58 42q37 -53 75 -102t83 -96q-45 -47 -83 -95t-75 -102z" />
    <glyph glyph-name="questiondown" unicode="&#xbf;" horiz-adv-x="391" 
d="M281 272q0 -24 -8.5 -45t-22 -39.5t-30 -34.5t-33.5 -31q-24 -23 -44 -51.5t-20 -60.5q0 -53 32.5 -76t78.5 -23t73.5 10.5t38.5 15.5l26 -55q-18 -11 -55 -26t-91 -15q-38 0 -72 11t-59.5 31.5t-40.5 49.5t-15 65q0 28 8.5 51t21.5 42.5t30 36.5l33 33q29 28 53 53
t26 57q2 16 0.5 25.5t-3.5 14.5l66 8q3 -8 5 -22t2 -25zM177 454q0 23 16 39.5t40 16.5q21 0 37 -15.5t16 -36.5q0 -25 -16.5 -41t-40.5 -16q-21 0 -36.5 15.5t-15.5 37.5z" />
    <glyph glyph-name="Agrave" unicode="&#xc0;" horiz-adv-x="601" 
d="M437 174h-273l-63 -174h-86l248 649h74l249 -649h-86zM188 240h225l-113 321zM389 731l-217 78l32 71l206 -101z" />
    <glyph glyph-name="Aacute" unicode="&#xc1;" horiz-adv-x="601" 
d="M437 174h-273l-63 -174h-86l248 649h74l249 -649h-86zM188 240h225l-113 321zM191 779l217 105l31 -71l-227 -82z" />
    <glyph glyph-name="Acircumflex" unicode="&#xc2;" horiz-adv-x="601" 
d="M437 174h-273l-63 -174h-86l248 649h74l249 -649h-86zM188 240h225l-113 321zM405 718q-23 17 -53 40t-52 42q-22 -20 -50.5 -42.5t-54.5 -39.5l-38 54q28 18 64.5 44t78.5 58q42 -32 78.5 -58t64.5 -44z" />
    <glyph glyph-name="Atilde" unicode="&#xc3;" horiz-adv-x="601" 
d="M437 174h-273l-63 -174h-86l248 649h74l249 -649h-86zM188 240h225l-113 321zM152 792q14 28 40.5 45.5t59.5 17.5q14 0 28.5 -5t28 -10.5t26.5 -10.5t23 -5q20 0 32.5 12.5l19.5 19.5l41 -38q-36 -62 -99 -62q-15 0 -28.5 5t-26 11t-25.5 11t-26 5q-20 0 -34 -13
t-19 -21z" />
    <glyph glyph-name="Adieresis" unicode="&#xc4;" horiz-adv-x="601" 
d="M437 174h-273l-63 -174h-86l248 649h74l249 -649h-86zM188 240h225l-113 321zM147 803q0 24 16 40t41 16q20 0 36 -15.5t16 -35.5q0 -25 -16.5 -41.5t-40.5 -16.5q-21 0 -36.5 15.5t-15.5 37.5zM345 803q0 24 16.5 40t40.5 16q21 0 36.5 -15.5t15.5 -35.5
q0 -25 -16.5 -41.5t-40.5 -16.5q-21 0 -36.5 15.5t-15.5 37.5z" />
    <glyph glyph-name="Aring" unicode="&#xc5;" horiz-adv-x="601" 
d="M437 174h-273l-63 -174h-86l248 649h74l249 -649h-86zM188 240h225l-113 321zM200 804q0 43 29 72.5t74 29.5q20 0 37.5 -7.5t31 -21t21.5 -31t8 -37.5q0 -44 -29 -73.5t-74 -29.5q-19 0 -37 7.5t-31.5 21t-21.5 31.5t-8 38zM253 806q0 -20 14.5 -34t32.5 -14
q21 0 34.5 14.5t13.5 33.5q0 20 -14.5 34t-33.5 14q-20 0 -33.5 -14t-13.5 -34z" />
    <glyph glyph-name="AE" unicode="&#xc6;" horiz-adv-x="881" 
d="M823 650v-66h-261v-224h251v-66h-251v-228h271v-66h-351v175h-253l-124 -175h-90l467 650h341zM482 241v293l-207 -293h207z" />
    <glyph glyph-name="Ccedilla" unicode="&#xc7;" horiz-adv-x="554" 
d="M46 323q0 74 22 136t63 106.5t100 69t132 24.5q39 0 76.5 -9.5t63.5 -22.5l-20 -61q-24 10 -54.5 17t-65.5 7q-52 0 -95 -17t-73.5 -50t-47.5 -81t-17 -110t16 -112.5t47.5 -86t77.5 -54.5t106 -19q35 0 68 7t56 17l21 -60q-29 -15 -69.5 -24.5t-82.5 -9.5q-76 0 -136 24
t-102 67.5t-64 105t-22 136.5zM271 -162q5 -2 16.5 -3.5t24.5 -1.5q20 0 29 11t9 25q0 15 -9 25t-29 10h-32l5 45h41q37 0 60 -18.5t23 -54.5q0 -43 -27 -66t-77 -23q-13 0 -24.5 2.5t-17.5 5.5z" />
    <glyph glyph-name="Egrave" unicode="&#xc8;" horiz-adv-x="509" 
d="M451 583h-286v-223h276v-66h-276v-228h295v-66h-375v649h366v-66zM362 731l-217 78l32 71l205 -101z" />
    <glyph glyph-name="Eacute" unicode="&#xc9;" horiz-adv-x="509" 
d="M451 583h-286v-223h276v-66h-276v-228h295v-66h-375v649h366v-66zM164 779l216 105l32 -71l-227 -82z" />
    <glyph glyph-name="Ecircumflex" unicode="&#xca;" horiz-adv-x="509" 
d="M451 583h-286v-223h276v-66h-276v-228h295v-66h-375v649h366v-66zM378 718q-24 17 -53.5 40t-51.5 42q-22 -20 -51 -42.5t-54 -39.5l-38 54q28 18 64.5 44t78.5 58q42 -32 78.5 -58t64.5 -44z" />
    <glyph glyph-name="Edieresis" unicode="&#xcb;" horiz-adv-x="509" 
d="M451 583h-286v-223h276v-66h-276v-228h295v-66h-375v649h366v-66zM313 803q0 24 16 40t41 16q20 0 36 -15.5t16 -35.5q0 -25 -16.5 -41.5t-40.5 -16.5q-21 0 -36.5 15.5t-15.5 37.5zM125 803q0 24 16 40t40 16q21 0 36.5 -15.5t15.5 -35.5q0 -25 -16.5 -41.5t-39.5 -16.5
q-22 0 -37 15.5t-15 37.5z" />
    <glyph glyph-name="Igrave" unicode="&#xcc;" 
d="M85 649h80v-649h-80v649zM214 731l-217 78l32 71l205 -101z" />
    <glyph glyph-name="Iacute" unicode="&#xcd;" 
d="M85 649h80v-649h-80v649zM16 779l216 105l32 -71l-227 -82z" />
    <glyph glyph-name="Icircumflex" unicode="&#xce;" 
d="M85 649h80v-649h-80v649zM230 718q-24 17 -53.5 40t-51.5 42q-22 -20 -51 -42.5t-54 -39.5l-38 54q28 18 64.5 44t78.5 58q42 -32 78.5 -58t64.5 -44z" />
    <glyph glyph-name="Idieresis" unicode="&#xcf;" 
d="M85 649h80v-649h-80v649zM-19 803q0 24 16.5 40t40.5 16q21 0 36.5 -15.5t15.5 -35.5q0 -25 -16.5 -41.5t-39.5 -16.5q-22 0 -37.5 15.5t-15.5 37.5zM160 803q0 24 16.5 40t40.5 16q21 0 36.5 -15.5t15.5 -35.5q0 -25 -16.5 -41.5t-40.5 -16.5q-21 0 -36.5 15.5
t-15.5 37.5z" />
    <glyph glyph-name="Eth" unicode="&#xd0;" horiz-adv-x="625" 
d="M11 357h74v292h191q76 0 133.5 -23.5t96.5 -66.5t58.5 -102t19.5 -131q0 -73 -21.5 -133t-62.5 -103t-100 -66.5t-135 -23.5h-180v292h-74v65zM276 63q48 0 89 16.5t71 49t47 80.5t17 110q0 126 -61 196.5t-174 70.5h-101v-229h190v-65h-190v-229h112z" />
    <glyph glyph-name="Ntilde" unicode="&#xd1;" horiz-adv-x="654" 
d="M163 548v-548h-78v649h101l306 -548v548h77v-649h-101zM179 792q14 28 40.5 45.5t59.5 17.5q14 0 28.5 -5t28 -10.5t26 -10.5t23.5 -5q20 0 32.5 12.5l19.5 19.5l41 -38q-36 -62 -100 -62q-14 0 -27.5 5t-26 11t-25.5 11t-26 5q-20 0 -34 -13t-19 -21z" />
    <glyph glyph-name="Ograve" unicode="&#xd2;" horiz-adv-x="680" 
d="M337 -10q-68 0 -122 23t-91.5 65.5t-57.5 104.5t-20 140q0 79 20.5 141t58.5 105.5t93.5 66.5t124.5 23q68 0 121.5 -23t91 -65.5t57.5 -104.5t20 -140q0 -79 -20 -141t-58.5 -105.5t-93.5 -66.5t-124 -23zM343 58q97 0 151.5 69t54.5 192q0 129 -56 201t-157 72
q-97 0 -151.5 -69t-54.5 -193q0 -128 56.5 -200t156.5 -72zM429 731l-218 78l33 71l205 -101z" />
    <glyph glyph-name="Oacute" unicode="&#xd3;" horiz-adv-x="680" 
d="M337 -10q-68 0 -122 23t-91.5 65.5t-57.5 104.5t-20 140q0 79 20.5 141t58.5 105.5t93.5 66.5t124.5 23q68 0 121.5 -23t91 -65.5t57.5 -104.5t20 -140q0 -79 -20 -141t-58.5 -105.5t-93.5 -66.5t-124 -23zM343 58q97 0 151.5 69t54.5 192q0 129 -56 201t-157 72
q-97 0 -151.5 -69t-54.5 -193q0 -128 56.5 -200t156.5 -72zM221 779l216 105l32 -71l-227 -82z" />
    <glyph glyph-name="Ocircumflex" unicode="&#xd4;" horiz-adv-x="680" 
d="M337 -10q-68 0 -122 23t-91.5 65.5t-57.5 104.5t-20 140q0 79 20.5 141t58.5 105.5t93.5 66.5t124.5 23q68 0 121.5 -23t91 -65.5t57.5 -104.5t20 -140q0 -79 -20 -141t-58.5 -105.5t-93.5 -66.5t-124 -23zM343 58q97 0 151.5 69t54.5 192q0 129 -56 201t-157 72
q-97 0 -151.5 -69t-54.5 -193q0 -128 56.5 -200t156.5 -72zM445 718q-24 17 -53.5 40t-51.5 42q-22 -20 -51 -42.5t-54 -39.5l-38 54q28 18 64.5 44t78.5 58q42 -32 78.5 -58t64.5 -44z" />
    <glyph glyph-name="Otilde" unicode="&#xd5;" horiz-adv-x="680" 
d="M337 -10q-68 0 -122 23t-91.5 65.5t-57.5 104.5t-20 140q0 79 20.5 141t58.5 105.5t93.5 66.5t124.5 23q68 0 121.5 -23t91 -65.5t57.5 -104.5t20 -140q0 -79 -20 -141t-58.5 -105.5t-93.5 -66.5t-124 -23zM343 58q97 0 151.5 69t54.5 192q0 129 -56 201t-157 72
q-97 0 -151.5 -69t-54.5 -193q0 -128 56.5 -200t156.5 -72zM191 792q15 28 41.5 45.5t59.5 17.5q14 0 28.5 -5t28 -10.5t26 -10.5t22.5 -5q21 0 33.5 12.5l19.5 19.5l40 -38q-36 -62 -99 -62q-14 0 -27.5 5t-26 11t-25.5 11t-26 5q-20 0 -34 -13t-19 -21z" />
    <glyph glyph-name="Odieresis" unicode="&#xd6;" horiz-adv-x="680" 
d="M343 58q97 0 151.5 69t54.5 192q0 129 -56 201t-157 72q-97 0 -151.5 -69t-54.5 -193q0 -128 56.5 -200t156.5 -72zM337 -10q-68 0 -122 23t-91.5 65.5t-57.5 104.5t-20 140q0 79 20.5 141t58.5 105.5t93.5 66.5t124.5 23q68 0 121.5 -23t91 -65.5t57.5 -104.5t20 -140
q0 -79 -20 -141t-58.5 -105.5t-93.5 -66.5t-124 -23zM191 803q0 24 16.5 40t40.5 16q21 0 36.5 -15.5t15.5 -35.5q0 -25 -16.5 -41.5t-39.5 -16.5q-22 0 -37.5 15.5t-15.5 37.5zM380 803q0 24 16 40t41 16q20 0 36 -15.5t16 -35.5q0 -25 -16.5 -41.5t-40.5 -16.5
q-21 0 -36.5 15.5t-15.5 37.5z" />
    <glyph glyph-name="multiply" unicode="&#xd7;" horiz-adv-x="583" 
d="M490 477l-152 -152l153 -152l-47 -47l-152 152l-152 -152l-47 48l152 152l-151 151l47 46l151 -151l151 151z" />
    <glyph glyph-name="Oslash" unicode="&#xd8;" horiz-adv-x="680" 
d="M59 -45l74 113q-42 44 -64.5 108t-22.5 147q0 79 20.5 141t58.5 105.5t93.5 66.5t124.5 23q85 0 150 -37l70 108l58 -36l-74 -113q42 -44 64 -107.5t22 -147.5q0 -79 -20 -141t-58.5 -105.5t-93.5 -66.5t-124 -23q-85 0 -150 37l-71 -108zM130 330q0 -118 49 -190
l273 418q-49 34 -116 34q-97 0 -151.5 -69t-54.5 -193zM343 58q97 0 151.5 69t54.5 192q0 120 -49 190l-272 -418q48 -33 115 -33z" />
    <glyph glyph-name="Ugrave" unicode="&#xd9;" horiz-adv-x="608" 
d="M143 257q0 -97 42.5 -147t118.5 -50q72 0 114 48t42 138v403h80v-396q0 -124 -64 -193.5t-178 -69.5q-110 0 -172.5 68t-62.5 192v399h80v-392zM380 731l-217 78l32 71l206 -101z" />
    <glyph glyph-name="Uacute" unicode="&#xda;" horiz-adv-x="608" 
d="M143 257q0 -97 42.5 -147t118.5 -50q72 0 114 48t42 138v403h80v-396q0 -124 -64 -193.5t-178 -69.5q-110 0 -172.5 68t-62.5 192v399h80v-392zM192 779l217 105l31 -71l-227 -82z" />
    <glyph glyph-name="Ucircumflex" unicode="&#xdb;" horiz-adv-x="608" 
d="M143 257q0 -97 42.5 -147t118.5 -50q72 0 114 48t42 138v403h80v-396q0 -124 -64 -193.5t-178 -69.5q-110 0 -172.5 68t-62.5 192v399h80v-392zM406 718q-23 17 -53 40t-52 42q-22 -20 -51 -42.5t-54 -39.5l-38 54q28 18 64.5 44t78.5 58q42 -32 78.5 -58t64.5 -44z" />
    <glyph glyph-name="Udieresis" unicode="&#xdc;" horiz-adv-x="608" 
d="M143 257q0 -97 42.5 -147t118.5 -50q72 0 114 48t42 138v403h80v-396q0 -124 -64 -193.5t-178 -69.5q-110 0 -172.5 68t-62.5 192v399h80v-392zM341 803q0 24 16.5 40t40.5 16q21 0 36.5 -15.5t15.5 -35.5q0 -25 -16.5 -41.5t-39.5 -16.5q-22 0 -37.5 15.5t-15.5 37.5z
M153 803q0 24 16 40t40 16q21 0 37 -15.5t16 -35.5q0 -25 -16.5 -41.5t-40.5 -16.5q-21 0 -36.5 15.5t-15.5 37.5z" />
    <glyph glyph-name="Yacute" unicode="&#xdd;" horiz-adv-x="537" 
d="M228 250l-213 399h86l169 -324l168 324h84l-213 -399v-250h-81v250zM160 779l216 105l32 -71l-227 -82z" />
    <glyph glyph-name="Thorn" unicode="&#xde;" horiz-adv-x="520" 
d="M85 0v650h80v-140h109q103 0 161 -49t58 -135q0 -91 -59 -141t-165 -50h-104v-135h-80zM165 199h109q63 0 99 31.5t36 88.5q0 62 -36 94.5t-104 32.5h-104v-247z" />
    <glyph glyph-name="germandbls" unicode="&#xdf;" horiz-adv-x="551" 
d="M250 80q20 -8 47 -14t59 -6q41 0 63.5 15.5t22.5 44.5t-27.5 53t-74.5 56q-36 24 -61.5 49.5t-25.5 67.5q0 19 5.5 34t16 29t27 29.5t37.5 34.5t36 40.5t15 53.5q0 34 -25.5 61.5t-79.5 27.5q-55 0 -90.5 -36.5t-35.5 -103.5v-516h-78v524q0 44 17 80.5t45.5 62.5
t67.5 41t82 15t76 -13.5t55.5 -35.5t34 -48.5t11.5 -53.5q0 -50 -21.5 -82t-53.5 -58q-34 -28 -49 -45t-15 -34q0 -9 2.5 -16.5t9 -15t18 -16t30.5 -21.5q29 -19 52.5 -36.5t40 -36.5t25 -40t8.5 -48q0 -64 -43 -98.5t-125 -34.5q-37 0 -71 9t-48 17z" />
    <glyph glyph-name="agrave" unicode="&#xe0;" horiz-adv-x="485" 
d="M399 97q0 -44 34 -44q10 0 16.5 2t10.5 4l8 -57q-8 -4 -23 -8t-32 -4q-36 0 -55.5 20.5t-26.5 47.5q-29 -32 -65.5 -50t-77.5 -18q-31 0 -58 9.5t-46.5 27.5t-30.5 42.5t-11 54.5q0 53 26.5 84.5t67.5 47.5t90 18.5t94 -2.5v54q0 54 -24 84t-83 30q-38 0 -73 -10t-54 -19
l-20 58q20 12 62.5 26.5t94.5 14.5q86 0 131 -45.5t45 -125.5v-242zM123 133q0 -35 23 -55.5t62 -20.5q32 1 60.5 16t51.5 40v105q-23 3 -56.5 3.5t-65 -7.5t-53.5 -26.5t-22 -54.5zM318 585l-217 77l32 71l205 -101z" />
    <glyph glyph-name="aacute" unicode="&#xe1;" horiz-adv-x="485" 
d="M399 97q0 -44 34 -44q10 0 16.5 2t10.5 4l8 -57q-8 -4 -23 -8t-32 -4q-36 0 -55.5 20.5t-26.5 47.5q-29 -32 -65.5 -50t-77.5 -18q-31 0 -58 9.5t-46.5 27.5t-30.5 42.5t-11 54.5q0 53 26.5 84.5t67.5 47.5t90 18.5t94 -2.5v54q0 54 -24 84t-83 30q-38 0 -73 -10t-54 -19
l-20 58q20 12 62.5 26.5t94.5 14.5q86 0 131 -45.5t45 -125.5v-242zM123 133q0 -35 23 -55.5t62 -20.5q32 1 60.5 16t51.5 40v105q-23 3 -56.5 3.5t-65 -7.5t-53.5 -26.5t-22 -54.5zM101 632l216 106l32 -71l-227 -82z" />
    <glyph glyph-name="acircumflex" unicode="&#xe2;" horiz-adv-x="485" 
d="M399 97q0 -44 34 -44q10 0 16.5 2t10.5 4l8 -57q-8 -4 -23 -8t-32 -4q-36 0 -55.5 20.5t-26.5 47.5q-29 -32 -65.5 -50t-77.5 -18q-31 0 -58 9.5t-46.5 27.5t-30.5 42.5t-11 54.5q0 53 26.5 84.5t67.5 47.5t90 18.5t94 -2.5v54q0 54 -24 84t-83 30q-38 0 -73 -10t-54 -19
l-20 58q20 12 62.5 26.5t94.5 14.5q86 0 131 -45.5t45 -125.5v-242zM123 133q0 -35 23 -55.5t62 -20.5q32 1 60.5 16t51.5 40v105q-23 3 -56.5 3.5t-65 -7.5t-53.5 -26.5t-22 -54.5zM327 572q-24 17 -54 39.5t-51 42.5q-23 -20 -51.5 -42.5t-53.5 -39.5l-38 54
q28 17 64.5 43.5t78.5 58.5q42 -32 78.5 -58.5t64.5 -43.5z" />
    <glyph glyph-name="atilde" unicode="&#xe3;" horiz-adv-x="485" 
d="M399 97q0 -44 34 -44q10 0 16.5 2t10.5 4l8 -57q-8 -4 -23 -8t-32 -4q-36 0 -55.5 20.5t-26.5 47.5q-29 -32 -65.5 -50t-77.5 -18q-31 0 -58 9.5t-46.5 27.5t-30.5 42.5t-11 54.5q0 53 26.5 84.5t67.5 47.5t90 18.5t94 -2.5v54q0 54 -24 84t-83 30q-38 0 -73 -10t-54 -19
l-20 58q20 12 62.5 26.5t94.5 14.5q86 0 131 -45.5t45 -125.5v-242zM123 133q0 -35 23 -55.5t62 -20.5q32 1 60.5 16t51.5 40v105q-23 3 -56.5 3.5t-65 -7.5t-53.5 -26.5t-22 -54.5zM76 646q14 27 40.5 45t59.5 18q14 0 28.5 -5t28 -11t26 -11t23.5 -5q20 0 32.5 12.5
t19.5 20.5l41 -39q-17 -29 -42 -45.5t-58 -16.5q-14 0 -27.5 5t-26 11.5t-25.5 11.5t-26 5q-20 0 -34 -13t-19 -21z" />
    <glyph glyph-name="adieresis" unicode="&#xe4;" horiz-adv-x="485" 
d="M399 97q0 -44 34 -44q10 0 16.5 2t10.5 4l8 -57q-8 -4 -23 -8t-32 -4q-36 0 -55.5 20.5t-26.5 47.5q-29 -32 -65.5 -50t-77.5 -18q-31 0 -58 9.5t-46.5 27.5t-30.5 42.5t-11 54.5q0 53 26.5 84.5t67.5 47.5t90 18.5t94 -2.5v54q0 54 -24 84t-83 30q-38 0 -73 -10t-54 -19
l-20 58q20 12 62.5 26.5t94.5 14.5q86 0 131 -45.5t45 -125.5v-242zM123 133q0 -35 23 -55.5t62 -20.5q32 1 60.5 16t51.5 40v105q-23 3 -56.5 3.5t-65 -7.5t-53.5 -26.5t-22 -54.5zM76 657q0 23 16 39.5t40 16.5q21 0 37 -15.5t16 -36.5q0 -25 -16.5 -41t-40.5 -16
q-21 0 -36.5 15.5t-15.5 37.5zM264 657q0 23 16.5 39.5t40.5 16.5q21 0 36.5 -15.5t15.5 -36.5q0 -25 -16.5 -41t-40.5 -16q-21 0 -36.5 15.5t-15.5 37.5z" />
    <glyph glyph-name="aring" unicode="&#xe5;" horiz-adv-x="485" 
d="M399 97q0 -44 34 -44q10 0 16.5 2t10.5 4l8 -57q-8 -4 -23 -8t-32 -4q-36 0 -55.5 20.5t-26.5 47.5q-29 -32 -65.5 -50t-77.5 -18q-31 0 -58 9.5t-46.5 27.5t-30.5 42.5t-11 54.5q0 53 26.5 84.5t67.5 47.5t90 18.5t94 -2.5v54q0 54 -24 84t-83 30q-38 0 -73 -10t-54 -19
l-20 58q20 12 62.5 26.5t94.5 14.5q86 0 131 -45.5t45 -125.5v-242zM124 657q0 43 29 73t74 30q20 0 37.5 -7.5t31 -21t21.5 -31t8 -37.5q0 -45 -29 -74.5t-74 -29.5q-19 0 -37 7.5t-31.5 21t-21.5 31.5t-8 38zM123 133q0 -35 23 -55.5t62 -20.5q32 1 60.5 16t51.5 40v105
q-23 3 -56.5 3.5t-65 -7.5t-53.5 -26.5t-22 -54.5zM177 660q0 -20 14.5 -34t32.5 -14q20 0 34 14t14 34t-14.5 33.5t-33.5 13.5q-20 0 -33.5 -13.5t-13.5 -33.5z" />
    <glyph glyph-name="ae" unicode="&#xe6;" horiz-adv-x="778" 
d="M408 225q5 -81 45.5 -123t108.5 -42q45 0 76.5 7t52.5 15l21 -59q-29 -15 -70 -24t-91 -9q-56 0 -100 22t-75 63q-53 -47 -95.5 -66t-88.5 -19q-32 0 -59.5 10.5t-47.5 29.5t-31.5 45t-11.5 56q0 61 53 102t145 45l86 3v46q0 58 -27 85.5t-84 27.5q-29 0 -64.5 -8
t-67.5 -22l-19 59q36 18 81 29.5t84 11.5q55 0 94 -22t59 -64q29 42 71 64t96 22q88 0 135 -48.5t47 -137.5q0 -24 -4.5 -49.5t-10.5 -42.5zM650 290q2 12 2.5 20.5t0.5 16.5q0 56 -29 87t-81 31q-57 0 -92 -45t-41 -118zM123 137q0 -36 22.5 -56.5t62.5 -20.5q38 0 73.5 19
t64.5 50q-9 23 -13.5 48.5t-6.5 48.5l-91 -5q-52 -3 -82 -26t-30 -58z" />
    <glyph glyph-name="ccedilla" unicode="&#xe7;" horiz-adv-x="456" 
d="M130 253q0 -91 44.5 -142t123.5 -51q54 0 107 22l21 -59q-26 -14 -63.5 -23.5t-74.5 -9.5q-54 0 -98.5 18.5t-76.5 52t-49.5 80.5t-17.5 104q0 59 18 108t50.5 84t78 54t100.5 19q38 0 70 -9.5t54 -22.5l-23 -58q-21 8 -46 14t-57 6q-75 0 -118 -50t-43 -137zM198 -162
q5 -2 16.5 -3.5t23.5 -1.5q21 0 30 11t9 25q0 15 -9 25t-29 10h-32l4 45h41q38 0 60.5 -18.5t22.5 -54.5q0 -43 -27 -66t-76 -23q-13 0 -24.5 2.5t-18.5 5.5z" />
    <glyph glyph-name="egrave" unicode="&#xe8;" horiz-adv-x="504" 
d="M131 232q2 -82 44.5 -127t120.5 -45q33 0 66.5 6.5t56.5 15.5l19 -61q-25 -11 -66 -21t-86 -10q-55 0 -99.5 18.5t-76 52.5t-48 81t-16.5 104q0 59 16.5 108t46.5 83.5t73 53.5t97 19q87 0 133.5 -49t46.5 -134q0 -29 -5 -55t-10 -40h-313zM270 445q-63 0 -98.5 -43
t-40.5 -113h245q3 9 4 19.5t1 23.5q-1 56 -30.5 84.5t-80.5 28.5zM367 585l-217 77l32 71l206 -101z" />
    <glyph glyph-name="eacute" unicode="&#xe9;" horiz-adv-x="504" 
d="M131 232q2 -82 44.5 -127t120.5 -45q33 0 66.5 6.5t56.5 15.5l19 -61q-25 -11 -66 -21t-86 -10q-55 0 -99.5 18.5t-76 52.5t-48 81t-16.5 104q0 59 16.5 108t46.5 83.5t73 53.5t97 19q87 0 133.5 -49t46.5 -134q0 -29 -5 -55t-10 -40h-313zM270 445q-63 0 -98.5 -43
t-40.5 -113h245q3 9 4 19.5t1 23.5q-1 56 -30.5 84.5t-80.5 28.5zM150 632l216 106l32 -71l-227 -82z" />
    <glyph glyph-name="ecircumflex" unicode="&#xea;" horiz-adv-x="504" 
d="M131 232q2 -82 44.5 -127t120.5 -45q33 0 66.5 6.5t56.5 15.5l19 -61q-25 -11 -66 -21t-86 -10q-55 0 -99.5 18.5t-76 52.5t-48 81t-16.5 104q0 59 16.5 108t46.5 83.5t73 53.5t97 19q87 0 133.5 -49t46.5 -134q0 -29 -5 -55t-10 -40h-313zM270 445q-63 0 -98.5 -43
t-40.5 -113h245q3 9 4 19.5t1 23.5q-1 56 -30.5 84.5t-80.5 28.5zM374 572q-24 17 -54 39.5t-51 42.5q-23 -20 -51.5 -42.5t-53.5 -39.5l-39 54q29 17 65.5 43.5t78.5 58.5q42 -32 78.5 -58.5t64.5 -43.5z" />
    <glyph glyph-name="edieresis" unicode="&#xeb;" horiz-adv-x="504" 
d="M131 232q2 -82 44.5 -127t120.5 -45q33 0 66.5 6.5t56.5 15.5l19 -61q-25 -11 -66 -21t-86 -10q-55 0 -99.5 18.5t-76 52.5t-48 81t-16.5 104q0 59 16.5 108t46.5 83.5t73 53.5t97 19q87 0 133.5 -49t46.5 -134q0 -29 -5 -55t-10 -40h-313zM270 445q-63 0 -98.5 -43
t-40.5 -113h245q3 9 4 19.5t1 23.5q-1 56 -30.5 84.5t-80.5 28.5zM120 657q0 23 16.5 39.5t40.5 16.5q21 0 36.5 -15.5t15.5 -36.5q0 -25 -16.5 -41t-40.5 -16q-21 0 -36.5 15.5t-15.5 37.5zM309 657q0 23 16 39.5t40 16.5q21 0 36.5 -15.5t15.5 -36.5q0 -25 -16 -41
t-40 -16q-21 0 -36.5 15.5t-15.5 37.5z" />
    <glyph glyph-name="igrave" unicode="&#xec;" 
d="M164 500v-500h-79v500h79zM213 585l-217 77l32 71l206 -101z" />
    <glyph glyph-name="iacute" unicode="&#xed;" 
d="M164 500v-500h-79v500h79zM30 632l217 106l31 -71l-227 -82z" />
    <glyph glyph-name="icircumflex" unicode="&#xee;" 
d="M164 500v-500h-79v500h79zM229 572q-23 17 -53 39.5t-51 42.5q-23 -20 -51.5 -42.5t-53.5 -39.5l-39 54q29 17 65.5 43.5t78.5 58.5q42 -32 78 -58.5t65 -43.5z" />
    <glyph glyph-name="idieresis" unicode="&#xef;" 
d="M164 500v-500h-79v500h79zM-17 657q0 23 16.5 39.5t40.5 16.5q21 0 36.5 -15.5t15.5 -36.5q0 -25 -16.5 -41t-39.5 -16q-22 0 -37.5 15.5t-15.5 37.5zM157 657q0 23 16.5 39.5t40.5 16.5q21 0 36.5 -15.5t15.5 -36.5q0 -25 -16.5 -41t-40.5 -16q-21 0 -36.5 15.5
t-15.5 37.5z" />
    <glyph glyph-name="eth" unicode="&#xf0;" horiz-adv-x="557" 
d="M214 660q-32 0 -54 -5.5t-28 -7.5l-15 55q9 5 36 13t64 8q23 0 43 -3.5t39 -9.5l49 64l54 -41l-41 -53q70 -49 107.5 -148.5t37.5 -242.5q0 -61 -14.5 -115.5t-43.5 -95t-73 -64.5t-104 -24q-51 0 -93 18.5t-71 52.5t-45 81t-16 104q0 59 16.5 108t46.5 83.5t72.5 53.5
t94.5 19q42 0 74.5 -15t56.5 -41q-14 63 -36 104.5t-53 66.5l-48 -64l-52 41l40 52q-21 6 -44 6zM442 282h-14q-19 82 -56 122.5t-101 40.5q-67 0 -104 -51.5t-37 -139.5q0 -93 38 -146t108 -53q30 0 56.5 14t46.5 42.5t31.5 70.5t11.5 98z" />
    <glyph glyph-name="ntilde" unicode="&#xf1;" horiz-adv-x="561" 
d="M149 500l8 -61q40 34 84 52.5t86 18.5q77 0 116.5 -46t39.5 -135v-329h-79v317q0 123 -101 123q-32 0 -71.5 -17.5t-67.5 -43.5v-379h-79v500h64zM128 646q15 27 41.5 45t59.5 18q14 0 28.5 -5t28 -11t26 -11t22.5 -5q21 0 33.5 12.5t19.5 20.5l40 -39
q-17 -29 -41.5 -45.5t-57.5 -16.5q-14 0 -27.5 5t-26 11.5t-25.5 11.5t-26 5q-20 0 -34 -13t-19 -21z" />
    <glyph glyph-name="ograve" unicode="&#xf2;" horiz-adv-x="557" 
d="M275 -10q-51 0 -93 18.5t-72.5 52.5t-47 81t-16.5 104q0 59 17 108t48 83.5t74.5 53.5t95.5 19q51 0 93 -18.5t72.5 -52.5t47 -81t16.5 -104q0 -59 -17 -108t-47.5 -83.5t-74 -53.5t-96.5 -19zM281 55q67 0 106.5 51.5t39.5 139.5q0 93 -40.5 146t-111.5 53
q-66 0 -105.5 -51.5t-39.5 -139.5q0 -93 40 -146t111 -53zM377 585l-217 77l32 71l205 -101z" />
    <glyph glyph-name="oacute" unicode="&#xf3;" horiz-adv-x="557" 
d="M275 -10q-51 0 -93 18.5t-72.5 52.5t-47 81t-16.5 104q0 59 17 108t48 83.5t74.5 53.5t95.5 19q51 0 93 -18.5t72.5 -52.5t47 -81t16.5 -104q0 -59 -17 -108t-47.5 -83.5t-74 -53.5t-96.5 -19zM281 55q67 0 106.5 51.5t39.5 139.5q0 93 -40.5 146t-111.5 53
q-66 0 -105.5 -51.5t-39.5 -139.5q0 -93 40 -146t111 -53zM160 632l216 106l32 -71l-227 -82z" />
    <glyph glyph-name="ocircumflex" unicode="&#xf4;" horiz-adv-x="557" 
d="M275 -10q-51 0 -93 18.5t-72.5 52.5t-47 81t-16.5 104q0 59 17 108t48 83.5t74.5 53.5t95.5 19q51 0 93 -18.5t72.5 -52.5t47 -81t16.5 -104q0 -59 -17 -108t-47.5 -83.5t-74 -53.5t-96.5 -19zM281 55q67 0 106.5 51.5t39.5 139.5q0 93 -40.5 146t-111.5 53
q-66 0 -105.5 -51.5t-39.5 -139.5q0 -93 40 -146t111 -53zM383 572q-23 17 -53 39.5t-52 42.5q-22 -20 -50.5 -42.5t-54.5 -39.5l-38 54q28 17 64.5 43.5t78.5 58.5q42 -32 78.5 -58.5t64.5 -43.5z" />
    <glyph glyph-name="otilde" unicode="&#xf5;" horiz-adv-x="557" 
d="M275 -10q-51 0 -93 18.5t-72.5 52.5t-47 81t-16.5 104q0 59 17 108t48 83.5t74.5 53.5t95.5 19q51 0 93 -18.5t72.5 -52.5t47 -81t16.5 -104q0 -59 -17 -108t-47.5 -83.5t-74 -53.5t-96.5 -19zM281 55q67 0 106.5 51.5t39.5 139.5q0 93 -40.5 146t-111.5 53
q-66 0 -105.5 -51.5t-39.5 -139.5q0 -93 40 -146t111 -53zM130 646q14 27 40.5 45t59.5 18q14 0 28.5 -5t28 -11t26.5 -11t23 -5q20 0 32.5 12.5t19.5 20.5l41 -39q-17 -29 -42 -45.5t-57 -16.5q-14 0 -27.5 5t-26.5 11.5t-26 11.5t-26 5q-20 0 -34 -13t-19 -21z" />
    <glyph glyph-name="odieresis" unicode="&#xf6;" horiz-adv-x="557" 
d="M275 -10q-51 0 -93 18.5t-72.5 52.5t-47 81t-16.5 104q0 59 17 108t48 83.5t74.5 53.5t95.5 19q51 0 93 -18.5t72.5 -52.5t47 -81t16.5 -104q0 -59 -17 -108t-47.5 -83.5t-74 -53.5t-96.5 -19zM281 55q67 0 106.5 51.5t39.5 139.5q0 93 -40.5 146t-111.5 53
q-66 0 -105.5 -51.5t-39.5 -139.5q0 -93 40 -146t111 -53zM130 657q0 23 16 39.5t41 16.5q20 0 36 -15.5t16 -36.5q0 -25 -16.5 -41t-40.5 -16q-21 0 -36.5 15.5t-15.5 37.5zM318 657q0 23 16.5 39.5t40.5 16.5q21 0 36.5 -15.5t15.5 -36.5q0 -25 -16.5 -41t-39.5 -16
q-22 0 -37.5 15.5t-15.5 37.5z" />
    <glyph glyph-name="divide" unicode="&#xf7;" horiz-adv-x="558" 
d="M93 357h372v-65h-372v65zM225 488q0 24 16 40t40 16q21 0 36.5 -15.5t15.5 -36.5q0 -25 -16 -41t-40 -16q-21 0 -36.5 15.5t-15.5 37.5zM225 157q0 24 16 40t40 16q21 0 36.5 -15.5t15.5 -35.5q0 -25 -16 -41.5t-40 -16.5q-21 0 -36.5 15.5t-15.5 37.5z" />
    <glyph glyph-name="oslash" unicode="&#xf8;" horiz-adv-x="557" 
d="M275 -10q-61 0 -111 28l-66 -101l-52 32l69 106q-32 34 -50.5 82.5t-18.5 108.5q0 59 17 108t48 83.5t74.5 53.5t95.5 19q62 0 112 -28l66 101l51 -32l-69 -106q33 -35 51 -83t18 -108q0 -59 -17 -108t-47.5 -83.5t-74 -53.5t-96.5 -19zM130 254q0 -40 8 -72.5t22 -57.5
l194 298q-34 23 -79 23q-66 0 -105.5 -51.5t-39.5 -139.5zM281 55q67 0 106.5 51.5t39.5 139.5q0 79 -31 130l-193 -298q34 -23 78 -23z" />
    <glyph glyph-name="ugrave" unicode="&#xf9;" horiz-adv-x="549" 
d="M400 0l-8 61q-39 -34 -81.5 -52.5t-83.5 -18.5q-75 0 -113 46t-38 135v329h79v-317q0 -123 96 -123q31 0 69 17.5t65 43.5v379h78v-500h-63zM363 585l-217 77l32 71l206 -101z" />
    <glyph glyph-name="uacute" unicode="&#xfa;" horiz-adv-x="549" 
d="M400 0l-8 61q-39 -34 -81.5 -52.5t-83.5 -18.5q-75 0 -113 46t-38 135v329h79v-317q0 -123 96 -123q31 0 69 17.5t65 43.5v379h78v-500h-63zM151 632l216 106l32 -71l-227 -82z" />
    <glyph glyph-name="ucircumflex" unicode="&#xfb;" horiz-adv-x="549" 
d="M400 0l-8 61q-39 -34 -81.5 -52.5t-83.5 -18.5q-75 0 -113 46t-38 135v329h79v-317q0 -123 96 -123q31 0 69 17.5t65 43.5v379h78v-500h-63zM375 572q-24 17 -54 39.5t-51 42.5q-23 -20 -51.5 -42.5t-53.5 -39.5l-39 54q29 17 65.5 43.5t78.5 58.5q42 -32 78 -58.5
t65 -43.5z" />
    <glyph glyph-name="udieresis" unicode="&#xfc;" horiz-adv-x="549" 
d="M400 0l-8 61q-39 -34 -81.5 -52.5t-83.5 -18.5q-75 0 -113 46t-38 135v329h79v-317q0 -123 96 -123q31 0 69 17.5t65 43.5v379h78v-500h-63zM121 657q0 23 16.5 39.5t40.5 16.5q21 0 36.5 -15.5t15.5 -36.5q0 -25 -16.5 -41t-40.5 -16q-21 0 -36.5 15.5t-15.5 37.5z
M310 657q0 23 16 39.5t40 16.5q21 0 36.5 -15.5t15.5 -36.5q0 -25 -16 -41t-40 -16q-22 0 -37 15.5t-15 37.5z" />
    <glyph glyph-name="yacute" unicode="&#xfd;" horiz-adv-x="500" 
d="M485 500l-177 -488q-22 -60 -43.5 -101.5t-46 -66.5t-54 -36t-68.5 -11q-29 0 -53.5 7.5t-32.5 12.5l19 60q8 -3 25.5 -8t41.5 -5q44 0 71.5 27.5t51.5 98.5l-209 510h85l164 -423l142 423h84zM133 632l217 106l31 -71l-227 -82z" />
    <glyph glyph-name="thorn" unicode="&#xfe;" horiz-adv-x="566" 
d="M520 254q0 -57 -18.5 -105.5t-50.5 -84t-76.5 -55t-97.5 -19.5q-26 0 -56.5 7t-56.5 20v-210h-79v906l79 10v-244q61 31 122 31q53 0 96 -18.5t73.5 -52t47.5 -81t17 -104.5zM436 246q0 44 -11.5 79.5t-33 61t-51.5 39.5t-67 14q-58 0 -109 -27v-328q23 -12 53.5 -18.5
t62.5 -6.5q36 0 65 13.5t49.5 38t31 59t10.5 75.5z" />
    <glyph glyph-name="ydieresis" unicode="&#xff;" horiz-adv-x="500" 
d="M485 500l-177 -488q-22 -60 -43.5 -101.5t-46 -66.5t-54 -36t-68.5 -11q-29 0 -53.5 7.5t-32.5 12.5l19 60q8 -3 25.5 -8t41.5 -5q44 0 71.5 27.5t51.5 98.5l-209 510h85l164 -423l142 423h84zM302 657q0 23 16 39.5t40 16.5q21 0 37 -15.5t16 -36.5q0 -25 -16.5 -41
t-40.5 -16q-21 0 -36.5 15.5t-15.5 37.5zM84 657q0 23 16 39.5t41 16.5q20 0 36 -15.5t16 -36.5q0 -25 -16.5 -41t-40.5 -16q-21 0 -36.5 15.5t-15.5 37.5z" />
    <glyph glyph-name="Amacron" unicode="&#x100;" horiz-adv-x="601" 
d="M437 174h-273l-63 -174h-86l248 649h74l249 -649h-86zM188 240h225l-113 321zM168 839h265v-60h-265v60z" />
    <glyph glyph-name="amacron" unicode="&#x101;" horiz-adv-x="485" 
d="M399 97q0 -44 34 -44q10 0 16.5 2t10.5 4l8 -57q-8 -4 -23 -8t-32 -4q-36 0 -55.5 20.5t-26.5 47.5q-29 -32 -65.5 -50t-77.5 -18q-31 0 -58 9.5t-46.5 27.5t-30.5 42.5t-11 54.5q0 53 26.5 84.5t67.5 47.5t90 18.5t94 -2.5v54q0 54 -24 84t-83 30q-38 0 -73 -10t-54 -19
l-20 58q20 12 62.5 26.5t94.5 14.5q86 0 131 -45.5t45 -125.5v-242zM123 133q0 -35 23 -55.5t62 -20.5q32 1 60.5 16t51.5 40v105q-23 3 -56.5 3.5t-65 -7.5t-53.5 -26.5t-22 -54.5zM90 689h264v-60h-264v60z" />
    <glyph glyph-name="Abreve" unicode="&#x102;" horiz-adv-x="601" 
d="M437 174h-273l-63 -174h-86l248 649h74l249 -649h-86zM188 240h225l-113 321zM228 863q2 -32 18.5 -54t53.5 -22q38 0 54 22t19 54h57q4 -60 -32 -98t-98 -38t-97.5 38t-31.5 98h57z" />
    <glyph glyph-name="abreve" unicode="&#x103;" horiz-adv-x="485" 
d="M399 97q0 -44 34 -44q10 0 16.5 2t10.5 4l8 -57q-8 -4 -23 -8t-32 -4q-36 0 -55.5 20.5t-26.5 47.5q-29 -32 -65.5 -50t-77.5 -18q-31 0 -58 9.5t-46.5 27.5t-30.5 42.5t-11 54.5q0 53 26.5 84.5t67.5 47.5t90 18.5t94 -2.5v54q0 54 -24 84t-83 30q-38 0 -73 -10t-54 -19
l-20 58q20 12 62.5 26.5t94.5 14.5q86 0 131 -45.5t45 -125.5v-242zM123 133q0 -35 23 -55.5t62 -20.5q32 1 60.5 16t51.5 40v105q-23 3 -56.5 3.5t-65 -7.5t-53.5 -26.5t-22 -54.5zM155 713q2 -32 18.5 -54t53.5 -22t53.5 22t18.5 54h57q4 -60 -31.5 -98t-97.5 -38
t-97.5 38t-31.5 98h57z" />
    <glyph glyph-name="Aogonek" unicode="&#x104;" horiz-adv-x="601" 
d="M564 0q-13 -9 -26 -20t-23.5 -24t-17.5 -28t-7 -31q0 -23 12 -35.5t32 -12.5q18 0 33.5 5.5t18.5 7.5l17 -40q-7 -6 -28.5 -15.5t-50.5 -9.5q-42 0 -71.5 24t-29.5 62q0 40 24 69t53 48l-63 174h-273l-63 -174h-86l248 649h74l249 -649h-22zM188 240h225l-113 321z" />
    <glyph glyph-name="aogonek" unicode="&#x105;" horiz-adv-x="485" 
d="M399 97q0 -44 34 -44q10 0 16.5 2t10.5 4l8 -57l-9 -3q-26 -19 -49 -44.5t-23 -57.5q0 -23 12 -35.5t32 -12.5q19 0 34 5.5t18 7.5l17 -40q-6 -6 -28 -15.5t-51 -9.5q-42 0 -71 24t-29 62q0 36 20.5 63.5t46.5 47.5q-25 6 -38.5 24t-18.5 40q-29 -32 -65.5 -50t-77.5 -18
q-31 0 -58 9.5t-46.5 27.5t-30.5 42.5t-11 54.5q0 53 26.5 84.5t67.5 47.5t90 18.5t94 -2.5v54q0 54 -24 84t-83 30q-38 0 -73 -10t-54 -19l-20 58q20 12 62.5 26.5t94.5 14.5q86 0 131 -45.5t45 -125.5v-242zM123 133q0 -35 23 -55.5t62 -20.5q32 1 60.5 16t51.5 40v105
q-23 3 -56.5 3.5t-65 -7.5t-53.5 -26.5t-22 -54.5z" />
    <glyph glyph-name="Cacute" unicode="&#x106;" horiz-adv-x="559" 
d="M46 323q0 74 22 136t63 106.5t100 69t132 24.5q39 0 76.5 -9.5t63.5 -22.5l-20 -61q-24 10 -54.5 17t-65.5 7q-52 0 -95 -17t-73.5 -50t-47.5 -81t-17 -110t16 -112.5t47.5 -86t77.5 -54.5t106 -19q35 0 68 7t56 17l21 -60q-29 -15 -69.5 -24.5t-82.5 -9.5q-76 0 -136 24
t-102 67.5t-64 105t-22 136.5zM218 779l217 105l31 -71l-227 -82z" />
    <glyph glyph-name="cacute" unicode="&#x107;" horiz-adv-x="456" 
d="M130 253q0 -91 44.5 -142t123.5 -51q54 0 107 22l21 -59q-26 -14 -63.5 -23.5t-74.5 -9.5q-54 0 -98.5 18.5t-76.5 52t-49.5 80.5t-17.5 104q0 59 18 108t50.5 84t78 54t100.5 19q38 0 70 -9.5t54 -22.5l-23 -58q-21 8 -46 14t-57 6q-75 0 -118 -50t-43 -137zM150 632
l216 106l32 -71l-227 -82z" />
    <glyph glyph-name="Ccircumflex" unicode="&#x108;" horiz-adv-x="559" 
d="M46 323q0 74 22 136t63 106.5t100 69t132 24.5q39 0 76.5 -9.5t63.5 -22.5l-20 -61q-24 10 -54.5 17t-65.5 7q-52 0 -95 -17t-73.5 -50t-47.5 -81t-17 -110t16 -112.5t47.5 -86t77.5 -54.5t106 -19q35 0 68 7t56 17l21 -60q-29 -15 -69.5 -24.5t-82.5 -9.5q-76 0 -136 24
t-102 67.5t-64 105t-22 136.5zM447 718q-24 17 -53.5 40t-51.5 42q-23 -20 -51.5 -42.5t-53.5 -39.5l-38 54q28 18 64.5 44t78.5 58q42 -32 78.5 -58t64.5 -44z" />
    <glyph glyph-name="ccircumflex" unicode="&#x109;" horiz-adv-x="456" 
d="M130 253q0 -91 44.5 -142t123.5 -51q54 0 107 22l21 -59q-26 -14 -63.5 -23.5t-74.5 -9.5q-54 0 -98.5 18.5t-76.5 52t-49.5 80.5t-17.5 104q0 59 18 108t50.5 84t78 54t100.5 19q38 0 70 -9.5t54 -22.5l-23 -58q-21 8 -46 14t-57 6q-75 0 -118 -50t-43 -137zM378 572
q-23 17 -53 39.5t-52 42.5q-22 -20 -50.5 -42.5t-54.5 -39.5l-38 54q28 17 64.5 43.5t78.5 58.5q43 -32 79 -58.5t65 -43.5z" />
    <glyph glyph-name="Cdotaccent" unicode="&#x10a;" horiz-adv-x="559" 
d="M46 323q0 74 22 136t63 106.5t100 69t132 24.5q39 0 76.5 -9.5t63.5 -22.5l-20 -61q-24 10 -54.5 17t-65.5 7q-52 0 -95 -17t-73.5 -50t-47.5 -81t-17 -110t16 -112.5t47.5 -86t77.5 -54.5t106 -19q35 0 68 7t56 17l21 -60q-29 -15 -69.5 -24.5t-82.5 -9.5q-76 0 -136 24
t-102 67.5t-64 105t-22 136.5zM288 803q0 24 16 40t40 16q21 0 36.5 -15.5t15.5 -35.5q0 -25 -16 -41.5t-40 -16.5q-21 0 -36.5 15.5t-15.5 37.5z" />
    <glyph glyph-name="cdotaccent" unicode="&#x10b;" horiz-adv-x="456" 
d="M130 253q0 -91 44.5 -142t123.5 -51q54 0 107 22l21 -59q-26 -14 -63.5 -23.5t-74.5 -9.5q-54 0 -98.5 18.5t-76.5 52t-49.5 80.5t-17.5 104q0 59 18 108t50.5 84t78 54t100.5 19q38 0 70 -9.5t54 -22.5l-23 -58q-21 8 -46 14t-57 6q-75 0 -118 -50t-43 -137zM219 657
q0 23 16.5 39.5t40.5 16.5q21 0 36.5 -15.5t15.5 -36.5q0 -25 -16.5 -41t-40.5 -16q-21 0 -36.5 15.5t-15.5 37.5z" />
    <glyph glyph-name="Ccaron" unicode="&#x10c;" horiz-adv-x="559" 
d="M46 323q0 74 22 136t63 106.5t100 69t132 24.5q39 0 76.5 -9.5t63.5 -22.5l-20 -61q-24 10 -54.5 17t-65.5 7q-52 0 -95 -17t-73.5 -50t-47.5 -81t-17 -110t16 -112.5t47.5 -86t77.5 -54.5t106 -19q35 0 68 7t56 17l21 -60q-29 -15 -69.5 -24.5t-82.5 -9.5q-76 0 -136 24
t-102 67.5t-64 105t-22 136.5zM235 880q25 -16 54.5 -39.5t52.5 -45.5q22 22 52 45.5t54 39.5l35 -59q-47 -24 -78.5 -46.5t-62.5 -52.5q-32 30 -63.5 52.5t-77.5 46.5z" />
    <glyph glyph-name="ccaron" unicode="&#x10d;" horiz-adv-x="456" 
d="M130 253q0 -91 44.5 -142t123.5 -51q54 0 107 22l21 -59q-26 -14 -63.5 -23.5t-74.5 -9.5q-54 0 -98.5 18.5t-76.5 52t-49.5 80.5t-17.5 104q0 59 18 108t50.5 84t78 54t100.5 19q38 0 70 -9.5t54 -22.5l-23 -58q-21 8 -46 14t-57 6q-75 0 -118 -50t-43 -137zM167 733
q25 -15 54.5 -38.5t51.5 -45.5q23 22 52.5 45.5t54.5 38.5l35 -58q-47 -24 -78.5 -47t-63.5 -52q-31 29 -62.5 52t-78.5 47z" />
    <glyph glyph-name="Dcaron" unicode="&#x10e;" horiz-adv-x="625" 
d="M85 0v649h191q76 0 133.5 -23.5t96.5 -66.5t58.5 -102t19.5 -131q0 -73 -21.5 -133t-62.5 -103t-100 -66.5t-135 -23.5h-180zM276 63q48 0 89 16.5t71 49t47 80.5t17 110q0 126 -61 196.5t-174 70.5h-101v-523h112zM169 880q25 -16 55 -39.5t52 -45.5q22 22 52 45.5
t54 39.5l35 -59q-47 -24 -78.5 -46.5t-62.5 -52.5q-32 30 -63.5 52.5t-77.5 46.5z" />
    <glyph glyph-name="dcaron" unicode="&#x10f;" horiz-adv-x="618" 
d="M424 0l-10 58q-35 -33 -74.5 -50.5t-81.5 -17.5q-48 0 -87 18.5t-67 52t-43 80.5t-15 104q0 58 18.5 106.5t51.5 84t78 55t97 19.5q26 0 56.5 -7t56.5 -20v230l79 10v-723h-59zM404 415q-23 12 -53.5 18.5t-62.5 6.5q-35 0 -64 -14t-50 -39t-32.5 -59t-11.5 -75
q0 -88 39 -140.5t104 -52.5q39 0 74.5 16t56.5 43v296zM611 745q3 -2 9 -8.5t12 -17t10.5 -23.5t4.5 -29q0 -24 -7.5 -43t-20 -34t-28 -26t-31.5 -18l-27 37q15 9 29.5 27.5t14.5 47.5q0 13 -5 24.5t-11 21.5t-12 16.5t-9 8.5z" />
    <glyph glyph-name="Dcroat" unicode="&#x110;" horiz-adv-x="625" 
d="M11 357h74v292h191q76 0 133.5 -23.5t96.5 -66.5t58.5 -102t19.5 -131q0 -73 -21.5 -133t-62.5 -103t-100 -66.5t-135 -23.5h-180v292h-74v65zM276 63q48 0 89 16.5t71 49t47 80.5t17 110q0 126 -61 196.5t-174 70.5h-101v-229h190v-65h-190v-229h112z" />
    <glyph glyph-name="dcroat" unicode="&#x111;" horiz-adv-x="568" 
d="M238 645h166v68l79 10v-78h80v-55h-80v-590h-59l-10 58q-35 -33 -74.5 -50.5t-81.5 -17.5q-48 0 -87 18.5t-67 52t-43 80.5t-15 104q0 58 18.5 106.5t51.5 84t78 55t97 19.5q26 0 56.5 -7t56.5 -20v107h-166v55zM404 415q-23 12 -53.5 18.5t-62.5 6.5q-35 0 -64 -14
t-50 -39t-32.5 -59t-11.5 -75q0 -88 39 -140.5t104 -52.5q39 0 74.5 16t56.5 43v296z" />
    <glyph glyph-name="Emacron" unicode="&#x112;" horiz-adv-x="509" 
d="M451 583h-286v-223h276v-66h-276v-228h295v-66h-375v649h366v-66zM137 839h264v-60h-264v60z" />
    <glyph glyph-name="emacron" unicode="&#x113;" horiz-adv-x="504" 
d="M131 232q2 -82 44.5 -127t120.5 -45q33 0 66.5 6.5t56.5 15.5l19 -61q-25 -11 -66 -21t-86 -10q-55 0 -99.5 18.5t-76 52.5t-48 81t-16.5 104q0 59 16.5 108t46.5 83.5t73 53.5t97 19q87 0 133.5 -49t46.5 -134q0 -29 -5 -55t-10 -40h-313zM270 445q-63 0 -98.5 -43
t-40.5 -113h245q3 9 4 19.5t1 23.5q-1 56 -30.5 84.5t-80.5 28.5zM134 689h265v-60h-265v60z" />
    <glyph glyph-name="Ebreve" unicode="&#x114;" horiz-adv-x="509" 
d="M451 583h-286v-223h276v-66h-276v-228h295v-66h-375v649h366v-66zM197 863q2 -32 18.5 -54t53.5 -22t53.5 22t18.5 54h57q4 -60 -31.5 -98t-97.5 -38t-97.5 38t-31.5 98h57z" />
    <glyph glyph-name="ebreve" unicode="&#x115;" horiz-adv-x="504" 
d="M131 232q2 -82 44.5 -127t120.5 -45q33 0 66.5 6.5t56.5 15.5l19 -61q-25 -11 -66 -21t-86 -10q-55 0 -99.5 18.5t-76 52.5t-48 81t-16.5 104q0 59 16.5 108t46.5 83.5t73 53.5t97 19q87 0 133.5 -49t46.5 -134q0 -29 -5 -55t-10 -40h-313zM270 445q-63 0 -98.5 -43
t-40.5 -113h245q3 9 4 19.5t1 23.5q-1 56 -30.5 84.5t-80.5 28.5zM189 713q3 -32 19 -54t54 -22q37 0 53.5 22t18.5 54h57q4 -60 -31.5 -98t-97.5 -38t-98 38t-32 98h57z" />
    <glyph glyph-name="Edotaccent" unicode="&#x116;" horiz-adv-x="509" 
d="M451 583h-286v-223h276v-66h-276v-228h295v-66h-375v649h366v-66zM219 803q0 24 16 40t40 16q21 0 37 -15.5t16 -35.5q0 -25 -16.5 -41.5t-40.5 -16.5q-21 0 -36.5 15.5t-15.5 37.5z" />
    <glyph glyph-name="edotaccent" unicode="&#x117;" horiz-adv-x="504" 
d="M131 232q2 -82 44.5 -127t120.5 -45q33 0 66.5 6.5t56.5 15.5l19 -61q-25 -11 -66 -21t-86 -10q-55 0 -99.5 18.5t-76 52.5t-48 81t-16.5 104q0 59 16.5 108t46.5 83.5t73 53.5t97 19q87 0 133.5 -49t46.5 -134q0 -29 -5 -55t-10 -40h-313zM270 445q-63 0 -98.5 -43
t-40.5 -113h245q3 9 4 19.5t1 23.5q-1 56 -30.5 84.5t-80.5 28.5zM214 657q0 23 16.5 39.5t40.5 16.5q21 0 36.5 -15.5t15.5 -36.5q0 -25 -16.5 -41t-39.5 -16q-22 0 -37.5 15.5t-15.5 37.5z" />
    <glyph glyph-name="Eogonek" unicode="&#x118;" horiz-adv-x="509" 
d="M451 583h-286v-223h276v-66h-276v-228h295v-66q-13 -9 -26 -20t-23.5 -24t-17.5 -28t-7 -31q0 -23 12 -35.5t32 -12.5q19 0 34.5 5.5t17.5 7.5l18 -40q-7 -6 -29 -15.5t-51 -9.5q-42 0 -71 24t-29 62q0 39 23.5 68.5t52.5 48.5h-311v649h366v-66z" />
    <glyph glyph-name="eogonek" unicode="&#x119;" horiz-adv-x="504" 
d="M131 232q2 -82 44.5 -127t120.5 -45q33 0 66.5 6.5t56.5 15.5l19 -61q-12 -5 -29 -10.5t-37 -10.5h1q-13 -9 -26.5 -20t-24 -24t-17.5 -28t-7 -31q0 -23 12 -35.5t32 -12.5q19 0 34.5 5.5t18.5 7.5l17 -40q-7 -6 -29 -15.5t-50 -9.5q-43 0 -72 24t-29 62q0 35 19 61.5
t43 45.5h-8q-55 0 -99.5 18.5t-76 52.5t-48 81t-16.5 104q0 59 16.5 108t46.5 83.5t73 53.5t97 19q87 0 133.5 -49t46.5 -134q0 -29 -5 -55t-10 -40h-313zM270 445q-63 0 -98.5 -43t-40.5 -113h245q3 9 4 19.5t1 23.5q-1 56 -30.5 84.5t-80.5 28.5z" />
    <glyph glyph-name="Ecaron" unicode="&#x11a;" horiz-adv-x="509" 
d="M451 583h-286v-223h276v-66h-276v-228h295v-66h-375v649h366v-66zM171 880q25 -16 55 -39.5t52 -45.5q22 22 52 45.5t54 39.5l35 -59q-47 -24 -78.5 -46.5t-62.5 -52.5q-32 30 -63.5 52.5t-77.5 46.5z" />
    <glyph glyph-name="ecaron" unicode="&#x11b;" horiz-adv-x="504" 
d="M131 232q2 -82 44.5 -127t120.5 -45q33 0 66.5 6.5t56.5 15.5l19 -61q-25 -11 -66 -21t-86 -10q-55 0 -99.5 18.5t-76 52.5t-48 81t-16.5 104q0 59 16.5 108t46.5 83.5t73 53.5t97 19q87 0 133.5 -49t46.5 -134q0 -29 -5 -55t-10 -40h-313zM270 445q-63 0 -98.5 -43
t-40.5 -113h245q3 9 4 19.5t1 23.5q-1 56 -30.5 84.5t-80.5 28.5zM162 733q25 -15 54.5 -38.5t52.5 -45.5q22 22 51.5 45.5t54.5 38.5l35 -58q-47 -24 -78.5 -47t-62.5 -52q-32 29 -63.5 52t-78.5 47z" />
    <glyph glyph-name="Gcircumflex" unicode="&#x11c;" horiz-adv-x="604" 
d="M550 43q-31 -23 -83 -38t-103 -15q-77 0 -136.5 24.5t-100 69t-61 105.5t-20.5 134t21.5 134.5t62.5 106.5t100 70t135 25q40 0 81 -10t76 -28l-24 -59q-25 9 -59.5 18.5t-76.5 9.5q-50 0 -92.5 -16.5t-73.5 -49.5t-48.5 -81.5t-17.5 -112.5t17 -114.5t49 -85t77.5 -52.5
t101.5 -18q24 0 51 4t44 11v199l-126 2v61h206v-294zM453 722q-24 17 -53.5 39.5t-51.5 42.5q-22 -20 -51 -42.5t-54 -39.5l-38 54q28 17 64.5 43t78.5 58q42 -32 78.5 -58t64.5 -43z" />
    <glyph glyph-name="gcircumflex" unicode="&#x11d;" horiz-adv-x="484" 
d="M223 158h-12t-11 1q-14 -11 -25.5 -25.5t-11.5 -29.5q0 -34 48 -34h95q36 0 66 -9.5t51.5 -26.5t34 -42.5t12.5 -56.5q0 -33 -17 -60.5t-48 -47t-74 -30t-94 -10.5q-96 0 -147.5 30.5t-51.5 87.5q0 20 7.5 37.5t20.5 32.5t29 27t33 21q-11 7 -23 21t-12 39q0 23 16 45.5
t42 41.5q-51 17 -79 58.5t-28 102.5q0 41 13.5 74.5t38.5 56.5t59 35.5t74 12.5q33 0 62.5 -10t52.5 -28q29 23 64.5 31.5t67.5 3.5v-66q-20 3 -45 1t-49 -12q13 -20 20 -43.5t7 -50.5q0 -41 -13.5 -74t-38.5 -56t-59 -35.5t-75 -12.5zM227 216q47 0 76.5 31t29.5 83
q0 60 -29.5 91t-77.5 31q-47 0 -76.5 -31.5t-29.5 -83.5q0 -60 29.5 -90.5t77.5 -30.5zM250 -150q63 0 102 21t39 58q0 34 -25.5 52.5t-80.5 18.5h-109q-23 -11 -42.5 -31t-19.5 -46q0 -35 35.5 -54t100.5 -19zM328 572q-24 17 -54 39.5t-51 42.5q-23 -20 -51.5 -42.5
t-53.5 -39.5l-38 54q28 17 64.5 43.5t78.5 58.5q42 -32 78.5 -58.5t64.5 -43.5z" />
    <glyph glyph-name="Gbreve" unicode="&#x11e;" horiz-adv-x="604" 
d="M550 43q-31 -23 -83 -38t-103 -15q-77 0 -136.5 24.5t-100 69t-61 105.5t-20.5 134t21.5 134.5t62.5 106.5t100 70t135 25q40 0 81 -10t76 -28l-24 -59q-25 9 -59.5 18.5t-76.5 9.5q-50 0 -92.5 -16.5t-73.5 -49.5t-48.5 -81.5t-17.5 -112.5t17 -114.5t49 -85t77.5 -52.5
t101.5 -18q24 0 51 4t44 11v199l-126 2v61h206v-294zM264 863q2 -32 18.5 -54t53.5 -22t53.5 22t18.5 54h57q4 -60 -31.5 -98t-97.5 -38t-97.5 38t-31.5 98h57z" />
    <glyph glyph-name="gbreve" unicode="&#x11f;" horiz-adv-x="484" 
d="M223 158h-12t-11 1q-14 -11 -25.5 -25.5t-11.5 -29.5q0 -34 48 -34h95q36 0 66 -9.5t51.5 -26.5t34 -42.5t12.5 -56.5q0 -33 -17 -60.5t-48 -47t-74 -30t-94 -10.5q-96 0 -147.5 30.5t-51.5 87.5q0 20 7.5 37.5t20.5 32.5t29 27t33 21q-11 7 -23 21t-12 39q0 23 16 45.5
t42 41.5q-51 17 -79 58.5t-28 102.5q0 41 13.5 74.5t38.5 56.5t59 35.5t74 12.5q33 0 62.5 -10t52.5 -28q29 23 64.5 31.5t67.5 3.5v-66q-20 3 -45 1t-49 -12q13 -20 20 -43.5t7 -50.5q0 -41 -13.5 -74t-38.5 -56t-59 -35.5t-75 -12.5zM227 216q47 0 76.5 31t29.5 83
q0 60 -29.5 91t-77.5 31q-47 0 -76.5 -31.5t-29.5 -83.5q0 -60 29.5 -90.5t77.5 -30.5zM250 -150q63 0 102 21t39 58q0 34 -25.5 52.5t-80.5 18.5h-109q-23 -11 -42.5 -31t-19.5 -46q0 -35 35.5 -54t100.5 -19zM157 713q2 -32 18.5 -54t53.5 -22t53.5 22t18.5 54h57
q4 -60 -31.5 -98t-97.5 -38t-97.5 38t-31.5 98h57z" />
    <glyph glyph-name="Gdotaccent" unicode="&#x120;" horiz-adv-x="604" 
d="M550 43q-31 -23 -83 -38t-103 -15q-77 0 -136.5 24.5t-100 69t-61 105.5t-20.5 134t21.5 134.5t62.5 106.5t100 70t135 25q40 0 81 -10t76 -28l-24 -59q-25 9 -59.5 18.5t-76.5 9.5q-50 0 -92.5 -16.5t-73.5 -49.5t-48.5 -81.5t-17.5 -112.5t17 -114.5t49 -85t77.5 -52.5
t101.5 -18q24 0 51 4t44 11v199l-126 2v61h206v-294zM295 807q0 23 16.5 39.5t40.5 16.5q21 0 36.5 -15.5t15.5 -36.5q0 -25 -16.5 -41t-39.5 -16q-22 0 -37.5 15.5t-15.5 37.5z" />
    <glyph glyph-name="gdotaccent" unicode="&#x121;" horiz-adv-x="484" 
d="M223 158h-12t-11 1q-14 -11 -25.5 -25.5t-11.5 -29.5q0 -34 48 -34h95q36 0 66 -9.5t51.5 -26.5t34 -42.5t12.5 -56.5q0 -33 -17 -60.5t-48 -47t-74 -30t-94 -10.5q-96 0 -147.5 30.5t-51.5 87.5q0 20 7.5 37.5t20.5 32.5t29 27t33 21q-11 7 -23 21t-12 39q0 23 16 45.5
t42 41.5q-51 17 -79 58.5t-28 102.5q0 41 13.5 74.5t38.5 56.5t59 35.5t74 12.5q33 0 62.5 -10t52.5 -28q29 23 64.5 31.5t67.5 3.5v-66q-20 3 -45 1t-49 -12q13 -20 20 -43.5t7 -50.5q0 -41 -13.5 -74t-38.5 -56t-59 -35.5t-75 -12.5zM227 216q47 0 76.5 31t29.5 83
q0 60 -29.5 91t-77.5 31q-47 0 -76.5 -31.5t-29.5 -83.5q0 -60 29.5 -90.5t77.5 -30.5zM250 -150q63 0 102 21t39 58q0 34 -25.5 52.5t-80.5 18.5h-109q-23 -11 -42.5 -31t-19.5 -46q0 -35 35.5 -54t100.5 -19zM173 657q0 23 16 39.5t40 16.5q21 0 37 -15.5t16 -36.5
q0 -25 -16.5 -41t-40.5 -16q-21 0 -36.5 15.5t-15.5 37.5z" />
    <glyph glyph-name="Gcommaaccent" unicode="&#x122;" horiz-adv-x="604" 
d="M550 43q-31 -23 -83 -38t-103 -15q-77 0 -136.5 24.5t-100 69t-61 105.5t-20.5 134t21.5 134.5t62.5 106.5t100 70t135 25q40 0 81 -10t76 -28l-24 -59q-25 9 -59.5 18.5t-76.5 9.5q-50 0 -92.5 -16.5t-73.5 -49.5t-48.5 -81.5t-17.5 -112.5t17 -114.5t49 -85t77.5 -52.5
t101.5 -18q24 0 51 4t44 11v199l-126 2v61h206v-294zM365 -48q7 -5 20.5 -24.5t13.5 -49.5q0 -26 -11 -45t-29 -32t-41.5 -20.5t-48.5 -9.5l-15 42q30 6 53 21.5t23 41.5t-12 41.5t-17 19.5z" />
    <glyph glyph-name="gcommaaccent" unicode="&#x123;" horiz-adv-x="484" 
d="M223 158h-12t-11 1q-14 -11 -25.5 -25.5t-11.5 -29.5q0 -34 48 -34h95q36 0 66 -9.5t51.5 -26.5t34 -42.5t12.5 -56.5q0 -33 -17 -60.5t-48 -47t-74 -30t-94 -10.5q-96 0 -147.5 30.5t-51.5 87.5q0 20 7.5 37.5t20.5 32.5t29 27t33 21q-11 7 -23 21t-12 39q0 23 16 45.5
t42 41.5q-51 17 -79 58.5t-28 102.5q0 41 13.5 74.5t38.5 56.5t59 35.5t74 12.5q33 0 62.5 -10t52.5 -28q29 23 64.5 31.5t67.5 3.5v-66q-20 3 -45 1t-49 -12q13 -20 20 -43.5t7 -50.5q0 -41 -13.5 -74t-38.5 -56t-59 -35.5t-75 -12.5zM227 216q47 0 76.5 31t29.5 83
q0 60 -29.5 91t-77.5 31q-47 0 -76.5 -31.5t-29.5 -83.5q0 -60 29.5 -90.5t77.5 -30.5zM250 -150q63 0 102 21t39 58q0 34 -25.5 52.5t-80.5 18.5h-109q-23 -11 -42.5 -31t-19.5 -46q0 -35 35.5 -54t100.5 -19zM208 559q-7 5 -21 24.5t-14 49.5q0 26 11 45t29.5 32t42 20.5
t48.5 9.5l14 -42q-30 -6 -52.5 -21.5t-22.5 -41.5t11.5 -41.5t16.5 -20.5z" />
    <glyph glyph-name="Hcircumflex" unicode="&#x124;" horiz-adv-x="654" 
d="M489 294h-324v-294h-80v649h80v-289h324v289h80v-649h-80v294zM432 722q-24 17 -53.5 39.5t-51.5 42.5q-22 -20 -51 -42.5t-54 -39.5l-38 54q28 17 64.5 43t78.5 58q42 -32 78.5 -58t64.5 -43z" />
    <glyph glyph-name="hcircumflex" unicode="&#x125;" horiz-adv-x="561" 
d="M164 723v-279q38 32 80 49t83 17q77 0 116.5 -46t39.5 -135v-329h-79v317q0 123 -101 123q-32 0 -71.5 -17.5t-67.5 -43.5v-379h-79v713zM233 735q-23 17 -53 40t-52 42q-22 -20 -50.5 -42.5t-54.5 -39.5l-38 55q28 17 64.5 43t78.5 58q43 -32 79 -58t64 -43z" />
    <glyph glyph-name="Hbar" unicode="&#x126;" horiz-adv-x="655" 
d="M27 510h59v139h80v-139h324v139h79v-139h59v-55h-59v-455h-79v294h-324v-294h-80v455h-59v55zM490 360v95h-324v-95h324z" />
    <glyph glyph-name="hbar" unicode="&#x127;" horiz-adv-x="561" 
d="M164 723v-78h156v-55h-156v-146q38 32 80 49t83 17q77 0 116.5 -46t39.5 -135v-329h-79v317q0 123 -101 123q-32 0 -71.5 -17.5t-67.5 -43.5v-379h-79v590h-80v55h80v68z" />
    <glyph glyph-name="Itilde" unicode="&#x128;" 
d="M85 649h80v-649h-80v649zM-23 792q14 28 40.5 45.5t59.5 17.5q14 0 28.5 -5t28 -10.5t26 -10.5t23.5 -5q20 0 32.5 12.5l19.5 19.5l40 -38q-36 -62 -99 -62q-14 0 -27.5 5t-26 11t-25.5 11t-26 5q-20 0 -34 -13t-19 -21z" />
    <glyph glyph-name="itilde" unicode="&#x129;" 
d="M164 500v-500h-79v500h79zM-24 646q15 27 41 45t59 18q14 0 28.5 -5t28 -11t26.5 -11t23 -5q20 0 33 12.5t19 20.5l41 -39q-17 -29 -42 -45.5t-57 -16.5q-14 0 -27.5 5t-26.5 11.5t-26 11.5t-26 5q-20 0 -33.5 -13t-18.5 -21z" />
    <glyph glyph-name="Imacron" unicode="&#x12a;" 
d="M85 649h80v-649h-80v649zM-7 839h265v-60h-265v60z" />
    <glyph glyph-name="imacron" unicode="&#x12b;" 
d="M164 500v-500h-79v500h79zM-7 689h264v-60h-264v60z" />
    <glyph glyph-name="Ibreve" unicode="&#x12c;" 
d="M85 649h80v-649h-80v649zM53 863q3 -32 19 -54t53 -22q38 0 54 22t19 54h57q4 -60 -31.5 -98t-98.5 -38q-62 0 -97.5 38t-31.5 98h57z" />
    <glyph glyph-name="ibreve" unicode="&#x12d;" 
d="M164 500v-500h-79v500h79zM53 713q2 -32 18.5 -54t53.5 -22t53.5 22t18.5 54h57q4 -60 -31.5 -98t-97.5 -38t-97.5 38t-31.5 98h57z" />
    <glyph glyph-name="Iogonek" unicode="&#x12e;" 
d="M149 0q-13 -9 -26 -20t-23.5 -24t-17.5 -28t-7 -31q0 -23 12 -35.5t32 -12.5q19 0 34 5.5t18 7.5l17 -40q-6 -6 -28 -15.5t-51 -9.5q-42 0 -71 24t-29 62q0 40 24 69t52 48v649h80v-649h-16z" />
    <glyph glyph-name="iogonek" unicode="&#x12f;" 
d="M164 500v-500h-15q-13 -9 -26 -20t-23.5 -24t-17.5 -28t-7 -31q0 -23 12 -35.5t32 -12.5q19 0 34 5.5t18 7.5l17 -40q-6 -6 -28 -15.5t-51 -9.5q-42 0 -71 24t-29 62q0 40 24 69t52 48v500h79zM70 657q0 23 16.5 39.5t40.5 16.5q21 0 36.5 -15.5t15.5 -36.5
q0 -25 -16.5 -41t-39.5 -16q-22 0 -37.5 15.5t-15.5 37.5z" />
    <glyph glyph-name="Idotaccent" unicode="&#x130;" 
d="M85 649h80v-649h-80v649zM71 803q0 24 16 40t40 16q21 0 37 -15.5t16 -35.5q0 -25 -16.5 -41.5t-40.5 -16.5q-21 0 -36.5 15.5t-15.5 37.5z" />
    <glyph glyph-name="dotlessi" unicode="&#x131;" 
d="M164 500v-500h-79v500h79z" />
    <glyph glyph-name="IJ" unicode="&#x132;" horiz-adv-x="570" 
d="M504 649v-503q0 -75 -42 -115.5t-120 -40.5q-23 0 -52 8.5t-46 22.5l21 56q17 -8 36.5 -12.5t46.5 -4.5q76 0 76 79v510h80zM85 649h80v-649h-80v649z" />
    <glyph glyph-name="ij" unicode="&#x133;" horiz-adv-x="489" 
d="M325 500h79v-521q0 -97 -39.5 -139.5t-119.5 -42.5q-12 0 -27 1.5t-23 3.5l8 65q15 -3 37 -3q45 0 65 25t20 82v529zM164 500v-500h-79v500h79zM310 657q0 23 16 39.5t41 16.5q21 0 36.5 -15.5t15.5 -36.5q0 -25 -16.5 -41t-40.5 -16q-21 0 -36.5 15.5t-15.5 37.5z
M70 657q0 23 16.5 39.5t40.5 16.5q21 0 36.5 -15.5t15.5 -36.5q0 -25 -16.5 -41t-39.5 -16q-22 0 -37.5 15.5t-15.5 37.5z" />
    <glyph glyph-name="Jcircumflex" unicode="&#x134;" horiz-adv-x="336" 
d="M271 649v-503q0 -75 -42 -115.5t-120 -40.5q-24 0 -52.5 8.5t-45.5 22.5l21 56q17 -8 36.5 -12.5t46.5 -4.5q76 0 76 79v510h80zM337 722q-23 17 -53 39.5t-52 42.5q-22 -20 -50.5 -42.5t-54.5 -39.5l-38 54q28 17 64.5 43t78.5 58q43 -32 79 -58t64 -43z" />
    <glyph glyph-name="jcircumflex" unicode="&#x135;" 
d="M86 500h79v-521q0 -97 -39.5 -139.5t-119.5 -42.5q-12 0 -27 1.5t-23 3.5l8 65q15 -3 37 -3q45 0 65 25t20 82v529zM230 572q-23 17 -53 39.5t-52 42.5q-22 -20 -50.5 -42.5t-53.5 -39.5l-39 54q29 17 65 43.5t78 58.5q43 -32 79 -58.5t65 -43.5z" />
    <glyph glyph-name="Kcommaaccent" unicode="&#x136;" horiz-adv-x="581" 
d="M165 276l274 373h96l-208 -278l239 -371h-95l-197 312l-109 -141v-171h-80v649h80v-373zM324 -48q7 -5 21 -24.5t14 -49.5q0 -26 -11 -45t-29.5 -32t-42 -20.5t-48.5 -9.5l-15 42q30 6 53 21.5t23 41.5t-12 41.5t-17 19.5z" />
    <glyph glyph-name="kcommaaccent" unicode="&#x137;" horiz-adv-x="513" 
d="M164 723v-492l210 269h91l-163 -209l182 -291h-90l-149 240l-81 -100v-140h-79v713zM295 -48q7 -5 21 -24.5t14 -49.5q0 -26 -11 -45t-29.5 -32t-42 -20.5t-48.5 -9.5l-14 42q30 6 52.5 21.5t22.5 41.5t-12 41.5t-17 19.5z" />
    <glyph glyph-name="kgreenlandic" unicode="&#x138;" horiz-adv-x="513" 
d="M164 500v-269l210 269h91l-163 -209l182 -291h-90l-149 240l-81 -100v-140h-79v500h79z" />
    <glyph glyph-name="Lacute" unicode="&#x139;" horiz-adv-x="456" 
d="M441 0h-356v649h80v-583h276v-66zM35 779l216 105l32 -71l-227 -82z" />
    <glyph glyph-name="lacute" unicode="&#x13a;" 
d="M164 723v-723h-79v713zM13 798l216 105l32 -71l-227 -82z" />
    <glyph glyph-name="Lcommaaccent" unicode="&#x13b;" horiz-adv-x="456" 
d="M441 0h-356v649h80v-583h276v-66zM295 -48q7 -5 21 -24.5t14 -49.5q0 -26 -11 -45t-29.5 -32t-42 -20.5t-48.5 -9.5l-14 42q30 6 52.5 21.5t22.5 41.5t-12 41.5t-17 19.5z" />
    <glyph glyph-name="lcommaaccent" unicode="&#x13c;" 
d="M164 723v-723h-79v713zM153 -48q7 -5 21 -24.5t14 -49.5q0 -26 -11 -45t-29.5 -32t-42 -20.5t-48.5 -9.5l-15 42q31 6 53.5 21.5t22.5 41.5t-12 41.5t-17 19.5z" />
    <glyph glyph-name="Lcaron" unicode="&#x13d;" horiz-adv-x="456" 
d="M441 0h-356v649h80v-583h276v-66zM346 664q7 -5 21 -24.5t14 -49.5q0 -26 -11 -45t-29.5 -32t-42 -20.5t-48.5 -9.5l-15 42q30 6 53 21.5t23 41.5t-12 41.5t-17 19.5z" />
    <glyph glyph-name="lcaron" unicode="&#x13e;" horiz-adv-x="299" 
d="M164 723v-723h-79v713zM292 745q3 -2 9 -8.5t12 -17t10.5 -23.5t4.5 -29q0 -24 -7.5 -43t-20 -34t-28 -26t-31.5 -18l-27 37q15 9 29.5 27.5t14.5 47.5q0 13 -5 24.5t-11 21.5t-12 16.5t-9 8.5z" />
    <glyph glyph-name="Ldot" unicode="&#x13f;" horiz-adv-x="456" 
d="M441 0h-356v649h80v-583h276v-66zM278 338q0 24 16.5 40.5t40.5 16.5q21 0 36.5 -15.5t15.5 -36.5q0 -25 -16.5 -41t-39.5 -16q-22 0 -37.5 15.5t-15.5 36.5z" />
    <glyph glyph-name="ldot" unicode="&#x140;" horiz-adv-x="327" 
d="M164 723v-723h-79v713zM232 363q0 24 16.5 40t40.5 16q21 0 36.5 -15.5t15.5 -36.5q0 -25 -16.5 -41t-39.5 -16q-22 0 -37.5 15.5t-15.5 37.5z" />
    <glyph glyph-name="Lslash" unicode="&#x141;" horiz-adv-x="470" 
d="M-10 249l110 83v317h79v-257l124 94l39 -51l-163 -124v-245h276v-66h-355v250l-71 -53z" />
    <glyph glyph-name="lslash" unicode="&#x142;" horiz-adv-x="312" 
d="M195 723v-308l62 47l40 -51l-102 -78v-333h-78v274l-63 -48l-39 52l102 77v358z" />
    <glyph glyph-name="Nacute" unicode="&#x143;" horiz-adv-x="654" 
d="M163 548v-548h-78v649h101l306 -548v548h77v-649h-101zM218 779l217 105l31 -71l-227 -82z" />
    <glyph glyph-name="nacute" unicode="&#x144;" horiz-adv-x="561" 
d="M149 500l8 -61q40 34 84 52.5t86 18.5q77 0 116.5 -46t39.5 -135v-329h-79v317q0 123 -101 123q-32 0 -71.5 -17.5t-67.5 -43.5v-379h-79v500h64zM166 632l216 106l32 -71l-227 -82z" />
    <glyph glyph-name="Ncommaaccent" unicode="&#x145;" horiz-adv-x="654" 
d="M163 548v-548h-78v649h101l306 -548v548h77v-649h-101zM351 -48q7 -5 21 -24.5t14 -49.5q0 -26 -11 -45t-29.5 -32t-42 -20.5t-48.5 -9.5l-15 42q30 6 53 21.5t23 41.5t-12 41.5t-17 19.5z" />
    <glyph glyph-name="ncommaaccent" unicode="&#x146;" horiz-adv-x="561" 
d="M149 500l8 -61q40 34 84 52.5t86 18.5q77 0 116.5 -46t39.5 -135v-329h-79v317q0 123 -101 123q-32 0 -71.5 -17.5t-67.5 -43.5v-379h-79v500h64zM299 -48q7 -5 21 -24.5t14 -49.5q0 -26 -11 -45t-29.5 -32t-42 -20.5t-48.5 -9.5l-15 42q31 6 53.5 21.5t22.5 41.5
t-12 41.5t-17 19.5z" />
    <glyph glyph-name="Ncaron" unicode="&#x147;" horiz-adv-x="654" 
d="M163 548v-548h-78v649h101l306 -548v548h77v-649h-101zM221 880q24 -16 54 -39.5t52 -45.5q22 22 52 45.5t55 39.5l34 -59q-46 -24 -77.5 -46.5t-63.5 -52.5q-31 30 -62.5 52.5t-78.5 46.5z" />
    <glyph glyph-name="ncaron" unicode="&#x148;" horiz-adv-x="561" 
d="M149 500l8 -61q40 34 84 52.5t86 18.5q77 0 116.5 -46t39.5 -135v-329h-79v317q0 123 -101 123q-32 0 -71.5 -17.5t-67.5 -43.5v-379h-79v500h64zM178 733q24 -15 54 -38.5t52 -45.5q22 22 52 45.5t55 38.5l34 -58q-46 -24 -77.5 -47t-63.5 -52q-31 29 -62.5 52t-78.5 47
z" />
    <glyph glyph-name="napostrophe" unicode="&#x149;" horiz-adv-x="610" 
d="M198 500l8 -61q40 34 83.5 52.5t85.5 18.5q78 0 117.5 -46t39.5 -135v-329h-79v317q0 123 -101 123q-32 0 -71.5 -17.5t-67.5 -43.5v-379h-79v500h64zM-10 507q8 17 17.5 45.5t9.5 63.5t-10.5 59t-15.5 34l82 15q5 -11 13.5 -35t8.5 -61q0 -24 -6.5 -45.5t-15.5 -39.5
t-19 -31.5t-18 -21.5z" />
    <glyph glyph-name="Eng" unicode="&#x14a;" horiz-adv-x="654" 
d="M418 -134q71 0 71 80v44l-324 539v-529h-80v650h99l305 -520v520h80v-697q0 -75 -40.5 -115.5t-116.5 -40.5q-27 0 -53.5 7.5t-40.5 17.5l22 58q15 -7 33.5 -10.5t44.5 -3.5z" />
    <glyph glyph-name="eng" unicode="&#x14b;" horiz-adv-x="561" 
d="M404 317q0 123 -101 123q-32 0 -71.5 -17.5t-67.5 -43.5v-379h-79v500h64l8 -61q40 34 84 52.5t86 18.5q77 0 116.5 -46t39.5 -135l-1 -329v-21q0 -97 -40.5 -139.5t-123.5 -42.5q-11 0 -24 1.5t-21 3.5l9 65q8 -2 17.5 -2.5t18.5 -0.5q45 0 65.5 25t20.5 82v346z" />
    <glyph glyph-name="Omacron" unicode="&#x14c;" horiz-adv-x="680" 
d="M337 -10q-68 0 -122 23t-91.5 65.5t-57.5 104.5t-20 140q0 79 20.5 141t58.5 105.5t93.5 66.5t124.5 23q68 0 121.5 -23t91 -65.5t57.5 -104.5t20 -140q0 -79 -20 -141t-58.5 -105.5t-93.5 -66.5t-124 -23zM343 58q97 0 151.5 69t54.5 192q0 129 -56 201t-157 72
q-97 0 -151.5 -69t-54.5 -193q0 -128 56.5 -200t156.5 -72zM208 839h264v-60h-264v60z" />
    <glyph glyph-name="omacron" unicode="&#x14d;" horiz-adv-x="557" 
d="M275 -10q-51 0 -93 18.5t-72.5 52.5t-47 81t-16.5 104q0 59 17 108t48 83.5t74.5 53.5t95.5 19q51 0 93 -18.5t72.5 -52.5t47 -81t16.5 -104q0 -59 -17 -108t-47.5 -83.5t-74 -53.5t-96.5 -19zM281 55q67 0 106.5 51.5t39.5 139.5q0 93 -40.5 146t-111.5 53
q-66 0 -105.5 -51.5t-39.5 -139.5q0 -93 40 -146t111 -53zM146 689h265v-60h-265v60z" />
    <glyph glyph-name="Obreve" unicode="&#x14e;" horiz-adv-x="680" 
d="M337 -10q-68 0 -122 23t-91.5 65.5t-57.5 104.5t-20 140q0 79 20.5 141t58.5 105.5t93.5 66.5t124.5 23q68 0 121.5 -23t91 -65.5t57.5 -104.5t20 -140q0 -79 -20 -141t-58.5 -105.5t-93.5 -66.5t-124 -23zM343 58q97 0 151.5 69t54.5 192q0 129 -56 201t-157 72
q-97 0 -151.5 -69t-54.5 -193q0 -128 56.5 -200t156.5 -72zM268 863q2 -32 18.5 -54t53.5 -22t53.5 22t18.5 54h57q4 -60 -31.5 -98t-97.5 -38t-97.5 38t-32.5 98h58z" />
    <glyph glyph-name="obreve" unicode="&#x14f;" horiz-adv-x="557" 
d="M275 -10q-51 0 -93 18.5t-72.5 52.5t-47 81t-16.5 104q0 59 17 108t48 83.5t74.5 53.5t95.5 19q51 0 93 -18.5t72.5 -52.5t47 -81t16.5 -104q0 -59 -17 -108t-47.5 -83.5t-74 -53.5t-96.5 -19zM281 55q67 0 106.5 51.5t39.5 139.5q0 93 -40.5 146t-111.5 53
q-66 0 -105.5 -51.5t-39.5 -139.5q0 -93 40 -146t111 -53zM206 713q2 -32 18.5 -54t53.5 -22q38 0 54 22t19 54h57q4 -60 -32 -98t-98 -38t-97.5 38t-31.5 98h57z" />
    <glyph glyph-name="Ohungarumlaut" unicode="&#x150;" horiz-adv-x="680" 
d="M337 -10q-68 0 -122 23t-91.5 65.5t-57.5 104.5t-20 140q0 79 20.5 141t58.5 105.5t93.5 66.5t124.5 23q68 0 121.5 -23t91 -65.5t57.5 -104.5t20 -140q0 -79 -20 -141t-58.5 -105.5t-93.5 -66.5t-124 -23zM343 58q97 0 151.5 69t54.5 192q0 129 -56 201t-157 72
q-97 0 -151.5 -69t-54.5 -193q0 -128 56.5 -200t156.5 -72zM212 749l121 155l55 -41l-133 -147zM374 753l117 151l55 -41l-129 -142z" />
    <glyph glyph-name="ohungarumlaut" unicode="&#x151;" horiz-adv-x="557" 
d="M275 -10q-51 0 -93 18.5t-72.5 52.5t-47 81t-16.5 104q0 59 17 108t48 83.5t74.5 53.5t95.5 19q51 0 93 -18.5t72.5 -52.5t47 -81t16.5 -104q0 -59 -17 -108t-47.5 -83.5t-74 -53.5t-96.5 -19zM281 55q67 0 106.5 51.5t39.5 139.5q0 93 -40.5 146t-111.5 53
q-66 0 -105.5 -51.5t-39.5 -139.5q0 -93 40 -146t111 -53zM149 599l121 155l55 -41l-133 -147zM311 604l117 150l55 -41l-129 -142z" />
    <glyph glyph-name="OE" unicode="&#x152;" horiz-adv-x="926" 
d="M867 584h-285v-224h275v-66h-275v-228h295v-66h-375v46q-34 -27 -75.5 -41.5t-89.5 -14.5q-67 0 -121 24.5t-91.5 69t-58 105.5t-20.5 134t21 134.5t60 106.5t94 70t122 25q46 0 86 -13.5t73 -39.5v44h365v-66zM343 58q47 0 88.5 19.5t70.5 58.5v373q-29 40 -72 61.5
t-94 21.5q-40 0 -77.5 -17t-66 -50t-45.5 -82t-17 -113t16.5 -114.5t45.5 -85.5t68 -53.5t83 -18.5z" />
    <glyph glyph-name="oe" unicode="&#x153;" horiz-adv-x="812" 
d="M437 232q5 -81 47 -126.5t112 -45.5q44 0 75.5 7t53.5 15l21 -59q-29 -15 -70.5 -24t-90.5 -9q-48 0 -87 15t-69 44q-30 -29 -69 -44t-85 -15q-51 0 -93 18.5t-72.5 52.5t-47 81t-16.5 104q0 59 17 108t48 83.5t74.5 53.5t95.5 19q45 0 82 -15t66 -42q60 57 154 57
q88 0 135 -48.5t47 -137.5q0 -24 -4.5 -49.5t-10.5 -42.5h-313zM281 55q67 0 106 48q-33 59 -33 142q0 89 32 151q-20 23 -48 36t-63 13q-66 0 -105.5 -51.5t-39.5 -139.5q0 -93 40 -146t111 -53zM684 290q2 12 2.5 20.5t0.5 16.5q0 56 -29 87t-81 31q-59 0 -95.5 -41
t-42.5 -114h245z" />
    <glyph glyph-name="Racute" unicode="&#x154;" horiz-adv-x="547" 
d="M85 0v649h198q103 0 161 -49.5t58 -137.5q0 -28 -10.5 -56.5t-29 -52.5t-43.5 -43t-55 -29l149 -281h-86l-136 266h-126v-266h-80zM165 330h162q42 12 66.5 46.5t24.5 78.5q0 63 -36 97t-103 34h-114v-256zM150 779l216 105l32 -71l-227 -82z" />
    <glyph glyph-name="racute" unicode="&#x155;" horiz-adv-x="344" 
d="M145 500l12 -70q10 12 27.5 25.5t39 25t46.5 20t49 9.5v-80q-45 -2 -88.5 -18.5t-66.5 -39.5v-372h-79v500h60zM88 632l217 106l31 -71l-227 -82z" />
    <glyph glyph-name="Rcommaaccent" unicode="&#x156;" horiz-adv-x="547" 
d="M85 0v649h198q103 0 161 -49.5t58 -137.5q0 -28 -10.5 -56.5t-29 -52.5t-43.5 -43t-55 -29l149 -281h-86l-136 266h-126v-266h-80zM165 330h162q42 12 66.5 46.5t24.5 78.5q0 63 -36 97t-103 34h-114v-256zM312 -48q7 -5 21 -24.5t14 -49.5q0 -26 -11 -45t-29.5 -32
t-42 -20.5t-48.5 -9.5l-15 42q30 6 53 21.5t23 41.5t-12 41.5t-17 19.5z" />
    <glyph glyph-name="rcommaaccent" unicode="&#x157;" horiz-adv-x="344" 
d="M145 500l12 -70q10 12 27.5 25.5t39 25t46.5 20t49 9.5v-80q-45 -2 -88.5 -18.5t-66.5 -39.5v-372h-79v500h60zM157 -48q7 -5 20.5 -24.5t13.5 -49.5q0 -26 -11 -45t-29 -32t-41.5 -20.5t-48.5 -9.5l-15 42q30 6 53 21.5t23 41.5t-12 41.5t-17 19.5z" />
    <glyph glyph-name="Rcaron" unicode="&#x158;" horiz-adv-x="547" 
d="M85 0v649h198q103 0 161 -49.5t58 -137.5q0 -28 -10.5 -56.5t-29 -52.5t-43.5 -43t-55 -29l149 -281h-86l-136 266h-126v-266h-80zM165 330h162q42 12 66.5 46.5t24.5 78.5q0 63 -36 97t-103 34h-114v-256zM157 880q25 -16 54.5 -39.5t52.5 -45.5q22 22 51.5 45.5
t54.5 39.5l35 -59q-47 -24 -78.5 -46.5t-62.5 -52.5q-32 30 -63.5 52.5t-77.5 46.5z" />
    <glyph glyph-name="rcaron" unicode="&#x159;" horiz-adv-x="344" 
d="M145 500l12 -70q10 12 27.5 25.5t39 25t46.5 20t49 9.5v-80q-45 -2 -88.5 -18.5t-66.5 -39.5v-372h-79v500h60zM75 733q25 -15 54.5 -38.5t52.5 -45.5q22 22 51.5 45.5t54.5 38.5l35 -58q-47 -24 -78.5 -47t-62.5 -52q-32 29 -63.5 52t-77.5 47z" />
    <glyph glyph-name="Sacute" unicode="&#x15a;" horiz-adv-x="485" 
d="M60 99q28 -14 68.5 -26.5t90.5 -12.5q66 0 105 25.5t39 73.5q0 42 -27 69t-92 54l-70 30q-62 26 -96 65.5t-34 105.5q0 41 17.5 74t47 55.5t67.5 34.5t79 12q52 0 92.5 -11t69.5 -25l-19 -63q-26 11 -65 20.5t-79 9.5q-60 0 -94.5 -28t-34.5 -73q0 -43 23 -68t81 -48
l72 -32q72 -32 108 -73.5t36 -102.5q0 -84 -60 -129.5t-166 -45.5q-59 0 -106.5 14.5t-73.5 31.5zM125 779l217 105l32 -71l-228 -82z" />
    <glyph glyph-name="sacute" unicode="&#x15b;" horiz-adv-x="395" 
d="M61 91q20 -10 55 -20.5t78 -10.5q45 0 72 14.5t27 49.5q0 32 -24 51t-75 39l-42 16q-51 20 -79 52.5t-28 85.5q0 34 14 60.5t37.5 44.5t54 27.5t64.5 9.5q47 0 83 -10.5t53 -19.5l-18 -64q-20 8 -50 16t-68 8q-42 0 -68 -17t-26 -50q0 -27 18 -46t71 -40l43 -17
q57 -23 87 -56t30 -87q0 -64 -44.5 -100.5t-130.5 -36.5q-53 0 -91.5 11.5t-64.5 25.5zM87 632l216 106l32 -71l-227 -82z" />
    <glyph glyph-name="Scircumflex" unicode="&#x15c;" horiz-adv-x="485" 
d="M60 99q28 -14 68.5 -26.5t90.5 -12.5q66 0 105 25.5t39 73.5q0 42 -27 69t-92 54l-70 30q-62 26 -96 65.5t-34 105.5q0 41 17.5 74t47 55.5t67.5 34.5t79 12q52 0 92.5 -11t69.5 -25l-19 -63q-26 11 -65 20.5t-79 9.5q-60 0 -94.5 -28t-34.5 -73q0 -43 23 -68t81 -48
l72 -32q72 -32 108 -73.5t36 -102.5q0 -84 -60 -129.5t-166 -45.5q-59 0 -106.5 14.5t-73.5 31.5zM352 718q-24 17 -53.5 40t-51.5 42q-22 -20 -51 -42.5t-54 -39.5l-38 54q28 18 64.5 44t78.5 58q42 -32 78.5 -58t64.5 -44z" />
    <glyph glyph-name="scircumflex" unicode="&#x15d;" horiz-adv-x="395" 
d="M61 91q20 -10 55 -20.5t78 -10.5q45 0 72 14.5t27 49.5q0 32 -24 51t-75 39l-42 16q-51 20 -79 52.5t-28 85.5q0 34 14 60.5t37.5 44.5t54 27.5t64.5 9.5q47 0 83 -10.5t53 -19.5l-18 -64q-20 8 -50 16t-68 8q-42 0 -68 -17t-26 -50q0 -27 18 -46t71 -40l43 -17
q57 -23 87 -56t30 -87q0 -64 -44.5 -100.5t-130.5 -36.5q-53 0 -91.5 11.5t-64.5 25.5zM306 572q-24 17 -54 39.5t-51 42.5q-23 -20 -51.5 -42.5t-53.5 -39.5l-38 54q28 17 64.5 43.5t78.5 58.5q42 -32 78.5 -58.5t64.5 -43.5z" />
    <glyph glyph-name="Scedilla" unicode="&#x15e;" horiz-adv-x="485" 
d="M60 99q28 -14 68.5 -26.5t90.5 -12.5q66 0 105 25.5t39 73.5q0 42 -27 69t-92 54l-70 30q-62 26 -96 65.5t-34 105.5q0 41 17.5 74t47 55.5t67.5 34.5t79 12q52 0 92.5 -11t69.5 -25l-19 -63q-26 11 -65 20.5t-79 9.5q-60 0 -94.5 -28t-34.5 -73q0 -43 23 -68t81 -48
l72 -32q72 -32 108 -73.5t36 -102.5q0 -84 -60 -129.5t-166 -45.5q-59 0 -106.5 14.5t-73.5 31.5zM164 -162q5 -2 16 -3.5t24 -1.5q21 0 30 11t9 25q0 15 -9.5 25t-28.5 10h-32l4 45h41q38 0 60.5 -18.5t22.5 -54.5q0 -43 -27 -66t-76 -23q-13 0 -24.5 2.5t-18.5 5.5z" />
    <glyph glyph-name="scedilla" unicode="&#x15f;" horiz-adv-x="395" 
d="M61 91q20 -10 55 -20.5t78 -10.5q45 0 72 14.5t27 49.5q0 32 -24 51t-75 39l-42 16q-51 20 -79 52.5t-28 85.5q0 34 14 60.5t37.5 44.5t54 27.5t64.5 9.5q47 0 83 -10.5t53 -19.5l-18 -64q-20 8 -50 16t-68 8q-42 0 -68 -17t-26 -50q0 -27 18 -46t71 -40l43 -17
q57 -23 87 -56t30 -87q0 -64 -44.5 -100.5t-130.5 -36.5q-53 0 -91.5 11.5t-64.5 25.5zM130 -162q5 -2 16.5 -3.5t23.5 -1.5q21 0 30 11t9 25q0 15 -9 25t-29 10h-32l5 45h41q37 0 60 -18.5t23 -54.5q0 -43 -27.5 -66t-76.5 -23q-13 0 -24.5 2.5t-17.5 5.5z" />
    <glyph glyph-name="Scaron" unicode="&#x160;" horiz-adv-x="485" 
d="M60 99q28 -14 68.5 -26.5t90.5 -12.5q66 0 105 25.5t39 73.5q0 42 -27 69t-92 54l-70 30q-62 26 -96 65.5t-34 105.5q0 41 17.5 74t47 55.5t67.5 34.5t79 12q52 0 92.5 -11t69.5 -25l-19 -63q-26 11 -65 20.5t-79 9.5q-60 0 -94.5 -28t-34.5 -73q0 -43 23 -68t81 -48
l72 -32q72 -32 108 -73.5t36 -102.5q0 -84 -60 -129.5t-166 -45.5q-59 0 -106.5 14.5t-73.5 31.5zM133 880q25 -16 54.5 -39.5t51.5 -45.5q23 22 52.5 45.5t54.5 39.5l34 -59q-46 -24 -77.5 -46.5t-63.5 -52.5q-31 30 -62.5 52.5t-78.5 46.5z" />
    <glyph glyph-name="scaron" unicode="&#x161;" horiz-adv-x="395" 
d="M61 91q20 -10 55 -20.5t78 -10.5q45 0 72 14.5t27 49.5q0 32 -24 51t-75 39l-42 16q-51 20 -79 52.5t-28 85.5q0 34 14 60.5t37.5 44.5t54 27.5t64.5 9.5q47 0 83 -10.5t53 -19.5l-18 -64q-20 8 -50 16t-68 8q-42 0 -68 -17t-26 -50q0 -27 18 -46t71 -40l43 -17
q57 -23 87 -56t30 -87q0 -64 -44.5 -100.5t-130.5 -36.5q-53 0 -91.5 11.5t-64.5 25.5zM94 733q25 -15 54.5 -38.5t52.5 -45.5q22 22 51.5 45.5t54.5 38.5l35 -58q-47 -24 -78.5 -47t-62.5 -52q-32 29 -63.5 52t-77.5 47z" />
    <glyph glyph-name="Tcedilla" unicode="&#x162;" horiz-adv-x="486" 
d="M15 649h456v-66h-188v-583h-80v583h-188v66zM181 -162q5 -2 16.5 -3.5t24.5 -1.5q21 0 29.5 11t8.5 25q0 15 -9 25t-29 10h-32l5 45h41q38 0 60.5 -18.5t22.5 -54.5q0 -43 -27 -66t-77 -23q-13 0 -24 2.5t-18 5.5z" />
    <glyph glyph-name="tcedilla" unicode="&#x163;" horiz-adv-x="368" 
d="M173 500h151v-65h-148v-288q0 -48 20 -69t64 -21q14 0 33 3t31 7l15 -62q-18 -6 -45 -10.5t-48 -4.5q-72 0 -110.5 37.5t-38.5 107.5v300h-82v57l87 5l2 114l69 9v-120zM156 -162q5 -2 16.5 -3.5t23.5 -1.5q21 0 30 11t9 25q0 15 -9 25t-29 10h-32l4 45h41
q38 0 60.5 -18.5t22.5 -54.5q0 -43 -27 -66t-76 -23q-13 0 -24.5 2.5t-18.5 5.5z" />
    <glyph glyph-name="Tcaron" unicode="&#x164;" horiz-adv-x="486" 
d="M15 649h456v-66h-188v-583h-80v583h-188v66zM136 880q25 -16 54.5 -39.5t52.5 -45.5q22 22 51.5 45.5t54.5 39.5l35 -59q-47 -24 -78.5 -46.5t-62.5 -52.5q-32 30 -63.5 52.5t-77.5 46.5z" />
    <glyph glyph-name="tcaron" unicode="&#x165;" horiz-adv-x="368" 
d="M173 500h151v-65h-148v-288q0 -48 20 -69t64 -21q14 0 33 3t31 7l15 -62q-18 -6 -45 -10.5t-48 -4.5q-72 0 -110.5 37.5t-38.5 107.5v300h-82v57l87 5l2 114l69 9v-120zM303 764q3 -2 9 -8.5t12 -16.5t10.5 -23.5t4.5 -29.5q0 -24 -7.5 -43t-20 -33.5t-28 -25.5
t-31.5 -18l-27 36q15 10 30 28.5t15 47.5q0 12 -5 24t-11.5 21.5t-12.5 16t-9 8.5z" />
    <glyph glyph-name="Tbar" unicode="&#x166;" horiz-adv-x="486" 
d="M15 649h456v-66h-188v-230h122v-56h-122v-297h-80v297h-123v56h123v230h-188v66z" />
    <glyph glyph-name="tbar" unicode="&#x167;" horiz-adv-x="368" 
d="M173 500h151v-65h-148v-120h143v-65h-143v-103q0 -48 20 -69t64 -21q14 0 33 3t31 7l15 -62q-18 -6 -45 -10.5t-48 -4.5q-72 0 -110.5 37.5t-38.5 107.5v115h-68v58l68 4v123h-82v57l87 5l2 114l69 9v-120z" />
    <glyph glyph-name="Utilde" unicode="&#x168;" horiz-adv-x="613" 
d="M148 257q0 -97 42.5 -147t118.5 -50q72 0 114 48t42 138v403h79v-396q0 -124 -63.5 -193.5t-177.5 -69.5q-110 0 -172.5 68t-62.5 192v399h80v-392zM158 792q14 28 40.5 45.5t59.5 17.5q14 0 28.5 -5t28 -10.5t26 -10.5t23.5 -5q20 0 32.5 12.5l19.5 19.5l41 -38
q-36 -62 -100 -62q-14 0 -27.5 5t-26 11t-25.5 11t-26 5q-20 0 -34 -13t-19 -21z" />
    <glyph glyph-name="utilde" unicode="&#x169;" horiz-adv-x="549" 
d="M400 0l-8 61q-39 -34 -81.5 -52.5t-83.5 -18.5q-75 0 -113 46t-38 135v329h79v-317q0 -123 96 -123q31 0 69 17.5t65 43.5v379h78v-500h-63zM121 646q15 27 41 45t59 18q14 0 28.5 -5t28 -11t26.5 -11t23 -5q20 0 33 12.5t19 20.5l41 -39q-17 -29 -42 -45.5t-57 -16.5
q-14 0 -27.5 5t-26.5 11.5t-26 11.5t-26 5q-20 0 -33.5 -13t-18.5 -21z" />
    <glyph glyph-name="Umacron" unicode="&#x16a;" horiz-adv-x="613" 
d="M148 257q0 -97 42.5 -147t118.5 -50q72 0 114 48t42 138v403h79v-396q0 -124 -63.5 -193.5t-177.5 -69.5q-110 0 -172.5 68t-62.5 192v399h80v-392zM174 839h264v-60h-264v60z" />
    <glyph glyph-name="umacron" unicode="&#x16b;" horiz-adv-x="549" 
d="M400 0l-8 61q-39 -34 -81.5 -52.5t-83.5 -18.5q-75 0 -113 46t-38 135v329h79v-317q0 -123 96 -123q31 0 69 17.5t65 43.5v379h78v-500h-63zM142 689h265v-60h-265v60z" />
    <glyph glyph-name="Ubreve" unicode="&#x16c;" horiz-adv-x="613" 
d="M148 257q0 -97 42.5 -147t118.5 -50q72 0 114 48t42 138v403h79v-396q0 -124 -63.5 -193.5t-177.5 -69.5q-110 0 -172.5 68t-62.5 192v399h80v-392zM234 863q2 -32 18.5 -54t53.5 -22t53.5 22t18.5 54h58q3 -60 -32.5 -98t-97.5 -38t-97.5 38t-31.5 98h57z" />
    <glyph glyph-name="ubreve" unicode="&#x16d;" horiz-adv-x="549" 
d="M400 0l-8 61q-39 -34 -81.5 -52.5t-83.5 -18.5q-75 0 -113 46t-38 135v329h79v-317q0 -123 96 -123q31 0 69 17.5t65 43.5v379h78v-500h-63zM202 713q3 -32 19 -54t53 -22q38 0 54 22t19 54h57q4 -60 -32 -98t-98 -38t-97.5 38t-31.5 98h57z" />
    <glyph glyph-name="Uring" unicode="&#x16e;" horiz-adv-x="613" 
d="M148 257q0 -97 42.5 -147t118.5 -50q72 0 114 48t42 138v403h79v-396q0 -124 -63.5 -193.5t-177.5 -69.5q-110 0 -172.5 68t-62.5 192v399h80v-392zM206 804q0 43 29 72.5t74 29.5q20 0 37.5 -7.5t31 -21t21.5 -31t8 -37.5q0 -44 -29 -73.5t-74 -29.5q-19 0 -37 7.5
t-31.5 21t-21.5 31.5t-8 38zM259 806q0 -20 14.5 -34t32.5 -14q20 0 34 14.5t14 33.5q0 20 -14.5 34t-33.5 14q-20 0 -33.5 -14t-13.5 -34z" />
    <glyph glyph-name="uring" unicode="&#x16f;" horiz-adv-x="549" 
d="M400 0l-8 61q-39 -34 -81.5 -52.5t-83.5 -18.5q-75 0 -113 46t-38 135v329h79v-317q0 -123 96 -123q31 0 69 17.5t65 43.5v379h78v-500h-63zM169 657q0 43 29 73t74 30q20 0 37.5 -7.5t31 -21t21.5 -31t8 -37.5q0 -45 -29 -74.5t-74 -29.5q-19 0 -37 7.5t-31.5 21
t-21.5 31.5t-8 38zM222 660q0 -20 14.5 -34t33.5 -14q20 0 33.5 14t13.5 34t-14.5 33.5t-32.5 13.5q-20 0 -34 -13.5t-14 -33.5z" />
    <glyph glyph-name="Uhungarumlaut" unicode="&#x170;" horiz-adv-x="613" 
d="M148 257q0 -97 42.5 -147t118.5 -50q72 0 114 48t42 138v403h79v-396q0 -124 -63.5 -193.5t-177.5 -69.5q-110 0 -172.5 68t-62.5 192v399h80v-392zM179 749l121 155l54 -41l-132 -147zM341 753l117 151l55 -41l-129 -142z" />
    <glyph glyph-name="uhungarumlaut" unicode="&#x171;" horiz-adv-x="549" 
d="M400 0l-8 61q-39 -34 -81.5 -52.5t-83.5 -18.5q-75 0 -113 46t-38 135v329h79v-317q0 -123 96 -123q31 0 69 17.5t65 43.5v379h78v-500h-63zM147 599l121 155l54 -41l-133 -147zM309 604l117 150l54 -41l-128 -142z" />
    <glyph glyph-name="Uogonek" unicode="&#x172;" horiz-adv-x="613" 
d="M148 257q0 -97 42.5 -147t118.5 -50q72 0 114 48t42 138v403h79v-396q0 -101 -43 -166.5t-122 -86.5q-13 -9 -26 -20t-23.5 -24t-17.5 -28t-7 -31q0 -23 12 -35.5t32 -12.5q19 0 34 5.5t18 7.5l17 -40q-6 -6 -28 -15.5t-51 -9.5q-42 0 -71 24t-29 62q0 35 19 61.5
t43 45.5q-109 1 -171 68.5t-62 191.5v399h80v-392z" />
    <glyph glyph-name="uogonek" unicode="&#x173;" horiz-adv-x="549" 
d="M463 0h3q-13 -9 -26 -20t-23.5 -24t-17.5 -28t-7 -31q0 -23 12 -35.5t32 -12.5q18 0 33.5 5.5t18.5 7.5l17 -40q-6 -6 -28 -15.5t-51 -9.5q-42 0 -71 24t-29 62q0 39 23.5 68.5t51.5 48.5h-1l-8 61q-39 -34 -81.5 -52.5t-83.5 -18.5q-75 0 -113 46t-38 135v329h79v-317
q0 -123 96 -123q31 0 69 17.5t65 43.5v379h78v-500z" />
    <glyph glyph-name="Wcircumflex" unicode="&#x174;" horiz-adv-x="947" 
d="M923 649l-203 -649h-92l-154 514l-155 -514h-92l-203 649h90l159 -555l163 546h76l162 -546l159 555h90zM579 722q-24 17 -54 39.5t-51 42.5q-23 -20 -51.5 -42.5t-53.5 -39.5l-38 54q28 17 64.5 43t78.5 58q42 -32 78.5 -58t64.5 -43z" />
    <glyph glyph-name="wcircumflex" unicode="&#x175;" horiz-adv-x="780" 
d="M755 500l-160 -500h-83l-122 379l-123 -379h-83l-160 500h82l121 -411l130 406h66l130 -406l121 411h81zM495 572q-24 17 -54 39.5t-51 42.5q-23 -20 -51.5 -42.5t-53.5 -39.5l-38 54q28 17 64.5 43.5t78.5 58.5q42 -32 78.5 -58.5t64.5 -43.5z" />
    <glyph glyph-name="Ycircumflex" unicode="&#x176;" horiz-adv-x="537" 
d="M228 250l-213 399h86l169 -324l168 324h84l-213 -399v-250h-81v250zM374 718q-24 17 -54 40t-51 42q-23 -20 -51.5 -42.5t-53.5 -39.5l-39 54q29 18 65.5 44t78.5 58q42 -32 78.5 -58t64.5 -44z" />
    <glyph glyph-name="ycircumflex" unicode="&#x177;" horiz-adv-x="500" 
d="M485 500l-177 -488q-22 -60 -43.5 -101.5t-46 -66.5t-54 -36t-68.5 -11q-29 0 -53.5 7.5t-32.5 12.5l19 60q8 -3 25.5 -8t41.5 -5q44 0 71.5 27.5t51.5 98.5l-209 510h85l164 -423l142 423h84zM352 572q-24 17 -53.5 39.5t-51.5 42.5q-22 -20 -51 -42.5t-54 -39.5l-38 54
q28 17 64.5 43.5t78.5 58.5q42 -32 78.5 -58.5t64.5 -43.5z" />
    <glyph glyph-name="Ydieresis" unicode="&#x178;" horiz-adv-x="537" 
d="M228 250l-213 399h86l169 -324l168 324h84l-213 -399v-250h-81v250zM120 803q0 24 16.5 40t40.5 16q21 0 36.5 -15.5t15.5 -35.5q0 -25 -16.5 -41.5t-40.5 -16.5q-21 0 -36.5 15.5t-15.5 37.5zM309 803q0 24 16 40t40 16q21 0 36.5 -15.5t15.5 -35.5q0 -25 -16 -41.5
t-40 -16.5q-21 0 -36.5 15.5t-15.5 37.5z" />
    <glyph glyph-name="Zacute" unicode="&#x179;" horiz-adv-x="515" 
d="M372 583h-313v66h407v-57l-333 -526h353v-66h-447v58zM163 779l216 105l32 -71l-227 -82z" />
    <glyph glyph-name="zacute" unicode="&#x17a;" horiz-adv-x="469" 
d="M312 435h-242v65h336v-57l-264 -378h278v-65h-371v57zM125 632l217 106l32 -71l-228 -82z" />
    <glyph glyph-name="Zdotaccent" unicode="&#x17b;" horiz-adv-x="515" 
d="M372 583h-313v66h407v-57l-333 -526h353v-66h-447v58zM208 803q0 24 16 40t41 16q20 0 36 -15.5t16 -35.5q0 -25 -16.5 -41.5t-40.5 -16.5q-21 0 -36.5 15.5t-15.5 37.5z" />
    <glyph glyph-name="zdotaccent" unicode="&#x17c;" horiz-adv-x="469" 
d="M312 435h-242v65h336v-57l-264 -378h278v-65h-371v57zM180 657q0 23 16.5 39.5t40.5 16.5q21 0 36.5 -15.5t15.5 -36.5q0 -25 -16.5 -41t-40.5 -16q-21 0 -36.5 15.5t-15.5 37.5z" />
    <glyph glyph-name="Zcaron" unicode="&#x17d;" horiz-adv-x="505" 
d="M362 583h-313v66h408v-57l-334 -526h353v-66h-447v58zM146 880q25 -16 54.5 -39.5t51.5 -45.5q23 22 52.5 45.5t54.5 39.5l35 -59q-47 -24 -78.5 -46.5t-63.5 -52.5q-31 30 -62.5 52.5t-78.5 46.5z" />
    <glyph glyph-name="zcaron" unicode="&#x17e;" horiz-adv-x="469" 
d="M312 435h-242v65h336v-57l-264 -378h278v-65h-371v57zM128 733q25 -15 54.5 -38.5t51.5 -45.5q23 22 52.5 45.5t54.5 38.5l34 -58q-46 -24 -77.5 -47t-63.5 -52q-31 29 -62.5 52t-78.5 47z" />
    <glyph glyph-name="longs" unicode="&#x17f;" horiz-adv-x="271" 
d="M176 0h-79v435h-82v57l83 6v61q0 36 12.5 66.5t35 52t53.5 33.5t69 12q26 0 48 -5.5t34 -9.5l-15 -62q-12 3 -31 6.5t-39 3.5q-89 0 -89 -106v-550z" />
    <glyph glyph-name="florin" unicode="&#x192;" horiz-adv-x="503" 
d="M252 364h128v-65h-136l-51 -320q-8 -51 -24.5 -86t-40.5 -56.5t-55 -30.5t-68 -9q-7 0 -19 1.5t-20 3.5l8 65q15 -3 37 -3q45 0 69 25t33 82l52 328h-63v58l74 5l21 133q13 78 64 121t127 43q24 0 45 -5t31 -9l-15 -62q-11 3 -30.5 6t-39.5 3q-90 0 -107 -106z" />
    <glyph glyph-name="Aringacute" unicode="&#x1fa;" horiz-adv-x="601" 
d="M437 174h-273l-63 -174h-86l248 649h74l249 -649h-86zM188 240h225l-113 321zM231 741q0 31 20.5 51.5t51.5 20.5q28 0 48.5 -20t20.5 -48q0 -31 -20.5 -52t-52.5 -21q-27 0 -47.5 20t-20.5 49zM207 860l159 78l27 -60l-167 -60zM274 743q0 -11 8.5 -19t18.5 -8
q12 0 20 8t8 19t-8.5 19t-19.5 8t-19 -8t-8 -19z" />
    <glyph glyph-name="aringacute" unicode="&#x1fb;" horiz-adv-x="485" 
d="M399 97q0 -44 34 -44q10 0 16.5 2t10.5 4l8 -57q-8 -4 -23 -8t-32 -4q-36 0 -55.5 20.5t-26.5 47.5q-29 -32 -65.5 -50t-77.5 -18q-31 0 -58 9.5t-46.5 27.5t-30.5 42.5t-11 54.5q0 53 26.5 84.5t67.5 47.5t90 18.5t94 -2.5v54q0 54 -24 84t-83 30q-38 0 -73 -10t-54 -19
l-20 58q20 12 62.5 26.5t94.5 14.5q86 0 131 -45.5t45 -125.5v-242zM123 133q0 -35 23 -55.5t62 -20.5q32 1 60.5 16t51.5 40v105q-23 3 -56.5 3.5t-65 -7.5t-53.5 -26.5t-22 -54.5zM156 614q0 30 20.5 51t51.5 21q28 0 48.5 -20t20.5 -48q0 -31 -20.5 -52t-52.5 -21
q-27 0 -47.5 20t-20.5 49zM132 732l159 79l26 -61l-167 -59zM199 616q0 -11 8 -19.5t19 -8.5q12 0 19.5 8.5t7.5 19.5t-8 19t-19 8t-19 -8t-8 -19z" />
    <glyph glyph-name="AEacute" unicode="&#x1fc;" horiz-adv-x="881" 
d="M823 650v-66h-261v-224h251v-66h-251v-228h271v-66h-351v175h-253l-124 -175h-90l467 650h341zM482 241v293l-207 -293h207zM522 782l216 106l32 -72l-227 -81z" />
    <glyph glyph-name="aeacute" unicode="&#x1fd;" horiz-adv-x="778" 
d="M408 225q5 -81 45.5 -123t108.5 -42q45 0 76.5 7t52.5 15l21 -59q-29 -15 -70 -24t-91 -9q-56 0 -100 22t-75 63q-53 -47 -95.5 -66t-88.5 -19q-32 0 -59.5 10.5t-47.5 29.5t-31.5 45t-11.5 56q0 61 53 102t145 45l86 3v46q0 58 -27 85.5t-84 27.5q-29 0 -64.5 -8
t-67.5 -22l-19 59q36 18 81 29.5t84 11.5q55 0 94 -22t59 -64q29 42 71 64t96 22q88 0 135 -48.5t47 -137.5q0 -24 -4.5 -49.5t-10.5 -42.5zM650 290q2 12 2.5 20.5t0.5 16.5q0 56 -29 87t-81 31q-57 0 -92 -45t-41 -118zM123 137q0 -36 22.5 -56.5t62.5 -20.5q38 0 73.5 19
t64.5 50q-9 23 -13.5 48.5t-6.5 48.5l-91 -5q-52 -3 -82 -26t-30 -58zM265 632l216 106l32 -71l-227 -82z" />
    <glyph glyph-name="Oslashacute" unicode="&#x1fe;" horiz-adv-x="680" 
d="M59 -45l74 113q-42 44 -64.5 108t-22.5 147q0 79 20.5 141t58.5 105.5t93.5 66.5t124.5 23q85 0 150 -37l70 108l58 -36l-74 -113q42 -44 64 -107.5t22 -147.5q0 -79 -20 -141t-58.5 -105.5t-93.5 -66.5t-124 -23q-85 0 -150 37l-71 -108zM130 330q0 -118 49 -190
l273 418q-49 34 -116 34q-97 0 -151.5 -69t-54.5 -193zM343 58q97 0 151.5 69t54.5 192q0 120 -49 190l-272 -418q48 -33 115 -33zM226 779l216 105l32 -71l-227 -82z" />
    <glyph glyph-name="oslashacute" unicode="&#x1ff;" horiz-adv-x="557" 
d="M275 -10q-61 0 -111 28l-66 -101l-52 32l69 106q-32 34 -50.5 82.5t-18.5 108.5q0 59 17 108t48 83.5t74.5 53.5t95.5 19q62 0 112 -28l66 101l51 -32l-69 -106q33 -35 51 -83t18 -108q0 -59 -17 -108t-47.5 -83.5t-74 -53.5t-96.5 -19zM281 55q67 0 106.5 51.5
t39.5 139.5q0 79 -31 130l-193 -298q34 -23 78 -23zM130 254q0 -40 8 -72.5t22 -57.5l194 298q-34 23 -79 23q-66 0 -105.5 -51.5t-39.5 -139.5zM165 632l216 106l32 -71l-227 -82z" />
    <glyph glyph-name="Scommaaccent" unicode="&#x218;" horiz-adv-x="485" 
d="M60 99q28 -14 68.5 -26.5t90.5 -12.5q66 0 105 25.5t39 73.5q0 42 -27 69t-92 54l-70 30q-62 26 -96 65.5t-34 105.5q0 41 17.5 74t47 55.5t67.5 34.5t79 12q52 0 92.5 -11t69.5 -25l-19 -63q-26 11 -65 20.5t-79 9.5q-60 0 -94.5 -28t-34.5 -73q0 -43 23 -68t81 -48
l72 -32q72 -32 108 -73.5t36 -102.5q0 -84 -60 -129.5t-166 -45.5q-59 0 -106.5 14.5t-73.5 31.5zM277 -48q7 -5 21 -24.5t14 -49.5q0 -26 -11 -45t-29.5 -32t-42 -20.5t-48.5 -9.5l-15 42q30 6 53 21.5t23 41.5t-12 41.5t-17 19.5z" />
    <glyph glyph-name="scommaaccent" unicode="&#x219;" horiz-adv-x="395" 
d="M61 91q20 -10 55 -20.5t78 -10.5q45 0 72 14.5t27 49.5q0 32 -24 51t-75 39l-42 16q-51 20 -79 52.5t-28 85.5q0 34 14 60.5t37.5 44.5t54 27.5t64.5 9.5q47 0 83 -10.5t53 -19.5l-18 -64q-20 8 -50 16t-68 8q-42 0 -68 -17t-26 -50q0 -27 18 -46t71 -40l43 -17
q57 -23 87 -56t30 -87q0 -64 -44.5 -100.5t-130.5 -36.5q-53 0 -91.5 11.5t-64.5 25.5zM238 -48q7 -5 21 -24.5t14 -49.5q0 -26 -11 -45t-29.5 -32t-42 -20.5t-48.5 -9.5l-15 42q30 6 53 21.5t23 41.5t-12 41.5t-17 19.5z" />
    <glyph glyph-name="Tcommaaccent" unicode="&#x21a;" horiz-adv-x="486" 
d="M15 649h456v-66h-188v-583h-80v583h-188v66zM266 -48q6 -5 20 -24.5t14 -49.5q0 -26 -11 -45t-29.5 -32t-42 -20.5t-48.5 -9.5l-14 42q30 6 52.5 21.5t22.5 41.5t-11.5 41.5t-16.5 19.5z" />
    <glyph glyph-name="tcommaaccent" unicode="&#x21b;" horiz-adv-x="368" 
d="M173 500h151v-65h-148v-288q0 -48 20 -69t64 -21q14 0 33 3t31 7l15 -62q-18 -6 -45 -10.5t-48 -4.5q-72 0 -110.5 37.5t-38.5 107.5v300h-82v57l87 5l2 114l69 9v-120zM239 -48q7 -5 20.5 -24.5t13.5 -49.5q0 -26 -11 -45t-29 -32t-41.5 -20.5t-48.5 -9.5l-15 42
q30 6 53 21.5t23 41.5t-12 41.5t-17 19.5z" />
    <glyph glyph-name="dotlessj" unicode="&#x237;" 
d="M86 500h79v-521q0 -97 -39.5 -139.5t-119.5 -42.5q-12 0 -27 1.5t-23 3.5l8 65q15 -3 37 -3q45 0 65 25t20 82v529z" />
    <glyph glyph-name="apostrophe" unicode="&#x2bc;" horiz-adv-x="187" 
d="M39 507q8 17 17.5 45.5t9.5 63.5t-10.5 59t-15.5 34l82 15q5 -11 13.5 -35t8.5 -61q0 -24 -6.5 -45.5t-15.5 -39.5t-19 -31.5t-18 -21.5z" />
    <glyph glyph-name="circumflex" unicode="&#x2c6;" horiz-adv-x="398" 
d="M304 572q-24 17 -53.5 39.5t-51.5 42.5q-22 -20 -51 -42.5t-54 -39.5l-38 54q28 17 64.5 43.5t78.5 58.5q42 -32 78.5 -58.5t64.5 -43.5z" />
    <glyph glyph-name="caron" unicode="&#x2c7;" horiz-adv-x="388" 
d="M87 733q25 -15 55 -38.5t52 -45.5q22 22 52 45.5t54 38.5l35 -58q-47 -24 -78.5 -47t-62.5 -52q-32 29 -63.5 52t-77.5 47z" />
    <glyph glyph-name="breve" unicode="&#x2d8;" horiz-adv-x="366" 
d="M111 713q2 -32 18.5 -54t53.5 -22t53.5 22t18.5 54h57q4 -60 -31.5 -98t-97.5 -38t-97.5 38t-31.5 98h57z" />
    <glyph glyph-name="dotaccent" unicode="&#x2d9;" horiz-adv-x="216" 
d="M54 657q0 23 16 39.5t40 16.5q21 0 37 -15.5t16 -36.5q0 -25 -16.5 -41t-40.5 -16q-21 0 -36.5 15.5t-15.5 37.5z" />
    <glyph glyph-name="ring" unicode="&#x2da;" horiz-adv-x="281" 
d="M93 660q0 -20 14.5 -34t32.5 -14q20 0 34 14t14 34t-14.5 33.5t-33.5 13.5q-20 0 -33.5 -13.5t-13.5 -33.5zM40 657q0 43 29 73t74 30q20 0 37.5 -7.5t31 -21t21.5 -31t8 -37.5q0 -45 -29 -74.5t-74 -29.5q-19 0 -37 7.5t-31.5 21t-21.5 31.5t-8 38z" />
    <glyph glyph-name="ogonek" unicode="&#x2db;" horiz-adv-x="277" 
d="M204 0q-13 -9 -26 -20t-23.5 -24t-17.5 -28t-7 -31q0 -23 12 -35.5t32 -12.5q18 0 33.5 5.5t18.5 7.5l17 -40q-7 -6 -28.5 -15.5t-50.5 -9.5q-42 0 -71.5 24t-29.5 62q0 22 8.5 41t22 35t30 29t31.5 22z" />
    <glyph glyph-name="tilde" unicode="&#x2dc;" horiz-adv-x="396" 
d="M49 646q14 27 40.5 45t59.5 18q14 0 28.5 -5t28 -11t26.5 -11t23 -5q20 0 32.5 12.5t19.5 20.5l41 -39q-17 -29 -42 -45.5t-57 -16.5q-15 0 -28.5 5t-26 11.5t-25.5 11.5t-26 5q-20 0 -34 -13t-19 -21z" />
    <glyph glyph-name="hungarumlaut" unicode="&#x2dd;" horiz-adv-x="441" 
d="M54 599l120 155l55 -41l-133 -147zM215 604l118 150l54 -41l-129 -142z" />
    <glyph glyph-name="acutecomb" unicode="&#x301;" horiz-adv-x="293" 
d="M54 732l158 79l27 -61l-167 -59z" />
    <glyph glyph-name="dotaccentcmb" unicode="&#x307;" horiz-adv-x="216" 
d="M54 338q0 24 16 40.5t40 16.5q21 0 37 -15.5t16 -36.5q0 -25 -16.5 -41t-40.5 -16q-21 0 -36.5 15.5t-15.5 36.5z" />
    <glyph glyph-name="ringcomb" unicode="&#x30a;" horiz-adv-x="249" 
d="M97 616q0 -11 8 -19.5t19 -8.5q12 0 19.5 8.5t7.5 19.5t-8 19t-19 8t-19 -8t-8 -19zM54 614q0 30 20 51t52 21q28 0 48.5 -20t20.5 -48q0 -31 -20.5 -52t-52.5 -21q-27 0 -47.5 20t-20.5 49z" />
    <glyph glyph-name="pi" unicode="&#x3c0;" horiz-adv-x="709" 
d="M15 479q11 5 39.5 13t71.5 8h535v-65h-135q-13 -38 -25.5 -92.5t-12.5 -114.5q0 -37 5.5 -69t19 -55.5t35 -37t54.5 -13.5q18 0 32.5 2t19.5 3l12 -57q-5 -2 -28.5 -6.5t-52.5 -4.5q-44 0 -76.5 19t-54 50.5t-32 72.5t-10.5 84q0 69 14 125.5t29 93.5h-209v-78
q0 -84 -11 -149.5t-24 -112.5q-15 -54 -35 -95h-74q18 44 33 99q13 50 22.5 114t9.5 145v77h-41q-36 0 -61 -5.5t-36 -10.5z" />
    <glyph glyph-name="uni0E3F" unicode="&#xe3f;" horiz-adv-x="615" 
d="M334 745l-3 -128q75 -7 120 -44t45 -103q0 -22 -7 -42.5t-18.5 -37t-25.5 -29.5t-29 -21q45 -14 75.5 -53t30.5 -93q0 -74 -48.5 -115t-142.5 -46l3 -129h-73l4 128h-143v586h143l-4 127h73zM196 304v-212h112q59 0 96 23.5t37 71.5q0 50 -31 83.5t-102 33.5h-112z
M196 363h156q25 10 44 39t19 61q0 51 -31 73.5t-89 22.5h-99v-196z" />
    <glyph glyph-name="Wgrave" unicode="&#x1e80;" horiz-adv-x="947" 
d="M923 649l-203 -649h-92l-154 514l-155 -514h-92l-203 649h90l159 -555l163 546h76l162 -546l159 555h90zM567 735l-217 77l32 71l205 -101z" />
    <glyph glyph-name="wgrave" unicode="&#x1e81;" horiz-adv-x="780" 
d="M755 500l-160 -500h-83l-122 379l-123 -379h-83l-160 500h82l121 -411l130 406h66l130 -406l121 411h81zM488 585l-217 77l32 71l206 -101z" />
    <glyph glyph-name="Wacute" unicode="&#x1e82;" horiz-adv-x="947" 
d="M923 649l-203 -649h-92l-154 514l-155 -514h-92l-203 649h90l159 -555l163 546h76l162 -546l159 555h90zM359 782l217 106l31 -72l-227 -81z" />
    <glyph glyph-name="wacute" unicode="&#x1e83;" horiz-adv-x="780" 
d="M755 500l-160 -500h-83l-122 379l-123 -379h-83l-160 500h82l121 -411l130 406h66l130 -406l121 411h81zM271 632l216 106l32 -71l-227 -82z" />
    <glyph glyph-name="Wdieresis" unicode="&#x1e84;" horiz-adv-x="947" 
d="M923 649l-203 -649h-92l-154 514l-155 -514h-92l-203 649h90l159 -555l163 546h76l162 -546l159 555h90zM325 807q0 23 16 39.5t40 16.5q21 0 37 -15.5t16 -36.5q0 -25 -16.5 -41t-40.5 -16q-21 0 -36.5 15.5t-15.5 37.5zM513 807q0 23 16.5 39.5t40.5 16.5
q21 0 36.5 -15.5t15.5 -36.5q0 -25 -16.5 -41t-40.5 -16q-21 0 -36.5 15.5t-15.5 37.5z" />
    <glyph glyph-name="wdieresis" unicode="&#x1e85;" horiz-adv-x="780" 
d="M755 500l-160 -500h-83l-122 379l-123 -379h-83l-160 500h82l121 -411l130 406h66l130 -406l121 411h81zM430 657q0 23 16 39.5t40 16.5q21 0 37 -15.5t16 -36.5q0 -25 -16.5 -41t-40.5 -16q-21 0 -36.5 15.5t-15.5 37.5zM241 657q0 23 16.5 39.5t40.5 16.5
q21 0 36.5 -15.5t15.5 -36.5q0 -25 -16.5 -41t-40.5 -16q-21 0 -36.5 15.5t-15.5 37.5z" />
    <glyph glyph-name="Germandbls" unicode="&#x1e9e;" horiz-adv-x="581" 
d="M244 76q13 -5 42.5 -11.5t64.5 -6.5q52 0 83.5 30.5t31.5 77.5q0 25 -8.5 50t-31 44t-62 28.5t-101.5 3.5l-1 44l150 247h-128q-69 0 -100.5 -40.5t-31.5 -100.5v-442h-79v437q0 46 14 85t41.5 67t68.5 44t94 16h219v-44l-159 -254q35 1 70 -10t63 -34t45 -58t17 -81
q0 -38 -13 -70.5t-38.5 -56.5t-63 -37.5t-85.5 -13.5q-42 0 -75 8t-44 16z" />
    <glyph glyph-name="Ygrave" unicode="&#x1ef2;" horiz-adv-x="537" 
d="M228 250l-213 399h86l169 -324l168 324h84l-213 -399v-250h-81v250zM348 731l-218 78l33 71l205 -101z" />
    <glyph glyph-name="ygrave" unicode="&#x1ef3;" horiz-adv-x="500" 
d="M485 500l-177 -488q-22 -60 -43.5 -101.5t-46 -66.5t-54 -36t-68.5 -11q-29 0 -53.5 7.5t-32.5 12.5l19 60q8 -3 25.5 -8t41.5 -5q44 0 71.5 27.5t51.5 98.5l-209 510h85l164 -423l142 423h84zM321 585l-217 77l32 71l206 -101z" />
    <glyph glyph-name="endash" unicode="&#x2013;" horiz-adv-x="568" 
d="M85 292h398v-64h-398v64z" />
    <glyph glyph-name="emdash" unicode="&#x2014;" horiz-adv-x="867" 
d="M85 292h696v-64h-696v64z" />
    <glyph glyph-name="quoteleft" unicode="&#x2018;" horiz-adv-x="210" 
d="M179 681q-21 -15 -41 -39.5t-21 -60.5q0 -36 16 -61t27 -36l-80 -19q-4 4 -11 13t-14 22.5t-11.5 31.5t-4.5 39q0 29 10 52t25 42t33.5 33.5t36.5 24.5z" />
    <glyph glyph-name="quoteright" unicode="&#x2019;" horiz-adv-x="210" 
d="M22 506q21 16 41 40.5t20 60.5q0 35 -15.5 60.5t-26.5 36.5l80 19q5 -4 11.5 -13t13.5 -22.5t11.5 -31.5t4.5 -39q0 -28 -10 -51.5t-25 -42.5t-33.5 -33t-36.5 -25z" />
    <glyph glyph-name="quotesinglbase" unicode="&#x201a;" horiz-adv-x="203" 
d="M14 -117q21 16 41 40.5t21 60.5q0 35 -16 60.5t-27 36.5l80 19q5 -4 11.5 -13t13.5 -22.5t11.5 -31.5t4.5 -39q0 -29 -10 -52.5t-25 -42t-33.5 -33t-36.5 -24.5z" />
    <glyph glyph-name="quotedblleft" unicode="&#x201c;" horiz-adv-x="363" 
d="M173 689q-20 -15 -41 -41t-22 -63q0 -35 16 -60.5t27 -36.5l-73 -18q-4 4 -11 13t-14 22.5t-11.5 31.5t-4.5 39q0 29 10 52t25 42t33.5 33.5t36.5 24.5zM331 686q-21 -15 -40.5 -39.5t-20.5 -61.5q0 -35 15.5 -60t26.5 -36l-72 -18q-10 8 -25.5 35t-15.5 70q0 29 10 52
t25 41.5t33 32t34 23.5z" />
    <glyph glyph-name="quotedblright" unicode="&#x201d;" horiz-adv-x="363" 
d="M172 503q21 15 42 41.5t22 62.5q0 35 -16 61t-27 37l73 18q5 -4 11.5 -13t13.5 -22.5t11.5 -31.5t4.5 -39q0 -28 -10 -51.5t-25 -42.5t-33.5 -33t-36.5 -25zM15 506q20 16 40 40.5t21 60.5q0 35 -16 60.5t-27 36.5l73 18q10 -8 25.5 -35t15.5 -70q0 -28 -10 -51.5
t-25 -42t-33 -32.5t-34 -24z" />
    <glyph glyph-name="quotedblbase" unicode="&#x201e;" horiz-adv-x="355" 
d="M165 -120q21 15 42 41.5t22 62.5q0 35 -16 61t-27 37l72 18q10 -8 25.5 -35.5t15.5 -70.5q0 -29 -10 -52.5t-25 -42t-33.5 -33t-36.5 -24.5zM7 -117q21 16 41 40.5t21 60.5q0 35 -16 60.5t-27 36.5l73 18q5 -4 11.5 -13t13.5 -22.5t11.5 -31t4.5 -38.5q0 -29 -10 -52.5
t-25 -42t-33 -32t-34 -23.5z" />
    <glyph glyph-name="dagger" unicode="&#x2020;" horiz-adv-x="667" 
d="M381 778l-5 -271l206 3v-72l-207 2l-11 -598h-62l-11 598l-206 -2v72l205 -3l-5 271h96z" />
    <glyph glyph-name="daggerdbl" unicode="&#x2021;" horiz-adv-x="667" 
d="M378 788l-3 -221l207 3v-72l-209 2l-3 -187l3 -184l209 3v-72l-207 2l3 -220h-89l3 220l-207 -2v72l208 -3l4 185l-4 186l-208 -2v72l207 -3l-3 221h89z" />
    <glyph glyph-name="bullet" unicode="&#x2022;" horiz-adv-x="307" 
d="M58 333q0 44 29.5 73.5t74.5 29.5q19 0 36.5 -7.5t30.5 -21t21 -30.5t8 -37q0 -45 -30 -74.5t-74 -29.5q-19 0 -36.5 7.5t-31 21t-21 31t-7.5 37.5z" />
    <glyph glyph-name="ellipsis" unicode="&#x2026;" horiz-adv-x="642" 
d="M54 43q0 24 16 40t40 16q21 0 37 -15.5t16 -36.5q0 -24 -16.5 -40.5t-40.5 -16.5q-21 0 -36.5 15.5t-15.5 37.5zM267 43q0 24 16 40t40 16q21 0 36.5 -15.5t15.5 -36.5q0 -24 -16 -40.5t-40 -16.5q-21 0 -36.5 15.5t-15.5 37.5zM479 43q0 24 16.5 40t40.5 16
q21 0 36.5 -15.5t15.5 -36.5q0 -24 -16.5 -40.5t-39.5 -16.5q-22 0 -37.5 15.5t-15.5 37.5z" />
    <glyph glyph-name="perthousand" unicode="&#x2030;" horiz-adv-x="949" 
d="M754 -10q-34 0 -63 16.5t-44 43.5q-16 -28 -46 -44t-66 -16q-31 0 -56.5 12t-44 32t-29 47t-10.5 57q0 33 10.5 61t29.5 48.5t46.5 32.5t60.5 12t62 -16t44 -44q16 28 46 44t66 16q31 0 57 -11.5t44.5 -32t28.5 -47.5t10 -57q0 -32 -10.5 -60t-29.5 -49t-46 -33t-60 -12z
M188 357q-31 0 -57 11.5t-44 31.5t-28 47t-10 58q0 68 38.5 111t106.5 43q32 0 57.5 -11.5t43.5 -31.5t28 -47t10 -58q0 -68 -38 -111t-107 -43zM621 623l-462 -633l-52 37l462 633zM542 48q35 0 53.5 26t18.5 64q0 42 -19.5 69t-59.5 27q-35 0 -53.5 -26t-18.5 -64
q0 -42 19.5 -69t59.5 -27zM760 48q35 0 54 26t19 64q0 42 -19.5 69t-59.5 27q-35 0 -53.5 -26t-18.5 -64q0 -42 19.5 -69t58.5 -27zM194 417q35 0 53 25.5t18 62.5q0 40 -18.5 67t-58.5 27q-35 0 -53 -25.5t-18 -62.5q0 -40 19 -67t58 -27z" />
    <glyph glyph-name="guilsinglleft" unicode="&#x2039;" horiz-adv-x="361" 
d="M298 435q-29 -45 -69.5 -93t-85.5 -92q45 -45 85.5 -92.5t69.5 -93.5l-58 -42q-40 57 -89.5 118t-96.5 110q48 49 97 110t89 118z" />
    <glyph glyph-name="guilsinglright" unicode="&#x203a;" horiz-adv-x="361" 
d="M54 64q28 46 68.5 93.5t85.5 92.5q-45 45 -85.5 92.5t-68.5 93.5l57 42q40 -57 89.5 -118t97.5 -110q-48 -50 -97.5 -110.5t-89.5 -117.5z" />
    <glyph glyph-name="interrobang" unicode="&#x203d;" horiz-adv-x="391" 
d="M196 500l-6 -134l14 12q24 23 44.5 51.5t20.5 60.5q0 53 -33 76t-79 23t-73.5 -11t-38.5 -16l-25 56q17 11 54.5 26t91.5 15q38 0 71.5 -11t59 -31.5t40.5 -49.5t15 -65q0 -28 -8.5 -51t-21.5 -42.5t-29.5 -36.5t-33.5 -33q-23 -21 -43 -40.5t-30 -42.5l-2 -70l-67 -5
q-3 8 -5 22t-2 25q0 33 16 63l-7 209h77zM105 43q0 24 16.5 40t40.5 16q21 0 36.5 -15.5t15.5 -36.5q0 -24 -16.5 -40.5t-39.5 -16.5q-22 0 -37.5 15.5t-15.5 37.5z" />
    <glyph glyph-name="fraction" unicode="&#x2044;" horiz-adv-x="543" 
d="M529 623l-463 -633l-51 37l462 633z" />
    <glyph glyph-name="zerosuperior" unicode="&#x2070;" horiz-adv-x="343" 
d="M168 357q-31 0 -57 11.5t-44 31.5t-28 47t-10 58q0 68 38.5 111t107.5 43q32 0 57.5 -11.5t43.5 -31.5t28 -47t10 -58q0 -68 -38.5 -111t-107.5 -43zM175 417q35 0 53 25.5t18 62.5q0 40 -18.5 67t-59.5 27q-34 0 -52 -25.5t-18 -62.5q0 -40 18.5 -67t58.5 -27z" />
    <glyph glyph-name="foursuperior" unicode="&#x2074;" horiz-adv-x="282" 
d="M215 649v-173h45v-53h-45v-56h-60v56h-135v50l135 176h60zM155 476v89l-69 -89h69z" />
    <glyph glyph-name="franc" unicode="&#x20a3;" horiz-adv-x="585" 
d="M502 583h-276v-223h256v-66h-256v-115h147v-55h-147v-124h-80v124h-87v55h87v470h356v-66z" />
    <glyph glyph-name="lira" unicode="&#x20a4;" horiz-adv-x="604" 
d="M97 52q8 5 21.5 9.5t28.5 7.5q14 42 19 82.5t5 75.5v2h-82v63h326v-63h-161q0 -35 -6.5 -75.5t-20.5 -79.5q49 -2 87 -10t77 -8q34 -1 52 18t30 48l52 -21q-10 -50 -47.5 -80.5t-91.5 -30.5q-45 0 -89 10t-94 10h-13q-4 -5 -9 -9q-4 -4 -9 -8.5t-10 -7.5l-52 14zM84 421
h66q-1 11 -1.5 21.5t-0.5 21.5q0 44 14 80t39.5 61.5t61 39.5t78.5 14q48 0 84.5 -13t53.5 -23l-26 -59q-23 8 -50 17t-65 9q-50 0 -78.5 -32.5t-28.5 -86.5q0 -26 3 -50h176v-63h-326v63z" />
    <glyph glyph-name="won" unicode="&#x20a9;" horiz-adv-x="1064" 
d="M54 444h122l-54 205h85l53 -205h181l53 196h76l54 -196h180l54 205h86l-55 -205h122v-46h-135l-17 -65h113v-45h-125l-77 -288h-103l-135 505l-134 -505h-104l-76 288h-140v45h128l-18 65h-134v46zM289 333h122l18 65h-158zM653 333h122l17 65h-156zM716 104l48 184h-98z
M349 104l49 184h-98z" />
    <glyph glyph-name="Euro" unicode="&#x20ac;" horiz-adv-x="681" 
d="M81 292h397v-63h-252q23 -81 83.5 -125t150.5 -44q35 0 63.5 5.5t66.5 19.5l22 -58q-30 -17 -73.5 -27t-88.5 -10q-65 0 -117.5 17t-91.5 48.5t-64.5 75.5t-37.5 98h-58v63zM81 421h59q12 53 38.5 96.5t64.5 75t88 49t109 17.5q51 0 91 -13t58 -23l-25 -59q-23 8 -56 17
t-71 9q-76 0 -134 -42.5t-79 -126.5h254v-63h-397v63z" />
    <glyph glyph-name="uni20B1" unicode="&#x20b1;" horiz-adv-x="702" 
d="M78 526h74v123h188q81 0 134.5 -32t73.5 -91h85v-46h-75q1 -5 1.5 -11t0.5 -12q0 -8 -0.5 -16t-1.5 -16h75v-45h-86q-21 -60 -75.5 -92.5t-136.5 -32.5h-104v-255h-79v380h-74v45h74v55h-74v46zM476 450q0 17 -3 30h-242v-55h243q1 6 1.5 12t0.5 13zM340 319
q42 0 72.5 16t46.5 45h-228v-61h109zM231 526h227q-32 60 -123 60h-104v-60z" />
    <glyph glyph-name="uni20B9" unicode="&#x20b9;" horiz-adv-x="599" 
d="M103 492h220q-8 45 -46.5 69.5t-105.5 24.5h-64v63h414v-55h-189q29 -19 48 -44.5t25 -57.5h101v-55h-101q-7 -42 -34 -71t-59.5 -47t-64.5 -26t-50 -8l243 -285h-92l-245 286v44q89 0 149 24t71 83h-220v55z" />
    <glyph glyph-name="uni20BA" unicode="&#x20ba;" horiz-adv-x="544" 
d="M56 358l111 74v217h79v-164l137 91l25 -37l-162 -107v-70l137 92l25 -37l-162 -108v-240q38 0 68.5 13t52.5 36.5t33 55.5t9 69l74 5q2 -54 -15 -99.5t-49 -78.5t-76 -51.5t-97 -18.5h-79v256l-87 -57l-24 37l111 73v69l-87 -57z" />
    <glyph glyph-name="afii61289" unicode="&#x2113;" horiz-adv-x="376" 
d="M130 237v-75q0 -108 86 -108q30 0 56.5 10t42.5 19l22 -54q-19 -11 -49.5 -25t-78.5 -14q-66 0 -108 40.5t-42 122.5v324q0 82 33.5 132t104.5 50q63 0 94.5 -42t31.5 -108q0 -44 -14.5 -81.5t-38.5 -69.5t-56 -59.5t-68 -51.5zM130 314q24 18 46.5 37.5t39.5 43.5t27 53
t10 64q0 32 -13 58.5t-43 26.5q-37 0 -52 -32t-15 -84v-167z" />
    <glyph glyph-name="trademark" unicode="&#x2122;" horiz-adv-x="382" 
d="M175 659h56l33 -107l32 107h57v-159h-37v115l-39 -115h-27l-39 115v-115h-36v159zM29 659h124v-33h-44v-126h-35v126h-45v33z" />
    <glyph glyph-name="Omega" unicode="&#x2126;" horiz-adv-x="687" 
d="M641 0h-229v61q18 12 42.5 35.5t46.5 57.5t37 78t15 97q0 62 -16.5 111t-45.5 83t-68 51.5t-83 17.5q-41 0 -78 -16.5t-65.5 -48t-45.5 -78.5t-17 -109q0 -58 15 -104t37 -81t46.5 -58.5t42.5 -35.5v-61h-229v66h133q-25 20 -48.5 47t-41.5 61t-28.5 73.5t-10.5 85.5
q0 71 21 130.5t60 103t94 68t122 24.5t121 -24t91.5 -66.5t57.5 -102t20 -130.5q0 -46 -10.5 -86.5t-28.5 -74.5t-41 -61.5t-48 -47.5h132v-66z" />
    <glyph glyph-name="estimated" unicode="&#x212e;" horiz-adv-x="899" 
d="M219 309q-5 0 -5 -5v-172q0 -12 9 -21q42 -44 101.5 -65t125.5 -21q73 0 134 24.5t106 71.5h54q-50 -59 -125.5 -95t-169.5 -36q-78 0 -146 26t-118 71.5t-78.5 106.5t-28.5 130t29.5 130t79.5 106.5t118 72t144 26.5q77 0 144.5 -27t118 -73.5t80 -108.5t29.5 -131v-10
h-602zM685 518q0 13 -10 22q-42 42 -100.5 63t-124.5 21q-67 0 -125.5 -20.5t-100.5 -63.5q-10 -10 -10 -24v-169q0 -6 5 -6h462q4 0 4 6v171z" />
    <glyph glyph-name="partialdiff" unicode="&#x2202;" horiz-adv-x="582" 
d="M268 589q-44 0 -76 -9t-43 -14l-19 59q5 3 17.5 8.5t31 11.5t41.5 10t49 4q72 0 121 -26t79 -69.5t43 -101t13 -120.5q0 -67 -13.5 -130.5t-44.5 -113t-81 -79t-123 -29.5q-42 0 -78.5 11.5t-63.5 34t-42.5 57t-15.5 79.5q0 50 16.5 93t47.5 74t74.5 48.5t97.5 17.5
q25 0 48 -5.5t41.5 -13.5t33 -17t23.5 -17q0 53 -11 97t-33 75t-55 48t-78 17zM262 59q78 0 123 59.5t55 159.5q-7 9 -20.5 19.5t-32 19t-41 14t-47.5 5.5q-69 0 -111 -45t-42 -118q0 -51 29.5 -82.5t86.5 -31.5z" />
    <glyph glyph-name="Delta" unicode="&#x2206;" horiz-adv-x="620" 
d="M15 0v53l257 597h75l258 -597v-53h-590zM104 66h411l-205 494z" />
    <glyph glyph-name="product" unicode="&#x220f;" horiz-adv-x="693" 
d="M528 659h-363v-735h-80v801h523v-801h-80v735z" />
    <glyph glyph-name="summation" unicode="&#x2211;" horiz-adv-x="580" 
d="M517 659h-367l205 -334l-214 -335h385v-66h-472v61l219 340l-210 339v61h454v-66z" />
    <glyph glyph-name="minus" unicode="&#x2212;" horiz-adv-x="529" 
d="M93 357h343v-65h-343v65z" />
    <glyph glyph-name="uni2215" unicode="&#x2215;" horiz-adv-x="543" 
d="M529 623l-463 -633l-51 37l462 633z" />
    <glyph glyph-name="bulletoperator" unicode="&#x2219;" horiz-adv-x="216" 
d="M54 248q0 24 16 40t40 16q21 0 37 -15.5t16 -36.5q0 -24 -16.5 -40.5t-40.5 -16.5q-21 0 -36.5 15.5t-15.5 37.5z" />
    <glyph glyph-name="radical" unicode="&#x221a;" horiz-adv-x="664" 
d="M10 422h182l138 -324l242 627h82l-287 -725h-72l-159 357h-126v65z" />
    <glyph glyph-name="infinity" unicode="&#x221e;" horiz-adv-x="948" 
d="M474 282q-24 -24 -48 -45.5t-50.5 -37.5t-56 -25.5t-64.5 -9.5q-39 0 -71.5 11t-56 32t-36.5 51t-13 67t13 67t36.5 51t56 32t71.5 11q35 0 64.5 -9.5t56 -26t50.5 -38t48 -45.5q24 24 48 45.5t50.5 38t55.5 26t64 9.5q39 0 71.5 -11t56.5 -32t37 -51t13 -67t-13 -67
t-37 -51t-56.5 -32t-71.5 -11q-35 0 -64 9.5t-55.5 25.5t-50.5 37.5t-48 45.5zM519 325q47 -46 86 -73t82 -27q52 0 83 27t31 73q0 45 -31 72.5t-83 27.5q-43 0 -82 -27.5t-86 -72.5zM260 225q44 0 83 27t86 73q-47 45 -86 72.5t-83 27.5q-52 0 -83 -27.5t-31 -72.5
q0 -46 31 -73t83 -27z" />
    <glyph glyph-name="integral" unicode="&#x222b;" horiz-adv-x="383" 
d="M141 571q-2 36 9 66.5t32 52t50.5 33.5t63.5 12q25 0 45.5 -5t32.5 -10l-16 -62q-11 4 -29 7t-36 3q-37 0 -57.5 -27t-17.5 -79l24 -483q2 -37 -9 -67t-32 -51.5t-50 -33.5t-64 -12q-24 0 -45 5t-32 9l15 62q11 -3 29 -6.5t36 -3.5q37 0 57.5 27t18.5 79z" />
    <glyph glyph-name="approxequal" unicode="&#x2248;" horiz-adv-x="528" 
d="M73 250q29 27 58.5 40.5t67.5 13.5q20 0 37 -5.5t33 -12t31.5 -12t32.5 -5.5q31 0 55.5 11t40.5 19l26 -46q-29 -25 -60.5 -37t-70.5 -12q-19 0 -36.5 5.5t-33.5 12t-31.5 12t-32.5 5.5q-29 0 -52.5 -13t-38.5 -22zM73 396q27 26 56 39t65 13q20 0 38 -5.5t34.5 -12
t32.5 -12t34 -5.5q28 0 50 12t36 21l26 -47q-27 -26 -55.5 -38.5t-65.5 -12.5q-20 0 -38 5.5t-34.5 12t-32.5 12t-34 5.5q-28 0 -50 -12t-36 -21z" />
    <glyph glyph-name="notequal" unicode="&#x2260;" horiz-adv-x="598" 
d="M93 442h242l88 151l48 -28l-72 -123h106v-65h-143l-61 -105h204v-64h-242l-88 -152l-48 28l72 124h-106v64h144l61 105h-205v65z" />
    <glyph glyph-name="lessequal" unicode="&#x2264;" horiz-adv-x="490" 
d="M392 566l-221 -167l221 -167l-43 -51l-286 218l286 218zM63 94h334v-65h-334v65z" />
    <glyph glyph-name="greaterequal" unicode="&#x2265;" horiz-adv-x="490" 
d="M98 232l220 167l-220 167l43 51l285 -218l-285 -218zM93 94h333v-65h-333v65z" />
    <glyph glyph-name="lozenge" unicode="&#x25ca;" horiz-adv-x="616" 
d="M339 0h-62l-245 325l245 325h62l245 -325zM308 577l-187 -252l187 -252l187 252z" />
    <glyph glyph-name="commaaccent" unicode="&#xf6c3;" horiz-adv-x="211" 
d="M126 -48q7 -5 21 -24.5t14 -49.5q0 -26 -11 -45t-29.5 -32t-42 -20.5t-48.5 -9.5l-15 42q30 6 53 21.5t23 41.5t-12 41.5t-17 19.5z" />
    <glyph glyph-name="zerooldstyle" unicode="&#xf730;" horiz-adv-x="619" 
d="M312 59q36 0 65.5 14t51 39t33.5 59t12 74q0 41 -11.5 76.5t-33.5 62.5t-53 42.5t-70 15.5q-36 0 -65.5 -14.5t-51 -40t-33 -60t-11.5 -75.5q0 -40 11.5 -75t33 -61t52.5 -41.5t70 -15.5zM306 -10q-59 0 -104.5 21t-77 56t-47.5 81t-16 97t17 99t49.5 84.5t79 59
t105.5 22.5t104.5 -21t77 -56.5t48 -82.5t16.5 -98t-17.5 -98t-50 -83.5t-79 -58.5t-105.5 -22z" />
    <glyph glyph-name="oneoldstyle" unicode="&#xf731;" horiz-adv-x="404" 
d="M168 66v370q-32 -3 -65.5 -5t-66.5 -4l-7 62q107 8 211 21h8v-444l117 -2v-64h-331v64z" />
    <glyph glyph-name="twooldstyle" unicode="&#xf732;" horiz-adv-x="483" 
d="M56 57q63 53 112.5 92.5t83.5 71.5t52 59.5t18 56.5q0 103 -107 103q-20 0 -40 -4.5t-36.5 -10t-28 -11t-15.5 -7.5l-25 55q8 5 23 13t35.5 16t45.5 13.5t51 5.5q83 0 132 -45.5t49 -119.5q0 -39 -18.5 -73.5t-50 -67.5t-74 -66.5t-89.5 -71.5h260v-66h-378v57z" />
    <glyph glyph-name="threeoldstyle" unicode="&#xf733;" horiz-adv-x="493" 
d="M325 328q0 54 -33.5 83t-99.5 29q-20 0 -40 -3.5t-36.5 -8.5t-28.5 -9.5t-17 -7.5l-25 55q5 3 19 10.5t34.5 15t46.5 13t56 5.5q50 0 87.5 -13.5t63.5 -37t39 -55.5t13 -69q0 -48 -27.5 -85.5t-65.5 -59.5q48 -21 81 -61t33 -98q0 -86 -61.5 -138t-171.5 -52
q-52 0 -92 13.5t-61 24.5l23 59q15 -6 49 -17t90 -11q28 0 54 7.5t46 21.5t32 35.5t12 48.5q0 62 -39.5 94t-113.5 32h-47v66h97q14 6 28.5 15.5t26.5 23.5t20 32.5t8 41.5z" />
    <glyph glyph-name="fouroldstyle" unicode="&#xf734;" horiz-adv-x="562" 
d="M342 500h83v-434h100v-66h-100v-149h-79v149h-302v63zM346 66v325l-218 -325h218z" />
    <glyph glyph-name="fiveoldstyle" unicode="&#xf735;" horiz-adv-x="485" 
d="M354 43q0 35 -12 62t-33 45.5t-50 28t-63 9.5q-48 0 -78 -5t-50 -10l10 327h330v-66h-253l-6 -182q8 2 24.5 3.5t30.5 1.5q109 0 171 -55t61 -151q0 -46 -16 -84.5t-45.5 -66.5t-73 -44t-99.5 -16q-28 0 -54 5.5t-46.5 12.5t-35 14.5t-20.5 10.5l23 59q5 -2 17.5 -7.5
t31 -11t42 -9.5t50.5 -4q69 0 106.5 38t37.5 95z" />
    <glyph glyph-name="sixoldstyle" unicode="&#xf736;" horiz-adv-x="565" 
d="M351 589q-51 0 -89.5 -23.5t-64 -60t-39 -81.5t-14.5 -87q9 8 24.5 17.5t35 17.5t43 13.5t48.5 5.5q47 0 86 -13t67 -38.5t43.5 -62t15.5 -83.5q0 -45 -14.5 -82.5t-42.5 -64.5t-69 -42t-93 -15q-114 0 -170.5 77.5t-56.5 224.5q0 75 17.5 141.5t53.5 117t92.5 79.5
t134.5 29q42 0 70 -9.5t36 -13.5l-16 -61q-8 3 -35 8.5t-63 5.5zM295 59q57 0 92 32.5t35 94.5q0 38 -11 64t-29.5 42t-42.5 23t-51 7q-50 0 -88 -19.5t-54 -39.5q0 -94 36 -149t113 -55z" />
    <glyph glyph-name="sevenoldstyle" unicode="&#xf737;" horiz-adv-x="509" 
d="M453 436l-242 -586h-82l243 584h-257l-5 -107h-54l-7 173h404v-64z" />
    <glyph glyph-name="eightoldstyle" unicode="&#xf738;" horiz-adv-x="543" 
d="M271 -10q-45 0 -84 10.5t-68.5 31t-46 51t-16.5 69.5q0 57 36.5 97.5t104.5 77.5l-12 6q-18 9 -38.5 22.5t-37 33t-27.5 43.5t-11 54q0 37 16 68.5t43 55t63.5 36.5t77.5 13q44 0 81 -12t63 -33.5t40.5 -52.5t14.5 -70q0 -28 -11 -51t-29.5 -42t-42.5 -34t-50 -29l21 -10
q53 -25 90 -65.5t37 -98.5q0 -36 -16.5 -67.5t-45.5 -54.5t-68 -36t-84 -13zM271 58q25 0 49 6.5t42.5 19.5t30 31t11.5 42q0 44 -26 69.5t-74 48.5l-45 22q-70 -37 -96 -71t-26 -69q0 -25 11.5 -44t30.5 -31t43 -18t49 -6zM389 487q0 47 -33.5 76t-84.5 29t-85 -28.5
t-34 -71.5q0 -40 22 -65t76 -51l23 -11q59 31 87.5 59t28.5 63z" />
    <glyph glyph-name="nineoldstyle" unicode="&#xf739;" horiz-adv-x="565" 
d="M224 -90q49 0 85.5 18t60.5 51t36.5 80t13.5 104q-9 -8 -24.5 -17.5t-35 -17.5t-42.5 -13.5t-48 -5.5q-98 0 -154.5 52.5t-56.5 143.5q0 45 14.5 82.5t42.5 65t69 42.5t93 15q113 0 169.5 -78t56.5 -224q0 -86 -16.5 -154.5t-51.5 -115.5t-89.5 -72t-130.5 -25
q-42 0 -77 9t-49 14l16 61q14 -5 44.5 -10t73.5 -5zM270 441q-57 0 -92 -33t-35 -95q0 -37 11 -63t30 -42t43 -23t51 -7q50 0 87.5 19.5t54.5 39.5q0 94 -36.5 149t-113.5 55z" />
    <glyph glyph-name="s_t" unicode="&#xfb06;" horiz-adv-x="751" 
d="M559 500h149v-65h-148v-288q0 -48 19.5 -69t64.5 -21q14 0 32.5 3t30.5 7l15 -62q-18 -6 -45 -10.5t-48 -4.5q-72 0 -110.5 37.5t-38.5 107.5v526h-68q-50 0 -74 -22t-24 -61q0 -43 21.5 -75.5t58.5 -64.5l-55 -48q-12 8 -22.5 18t-18.5 20q-17 5 -38 8.5t-45 3.5
q-42 0 -68 -17t-26 -50q0 -27 18 -46t71 -40l43 -17q57 -23 87 -56t30 -87q0 -64 -44.5 -100.5t-130.5 -36.5q-53 0 -91.5 11.5t-64.5 25.5l22 64q20 -10 55 -20.5t78 -10.5q45 0 72 14.5t27 49.5q0 32 -24 51t-75 39l-42 16q-51 20 -79 52.5t-28 85.5q0 34 14 60.5
t37.5 44.5t54 27.5t64.5 9.5q23 0 44 -3q-8 14 -12.5 32t-4.5 41q0 28 10.5 53.5t32 45.5t53.5 32t74 12h147v-223z" />
    <glyph glyph-name="Delta.smcp" horiz-adv-x="521" 
d="M15 0v42l203 468h85l204 -468v-42h-492zM105 63h312l-156 376z" />
    <glyph glyph-name="Euro.smcp" horiz-adv-x="578" 
d="M66 219h343v-60h-193q22 -51 67.5 -77.5t110.5 -26.5q26 0 50.5 5t56.5 16l23 -55q-27 -14 -65 -22.5t-74 -8.5q-105 0 -170 46t-88 123h-61v60zM66 340h62q24 77 88 123.5t161 46.5q32 0 68 -9t68 -23l-26 -55q-23 8 -51.5 15t-60.5 7q-56 0 -99 -26.5t-63 -78.5h196
v-60h-343v60z" />
    <glyph glyph-name="Omega.smcp" horiz-adv-x="601" 
d="M545 0h-201v60q17 9 36.5 26.5t37 43t29 58t11.5 71.5q0 43 -12 77t-33.5 57.5t-51 36t-63.5 12.5q-67 0 -111 -45t-44 -129q0 -42 11.5 -76.5t29 -61t37.5 -44t36 -26.5v-60h-201v62h104q-42 32 -71.5 82t-29.5 118q0 53 18.5 98t51 78.5t77.5 52.5t97 19
q53 0 96.5 -18.5t75.5 -51t49.5 -77.5t17.5 -98q0 -69 -29.5 -120t-71.5 -83h104v-62z" />
    <glyph glyph-name="Q.alt" horiz-adv-x="689" 
d="M342 -10q-68 0 -122 23t-91.5 65.5t-57.5 104.5t-20 140q0 79 20.5 141t58.5 105.5t93.5 66.5t124.5 23q68 0 121.5 -23t91 -65.5t57.5 -104.5t20 -140q0 -94 -28.5 -164.5t-82.5 -112.5l139 -137l-56 -53l-144 154q-27 -11 -58 -17t-66 -6zM348 58q97 0 151.5 69
t54.5 192q0 129 -56 201t-157 72q-97 0 -151.5 -69t-54.5 -193q0 -128 56.5 -200t156.5 -72z" />
    <glyph glyph-name="afii61289.smcp" horiz-adv-x="366" 
d="M318 375q0 -65 -48.5 -114t-139.5 -96v-13q0 -98 76 -98q31 0 57 10t43 19l21 -54q-18 -11 -49 -25t-79 -14q-61 0 -100.5 38t-39.5 116v193q0 78 32.5 125.5t101.5 47.5q63 0 94 -37t31 -98zM130 231q24 12 45 27.5t37.5 33.5t26 39.5t9.5 45.5q0 29 -13 50t-42 21
q-35 0 -49 -29.5t-14 -77.5v-110z" />
    <glyph glyph-name="approxequal.smcp" horiz-adv-x="528" 
d="M73 174q29 27 58.5 40.5t67.5 13.5q20 0 37 -5.5t33 -12t31.5 -12t32.5 -5.5q31 0 55.5 11.5t40.5 19.5l26 -47q-29 -24 -60.5 -36.5t-70.5 -12.5q-19 0 -36.5 5.5t-33.5 12t-31.5 12t-32.5 5.5q-29 0 -52.5 -12.5t-38.5 -22.5zM73 321q27 26 56 38.5t65 12.5
q20 0 38 -5.5t34.5 -12t32.5 -12t34 -5.5q28 0 50 12t36 21l26 -46q-27 -26 -55.5 -39t-65.5 -13q-20 0 -38 5.5t-34.5 12t-32.5 12t-34 5.5q-28 0 -50 -12t-36 -21z" />
    <glyph glyph-name="braceleft.smcp" horiz-adv-x="341" 
d="M151 592q0 -28 15.5 -53.5t34 -51.5t34 -54.5t15.5 -62.5q0 -42 -25.5 -74t-62.5 -46q37 -14 62.5 -45t25.5 -66q0 -37 -15.5 -67t-34 -56.5t-34 -50.5t-15.5 -49q0 -30 21 -50t57 -20q16 0 31 2.5t28 6.5l14 -61q-11 -5 -32.5 -9t-48.5 -4q-31 0 -57 10t-45 27.5
t-29.5 41.5t-10.5 51q0 34 15 63t33.5 55t33.5 50.5t15 50.5q0 34 -25.5 60.5t-80.5 26.5h-11v66h16q26 0 44.5 7.5t31.5 18.5t19 25t6 27q0 30 -15 56t-33.5 52t-33.5 53.5t-15 58.5q0 61 41 99.5t109 38.5q21 0 41.5 -4t31.5 -9l-14 -61q-13 4 -29 6.5t-38 2.5
q-30 0 -50 -19t-20 -43z" />
    <glyph glyph-name="braceright.smcp" horiz-adv-x="341" 
d="M190 -92q0 28 -15.5 53.5t-33.5 52t-33.5 55t-15.5 62.5q0 42 25 74t63 46q-38 14 -63 45t-25 66q0 38 15.5 67.5t33.5 55.5t33.5 50t15.5 49q0 31 -20.5 50.5t-56.5 19.5q-16 0 -31 -2.5t-28 -5.5l-15 61q12 4 33 8t49 4q31 0 57 -10t45 -27.5t29.5 -41t10.5 -51.5
q0 -34 -15 -62.5t-33.5 -54.5t-33.5 -50.5t-15 -51.5q0 -33 25.5 -59.5t79.5 -26.5h12v-66h-16q-25 0 -44 -7.5t-32 -18.5t-19 -25t-6 -28q0 -30 15 -56t33.5 -52t33.5 -53.5t15 -58.5q0 -61 -41 -99.5t-109 -38.5q-22 0 -42 4.5t-32 8.5l15 61q13 -3 29 -6t38 -3
q30 0 49.5 19t19.5 43z" />
    <glyph glyph-name="bracketleft.smcp" horiz-adv-x="292" 
d="M273 -206l-197 -3v918h197v-62l-121 -2v-788h121v-63z" />
    <glyph glyph-name="bracketright.smcp" horiz-adv-x="292" 
d="M20 706l197 3v-918h-197v62l120 2v788h-120v63z" />
    <glyph glyph-name="c_b" horiz-adv-x="1019" 
d="M130 253q0 -91 44.5 -142t123.5 -51q54 0 107 22l21 -59q-26 -14 -63.5 -23.5t-74.5 -9.5q-54 0 -98.5 18.5t-76.5 52t-49.5 80.5t-17.5 104q0 59 18 108t50.5 84t78 54t100.5 19q7 0 11 -1q-15 29 -15 71q0 28 10.5 53.5t32 45.5t53 32t73.5 12h162v-244q61 31 122 31
q52 0 94.5 -18.5t72.5 -52t46.5 -81t16.5 -104.5q0 -125 -66.5 -194.5t-184.5 -69.5q-21 0 -46 4t-49.5 11.5t-46.5 17t-38 20.5v618h-83q-50 0 -73.5 -22t-23.5 -61q0 -43 21.5 -75.5t57.5 -64.5l-54 -48q-15 10 -27.5 22.5t-20.5 23.5q-11 2 -22.5 3t-24.5 1
q-75 0 -118 -50t-43 -137zM889 246q0 44 -11.5 79.5t-32.5 61t-50.5 39.5t-65.5 14q-58 0 -109 -27v-332q23 -11 50 -16t54 -5q81 0 123 47.5t42 138.5z" />
    <glyph glyph-name="c_h" horiz-adv-x="1017" 
d="M130 253q0 -91 44.5 -142t123.5 -51q54 0 107 22l21 -59q-26 -14 -63.5 -23.5t-74.5 -9.5q-54 0 -98.5 18.5t-76.5 52t-49.5 80.5t-17.5 104q0 59 18 108t50.5 84t78 54t100.5 19q7 0 11 -1q-15 29 -15 71q0 28 10.5 53.5t32 45.5t53 32t73.5 12h162v-279q38 32 80 49
t82 17q77 0 116.5 -46t39.5 -135v-329h-79v317q0 123 -101 123q-32 0 -71 -17.5t-67 -43.5v-379h-79v661h-83q-50 0 -73.5 -22t-23.5 -61q0 -43 21.5 -75.5t57.5 -64.5l-54 -48q-15 10 -27.5 22.5t-20.5 23.5q-11 2 -22.5 3t-24.5 1q-75 0 -118 -50t-43 -137z" />
    <glyph glyph-name="c_k" horiz-adv-x="969" 
d="M130 253q0 -91 44.5 -142t123.5 -51q54 0 107 22l21 -59q-26 -14 -63.5 -23.5t-74.5 -9.5q-54 0 -98.5 18.5t-76.5 52t-49.5 80.5t-17.5 104q0 59 18 108t50.5 84t78 54t100.5 19q7 0 11 -1q-15 29 -15 71q0 28 10.5 53.5t32 45.5t53 32t73.5 12h162v-492l209 269h91
l-163 -209l182 -291h-90l-149 240l-80 -100v-140h-79v661h-83q-50 0 -73.5 -22t-23.5 -61q0 -43 21.5 -75.5t57.5 -64.5l-54 -48q-15 10 -27.5 22.5t-20.5 23.5q-11 2 -22.5 3t-24.5 1q-75 0 -118 -50t-43 -137z" />
    <glyph glyph-name="c_l" horiz-adv-x="705" 
d="M130 253q0 -91 44.5 -142t123.5 -51q54 0 107 22l21 -59q-26 -14 -63.5 -23.5t-74.5 -9.5q-54 0 -98.5 18.5t-76.5 52t-49.5 80.5t-17.5 104q0 59 18 108t50.5 84t78 54t100.5 19q7 0 11 -1q-15 29 -15 71q0 28 10.5 53.5t32 45.5t53 32t73.5 12h162v-723h-79v661h-83
q-50 0 -73.5 -22t-23.5 -61q0 -43 21.5 -75.5t57.5 -64.5l-54 -48q-15 10 -27.5 22.5t-20.5 23.5q-11 2 -22.5 3t-24.5 1q-75 0 -118 -50t-43 -137z" />
    <glyph glyph-name="c_t" horiz-adv-x="812" 
d="M130 253q0 -91 44.5 -142t123.5 -51q54 0 107 22l21 -59q-26 -14 -63.5 -23.5t-74.5 -9.5q-54 0 -98.5 18.5t-76.5 52t-49.5 80.5t-17.5 104q0 59 18 108t50.5 84t78 54t100.5 19q7 0 11 -1q-15 29 -15 71q0 28 10.5 53.5t32 45.5t53 32t73.5 12h162l-1 -1v-222h149v-65
h-148v-288q0 -48 20 -69t64 -21q14 0 32.5 3t31.5 7l15 -62q-18 -6 -45 -10.5t-48 -4.5q-72 0 -110.5 37.5t-38.5 107.5v526h-83q-50 0 -73.5 -22t-23.5 -61q0 -43 21.5 -75.5t57.5 -64.5l-54 -48q-15 10 -27.5 22.5t-20.5 23.5q-11 2 -22.5 3t-24.5 1q-75 0 -118 -50
t-43 -137z" />
    <glyph glyph-name="cent.smcp" horiz-adv-x="546" 
d="M363 638l-4 -130q28 -2 57 -10t55 -20l-26 -55q-22 8 -51 15t-61 7q-37 0 -69.5 -12t-56.5 -36t-37.5 -60t-13.5 -83q0 -95 52.5 -147t143.5 -52q26 0 51 5t57 16l23 -55q-25 -12 -58 -20t-66 -10l4 -127h-73l3 130q-54 7 -95 28.5t-69 54.5t-42 77t-14 95t15 95.5
t43.5 78.5t69.5 56t92 28l-3 131h73z" />
    <glyph glyph-name="currency.smcp" horiz-adv-x="710" 
d="M563 -2l-94 81q-24 -14 -52.5 -22t-61.5 -8t-62 8t-53 22l-93 -81l-42 34l79 99q-36 52 -36 119q0 65 36 117l-79 99l42 35l94 -82q23 14 52 22t62 8t61.5 -8t52.5 -22l94 82l42 -35l-79 -99q36 -52 36 -117q0 -67 -36 -119l79 -99zM355 115q27 0 50 10t40.5 27.5
t27 42.5t9.5 55q0 29 -9.5 53.5t-27 42t-40.5 27.5t-50 10t-50 -10t-40.5 -27.5t-27 -42t-9.5 -53.5q0 -30 9.5 -55t27 -42.5t40.5 -27.5t50 -10z" />
    <glyph glyph-name="divide.smcp" horiz-adv-x="558" 
d="M93 282h372v-65h-372v65zM225 83q0 24 16 40t40 16q21 0 36.5 -15.5t15.5 -36.5q0 -24 -16 -40.5t-40 -16.5q-21 0 -36.5 15.5t-15.5 37.5zM225 414q0 23 16 39.5t40 16.5q21 0 36.5 -15.5t15.5 -36.5q0 -25 -16 -41t-40 -16q-21 0 -36.5 15.5t-15.5 37.5z" />
    <glyph glyph-name="dollar.smcp" horiz-adv-x="485" 
d="M290 641l-4 -133q60 -5 113 -28l-18 -60q-23 9 -58.5 17t-69.5 8q-45 0 -73 -19t-28 -51t21.5 -50.5t76.5 -37.5l46 -16q124 -44 124 -142q0 -56 -36 -91.5t-104 -44.5l4 -134h-74l4 132q-45 2 -81 12.5t-62 22.5l20 59q29 -12 66 -21t77 -9q50 0 79 19t29 51
q0 31 -24.5 50t-83.5 39l-45 15q-50 17 -82 51t-32 89q0 29 11.5 53t31.5 41.5t46.5 28.5t56.5 15l-5 134h74z" />
    <glyph glyph-name="eight.fitted" horiz-adv-x="576" 
d="M287 -10q-45 0 -84 10.5t-68 31t-45.5 51t-16.5 69.5q0 57 36.5 97.5t104.5 77.5l-12 6q-19 9 -39 22.5t-36.5 33t-27.5 43.5t-11 54q0 37 16 68.5t43 55t63.5 36.5t76.5 13q45 0 81.5 -12t62.5 -33.5t40.5 -52.5t14.5 -70q0 -28 -11 -51t-29 -42t-42 -34t-50 -29l21 -10
q52 -25 89 -65.5t37 -98.5q0 -36 -16.5 -67.5t-45.5 -54.5t-68 -36t-84 -13zM287 58q25 0 49 6.5t43 19.5t30.5 31t11.5 42q0 44 -26.5 69.5t-74.5 48.5l-44 22q-70 -37 -96.5 -71t-26.5 -69q0 -25 11.5 -44t30.5 -31t43 -18t49 -6zM406 487q0 47 -34 76t-85 29
q-25 0 -47 -7.5t-38 -21t-25 -32t-9 -39.5q0 -40 22.5 -65t76.5 -51l23 -11q58 31 87 59t29 63z" />
    <glyph glyph-name="eight.taboldstyle" horiz-adv-x="576" 
d="M287 -10q-45 0 -84 10.5t-68 31t-45.5 51t-16.5 69.5q0 57 36.5 97.5t104.5 77.5l-12 6q-19 9 -39 22.5t-36.5 33t-27.5 43.5t-11 54q0 37 16 68.5t43 55t63.5 36.5t76.5 13q45 0 81.5 -12t62.5 -33.5t40.5 -52.5t14.5 -70q0 -28 -11 -51t-29 -42t-42 -34t-50 -29l21 -10
q52 -25 89 -65.5t37 -98.5q0 -36 -16.5 -67.5t-45.5 -54.5t-68 -36t-84 -13zM287 58q25 0 49 6.5t43 19.5t30.5 31t11.5 42q0 44 -26.5 69.5t-74.5 48.5l-44 22q-70 -37 -96.5 -71t-26.5 -69q0 -25 11.5 -44t30.5 -31t43 -18t49 -6zM406 487q0 47 -34 76t-85 29
q-25 0 -47 -7.5t-38 -21t-25 -32t-9 -39.5q0 -40 22.5 -65t76.5 -51l23 -11q58 31 87 59t29 63z" />
    <glyph glyph-name="emdash_guilsinglright" horiz-adv-x="1070" 
d="M73 283h696v-65h-696v65zM747 500l250 -250l-250 -250l-46 46l204 204l-204 204z" />
    <glyph glyph-name="equal.smcp" horiz-adv-x="598" 
d="M93 197h412v-65h-412v65zM93 367h412v-65h-412v65z" />
    <glyph glyph-name="estimated.smcp" horiz-adv-x="732" 
d="M187 234q-3 0 -3 -4v-123q0 -8 6 -16q33 -35 79 -51t98 -16q53 0 98.5 17.5t80.5 49.5h48q-38 -45 -97 -73t-131 -28q-61 0 -113.5 20t-91.5 55.5t-61 82.5t-22 101t23 101.5t62 82.5t91.5 55.5t111.5 20.5q60 0 112.5 -21.5t91.5 -58t61.5 -85t22.5 -102.5v-8h-467z
M548 393q0 10 -7 17q-32 33 -77.5 49.5t-96.5 16.5q-53 0 -98 -16.5t-78 -49.5q-7 -7 -7 -18v-121q0 -5 3 -5h358q3 0 3 5v122z" />
    <glyph glyph-name="five.fitted" horiz-adv-x="576" 
d="M396 193q0 35 -12 62t-33 45.5t-50 28t-63 9.5q-48 0 -78 -5t-50 -10l10 327h330v-66h-253l-6 -182q8 2 24.5 3.5t30.5 1.5q109 0 171 -55t61 -151q0 -46 -16 -84.5t-45.5 -66.5t-73 -44t-99.5 -16q-28 0 -54 5.5t-46.5 12.5t-35 14t-20.5 11l23 59q5 -2 17.5 -7.5
t31 -11t42 -9.5t50.5 -4q69 0 106.5 38t37.5 95z" />
    <glyph glyph-name="five.taboldstyle" horiz-adv-x="576" 
d="M396 43q0 35 -12 62t-33.5 45.5t-50.5 28t-63 9.5q-47 0 -77 -5t-51 -10l11 327h330v-66h-253l-6 -182q8 2 24.5 3.5t30.5 1.5q109 0 170.5 -55t60.5 -151q0 -46 -16 -84.5t-45.5 -66.5t-73 -44t-99.5 -16q-28 0 -53.5 5.5t-46.5 12.5t-35.5 14.5t-19.5 10.5l22 59
q5 -2 18 -7.5t31.5 -11t42 -9.5t50.5 -4q69 0 106.5 38t37.5 95z" />
    <glyph glyph-name="foundryicon" horiz-adv-x="1124" 
d="M290 270v170h32l4 -11l4 3q2 3 9.5 7t18.5 4q25 0 38 -17.5t13 -45.5q0 -29 -16 -47t-43 -18q-12 0 -20 5v-50h-40zM778 270v170h32l4 -11l3 3q3 3 11 7t19 4q23 0 36.5 -17.5t13.5 -45.5q0 -29 -16 -47t-43 -18q-11 0 -21 5v-50h-39zM427 377q0 30 16.5 48t45.5 18
q30 0 46.5 -17.5t16.5 -45.5q0 -29 -17 -47t-47 -18q-29 0 -45 17t-16 45zM766 440l-39 -125q-10 -27 -24 -38.5t-37 -11.5q-10 0 -17.5 2t-12.5 4l5 29q2 0 8 -1.5t14 -1.5q15 0 18 15l-4 13l-44 115h44l25 -84h1l20 84h43zM148 464h-50v35h144v-35h-55v-147h-39v147z
M576 464h-50v35h139v-35h-50v-147h-39v147zM954 371q3 -24 27 -24q12 0 20 2.5t14 4.5l8 -29q-5 -3 -17 -6.5t-29 -3.5q-30 0 -46.5 17t-16.5 45q0 30 16.5 48t46.5 18q23 0 36 -13.5t13 -33.5q0 -8 -1 -14t-3 -11h-68zM259 440v-123h-40v123h40zM511 378q0 16 -5 26.5
t-17 10.5q-13 0 -17.5 -10.5t-4.5 -24.5q0 -17 5 -27t17 -10t17 10t5 25zM536 184q0 13 7.5 21.5t19.5 8.5q11 0 18.5 -8.5t7.5 -21.5q0 -14 -7 -22.5t-20 -8.5q-11 0 -18.5 8.5t-7.5 22.5zM884 184q0 13 7.5 21.5t19.5 8.5q11 0 18.5 -8.5t7.5 -21.5q0 -14 -7.5 -22.5
t-19.5 -8.5q-11 0 -18.5 8.5t-7.5 22.5zM817 349q8 -4 16 -4q11 0 17 9.5t6 23.5q0 15 -5.5 24.5t-17.5 9.5q-8 0 -16 -6v-57zM330 349q4 -4 15 -4q12 0 17.5 9.5t5.5 23.5q0 15 -5.5 24.5t-16.5 9.5q-10 0 -16 -6v-57zM584 183q0 27 -22 27q-8 0 -14.5 -6.5t-6.5 -19.5
q0 -27 22 -27q9 0 15 6.5t6 19.5zM932 183q0 27 -22 27q-9 0 -15 -6.5t-6 -19.5q0 -27 22 -27q8 0 14.5 6.5t6.5 19.5zM711 154v59h17q19 0 19 -17t-20 -17h-11v-25h-5zM487 154v59h16q19 0 19 -17t-19 -17h-12v-25h-4zM196 213l-19 -59h-5l-17 51l-17 -51h-5l-19 59h5
l17 -54l17 51h4l17 -51l17 54h5zM383 213l-20 -59h-4l-17 51l-17 -51h-5l-19 59h4l17 -54l17 51h5l17 -51l17 54h5zM290 213l-20 -59h-4l-17 51l-18 -51h-4l-19 59h4l17 -54l17 51h4l18 -51l17 54h5zM957 213h6l22 -46l22 46h7v-59h-4v54l-23 -45h-4l-23 45v-54h-3v59z
M491 182h12q15 0 15 13q0 15 -15 15h-12v-28zM716 182h12q15 0 15 13q0 15 -16 15h-11v-28zM988 392q2 10 -2 16.5t-12 6.5q-17 0 -20 -23h34zM855 214q8 0 14 -4l-1 -11h-3v10q-2 0 -4 0.5t-6 0.5q-10 0 -16.5 -6.5t-6.5 -19.5q0 -27 26 -27q5 0 11 2l1 -3q-4 -3 -13 -3
q-14 0 -22 8.5t-8 22.5q0 13 7.5 21.5t20.5 8.5zM796 210h-27v-24h26v-4h-26v-25h28v-3h-32v59h31v-3zM670 177l-20 36h5l18 -32l18 32h4l-20 -36v-23h-5v23zM600 213h41v-3h-18v-56h-5v56h-18v3zM402 213h41v-3h-18v-56h-4v56h-19v3zM459 213h5v-59h-5v59zM813 160
q4 0 4 -3q0 -4 -4 -4q-3 0 -3 3q0 4 3 4zM395 160q3 0 3 -3q0 -4 -3 -4q-4 0 -4 3q0 4 4 4z" />
    <glyph glyph-name="four.fitted" horiz-adv-x="576" 
d="M351 650h83v-432h99v-66h-99v-152h-80v152h-302v63zM354 218v323l-218 -323h218z" />
    <glyph glyph-name="four.taboldstyle" horiz-adv-x="576" 
d="M346 500h83v-434h99v-66h-99v-149h-80v149h-302v63zM349 66v325l-218 -325h218z" />
    <glyph glyph-name="fraction.smcp" horiz-adv-x="582" 
d="M526 475l-422 -485l-48 34l422 486z" />
    <glyph glyph-name="franc.smcp" horiz-adv-x="478" 
d="M409 438h-228v-156h212v-62h-212v-76h129v-55h-129v-89h-79v89h-58v55h58v356h307v-62z" />
    <glyph glyph-name="greater.smcp" horiz-adv-x="496" 
d="M93 74l232 176l-232 175l43 51l297 -226l-297 -227z" />
    <glyph glyph-name="greaterequal.smcp" horiz-adv-x="490" 
d="M98 159l220 167l-220 167l43 51l285 -218l-285 -218zM93 21h333v-64h-333v64z" />
    <glyph glyph-name="guilsinglleft_emdash" horiz-adv-x="1070" 
d="M301 283h696v-65h-696v65zM370 454l-205 -204l205 -204l-46 -46l-251 250l251 250z" />
    <glyph glyph-name="i.dot" 
d="M164 500v-500h-79v500h79zM70 657q0 23 16.5 39.5t40.5 16.5q21 0 36.5 -15.5t15.5 -36.5q0 -25 -16.5 -41t-39.5 -16q-22 0 -37.5 15.5t-15.5 37.5z" />
    <glyph glyph-name="infinity.smcp" horiz-adv-x="948" 
d="M474 208q-24 -24 -48 -45.5t-50.5 -38t-56 -26t-64.5 -9.5q-39 0 -71.5 11t-56 32t-36.5 51t-13 67t13 67t36.5 51t56 32t71.5 11q35 0 64.5 -9.5t56 -26t50.5 -38t48 -45.5q24 24 48 45.5t50.5 38t55.5 26t64 9.5q39 0 71.5 -11t56.5 -32t37 -51t13 -67t-13 -67t-37 -51
t-56.5 -32t-71.5 -11q-35 0 -64 9.5t-55.5 26t-50.5 38t-48 45.5zM519 250q47 -46 86 -73t82 -27q52 0 83 27t31 73t-31 73t-83 27q-43 0 -82 -27t-86 -73zM260 150q44 0 83 27t86 73q-47 46 -86 73t-83 27q-52 0 -83 -27t-31 -73t31 -73t83 -27z" />
    <glyph glyph-name="integral.smcp" horiz-adv-x="383" 
d="M141 495q-2 37 9 67t32 51.5t50.5 33.5t63.5 12q25 0 45.5 -5t32.5 -9l-16 -62q-11 3 -29 6t-36 3q-37 0 -57.5 -26.5t-17.5 -79.5l24 -483q2 -37 -9 -67t-32 -51.5t-50 -33.5t-64 -12q-24 0 -45 5t-32 10l15 62q11 -4 29 -7t36 -3q37 0 57.5 26.5t18.5 79.5z" />
    <glyph glyph-name="interrobangdown" horiz-adv-x="391" 
d="M281 272q0 -33 -16 -63l7 -209h-77l5 134l-13 -12q-24 -23 -44 -51.5t-20 -60.5q0 -53 32.5 -76t78.5 -23t73.5 10.5t38.5 15.5l26 -55q-18 -11 -55 -26t-91 -15q-38 0 -72 11t-59.5 31.5t-40.5 49.5t-15 65q0 28 8.5 51t21.5 42.5t30 36.5l33 33q23 21 43 40.5t30 42.5
l3 70l66 5q3 -8 5 -22t2 -25zM177 454q0 23 16 39.5t40 16.5q21 0 37 -15.5t16 -36.5q0 -25 -16.5 -41t-40.5 -16q-21 0 -36.5 15.5t-15.5 37.5z" />
    <glyph glyph-name="less.smcp" horiz-adv-x="496" 
d="M403 425l-232 -175l232 -175l-43 -51l-297 226l297 226z" />
    <glyph glyph-name="lessequal.smcp" horiz-adv-x="490" 
d="M392 493l-221 -167l221 -167l-43 -51l-286 218l286 218zM63 21h334v-64h-334v64z" />
    <glyph glyph-name="lira.smcp" horiz-adv-x="555" 
d="M72 52q9 5 26 10.5t34 8.5q11 25 15.5 44.5t4.5 43.5h-73v60h295v-60h-139q-1 -54 -25 -85q44 -3 78 -10.5t69 -7.5q34 -1 51.5 18t29.5 48l53 -21q-10 -50 -47.5 -80.5t-91.5 -30.5q-42 0 -84 10t-90 10h-12q-4 -5 -9 -9q-4 -4 -9 -8.5t-10 -7.5l-53 14zM79 340h55
q4 82 51 126t125 44q47 0 82 -13.5t52 -22.5l-25 -59q-20 8 -47.5 16.5t-64.5 8.5q-89 0 -90 -100h157v-60h-295v60z" />
    <glyph glyph-name="logicalnot.smcp" horiz-adv-x="604" 
d="M93 335h418v-220h-72v156h-346v64z" />
    <glyph glyph-name="lozenge.smcp" horiz-adv-x="577" 
d="M320 -10h-63l-225 260l225 260h63l225 -260zM289 441l-167 -191l167 -191l166 191z" />
    <glyph glyph-name="minus.smcp" horiz-adv-x="529" 
d="M93 282h343v-65h-343v65z" />
    <glyph glyph-name="multiply.smcp" horiz-adv-x="583" 
d="M490 402l-152 -152l153 -151l-47 -47l-152 152l-152 -152l-47 47l152 152l-151 151l47 47l151 -152l151 152z" />
    <glyph glyph-name="nine.fitted" horiz-adv-x="576" 
d="M221 60q49 0 85 18t60 51t36.5 79.5t14.5 103.5q-9 -8 -24.5 -17t-35 -17t-42.5 -13.5t-48 -5.5q-99 0 -155.5 52.5t-56.5 143.5q0 45 14.5 82.5t42.5 64.5t69 42t93 15q114 0 170.5 -77.5t56.5 -224.5q0 -86 -16.5 -154t-51.5 -115.5t-89.5 -72.5t-130.5 -25
q-42 0 -77.5 9t-49.5 15l17 60q14 -5 44.5 -9.5t73.5 -4.5zM267 591q-57 0 -92 -33.5t-35 -95.5q0 -37 11 -62.5t29.5 -41.5t42.5 -23t51 -7q51 0 88.5 19.5t54.5 38.5q0 94 -37 149.5t-113 55.5z" />
    <glyph glyph-name="nine.taboldstyle" horiz-adv-x="576" 
d="M230 -90q49 0 85.5 18t60.5 51t36.5 80t13.5 104q-9 -8 -24.5 -17.5t-35 -17.5t-42.5 -13.5t-48 -5.5q-98 0 -154.5 52.5t-56.5 143.5q0 45 14.5 82.5t42.5 65t69 42.5t93 15q114 0 170.5 -78t56.5 -224q0 -86 -16.5 -154.5t-51.5 -115.5t-89.5 -72t-130.5 -25
q-42 0 -77.5 9t-49.5 14l16 61q14 -5 45 -10t73 -5zM276 441q-56 0 -91.5 -33t-35.5 -95q0 -37 11 -63t30 -42t43 -23t51 -7q51 0 88.5 19.5t53.5 39.5q0 94 -36.5 149t-113.5 55z" />
    <glyph glyph-name="notequal.smcp" horiz-adv-x="598" 
d="M93 367h242l88 151l48 -28l-72 -123h106v-65h-143l-61 -105h204v-65h-242l-88 -151l-48 28l72 123h-106v65h144l61 105h-205v65z" />
    <glyph glyph-name="numbersign.smcp" horiz-adv-x="647" 
d="M484 500l-18 -129h108l-9 -63h-107l-16 -116h107l-8 -63h-107l-18 -129h-70l17 129h-121l-18 -129h-71l18 129h-108l9 63h107l16 116h-107l9 63h107l18 129h70l-18 -129h122l18 129h70zM250 192h122l15 116h-121z" />
    <glyph glyph-name="one.fitted" horiz-adv-x="576" 
d="M259 66v519q-37 -4 -79.5 -7.5t-79.5 -5.5l-7 61q57 5 119 11.5t119 14.5h8v-593l146 -2v-64h-390v64z" />
    <glyph glyph-name="one.taboldstyle" horiz-adv-x="576" 
d="M259 66v370q-32 -3 -75.5 -6t-76.5 -5l-6 61q52 4 114.5 10.5t115.5 13.5h8v-444l136 -2v-64h-370v64z" />
    <glyph glyph-name="onehalf.smcp" horiz-adv-x="607" 
d="M545 475l-422 -485l-47 34l422 486zM357 46q52 31 88 57t36 55q0 19 -15 26t-33 7q-19 0 -35.5 -6t-21.5 -8l-20 43q5 4 28.5 14t52.5 10q48 0 76.5 -24t28.5 -60q0 -30 -23 -55t-73 -54h105v-51h-194v46zM129 313v136q-17 -2 -35 -5t-31 -4l-7 49q34 5 64.5 10t61.5 11
h7v-197l59 -2v-50h-187v50z" />
    <glyph glyph-name="onequarter.smcp" horiz-adv-x="611" 
d="M555 475l-422 -485l-48 34l422 486zM487 243v-142h43v-45h-43v-56h-52v56h-124v42l124 145h52zM129 313v136q-17 -2 -35 -5t-31 -4l-7 49q34 5 64.5 10t61.5 11h7v-197l59 -2v-50h-187v50zM435 101v75l-62 -75h62z" />
    <glyph glyph-name="parenleft.smcp" horiz-adv-x="315" 
d="M132 254q0 -92 21.5 -163.5t50.5 -124t60.5 -86.5t50.5 -52l-42 -47q-21 15 -59.5 51.5t-75.5 95t-64.5 138t-27.5 180.5q0 102 28 183.5t65.5 141t76 96.5t59.5 52l40 -46q-19 -18 -50.5 -52t-60.5 -86t-50.5 -122t-21.5 -159z" />
    <glyph glyph-name="parenright.smcp" horiz-adv-x="315" 
d="M183 247q0 92 -21.5 163t-50.5 123.5t-60 87t-51 52.5l42 46q21 -15 59.5 -51.5t75.5 -94.5t64.5 -137.5t27.5 -180.5q0 -103 -28 -184.5t-65.5 -141t-76 -96.5t-59.5 -52l-40 47q20 18 51 52t60 86t50.5 122t21.5 159z" />
    <glyph glyph-name="percent.oldstyle" horiz-adv-x="650" 
d="M179 256q-28 0 -50.5 10t-38.5 26.5t-25 39.5t-9 48q0 27 9 50.5t25.5 41.5t41 28t54.5 10q28 0 50.5 -10t38.5 -26.5t25 -39t9 -48.5q0 -27 -9 -50.5t-25.5 -41.5t-41 -28t-54.5 -10zM465 -10q-28 0 -50.5 10t-38.5 26.5t-25 39.5t-9 48q0 27 9 50.5t25.5 41.5t40.5 28
t54 10q28 0 50.5 -10t38.5 -26.5t25 -39t9 -48.5q0 -27 -9 -50.5t-25.5 -41.5t-40.5 -28t-54 -10zM560 475l-422 -485l-48 34l422 486zM471 42q28 0 44 21.5t16 50.5q0 31 -17.5 54t-48.5 23q-27 0 -43.5 -21.5t-16.5 -49.5q0 -31 17.5 -54.5t48.5 -23.5zM186 309
q27 0 43 21t16 50q0 31 -17 54.5t-49 23.5q-27 0 -43 -22t-16 -50q0 -31 17 -54t49 -23z" />
    <glyph glyph-name="perthousand.oldstyle" horiz-adv-x="839" 
d="M654 -10q-29 0 -52.5 10.5t-39.5 29.5q-17 -19 -41.5 -29.5t-55.5 -10.5q-28 0 -50.5 10t-38.5 26.5t-25 39.5t-9 48q0 27 9 50.5t25.5 41.5t40.5 28t54 10q29 0 52.5 -11t39.5 -29q17 19 41.5 29.5t55.5 10.5q28 0 50.5 -10t38.5 -26.5t25 -39t9 -48.5q0 -27 -9 -50.5
t-25.5 -41.5t-40.5 -28t-54 -10zM179 256q-28 0 -50.5 10t-38.5 26.5t-25 39.5t-9 48q0 27 9 50.5t25.5 41.5t41 28t54.5 10q28 0 50.5 -10t38.5 -26.5t25 -39t9 -48.5q0 -27 -9 -50.5t-25.5 -41.5t-41 -28t-54.5 -10zM560 475l-422 -485l-48 34l422 486zM660 42
q28 0 44 21.5t16 50.5q0 31 -17.5 54t-48.5 23q-26 0 -42.5 -20.5t-17.5 -47.5v-3q0 -31 17.5 -54.5t48.5 -23.5zM471 42q28 0 44 21.5t16 50.5v3q-2 30 -19 52t-47 22q-27 0 -43.5 -21.5t-16.5 -49.5q0 -31 17.5 -54.5t48.5 -23.5zM186 309q27 0 43 21t16 50q0 31 -17 54.5
t-49 23.5q-27 0 -43 -22t-16 -50q0 -31 17 -54t49 -23z" />
    <glyph glyph-name="plus.smcp" horiz-adv-x="620" 
d="M346 467v-185h181v-65h-181v-184h-73v184h-180v65h180v185h73z" />
    <glyph glyph-name="plusminus.smcp" horiz-adv-x="571" 
d="M321 521v-161h157v-65h-157v-160h-72v160h-156v65h156v161h72zM102 45h367v-65h-367v65z" />
    <glyph glyph-name="product.smcp" horiz-adv-x="693" 
d="M528 583h-363v-734h-80v800h523v-800h-80v734z" />
    <glyph glyph-name="s_b" horiz-adv-x="958" 
d="M61 91q20 -10 55 -20.5t78 -10.5q45 0 72 14.5t27 49.5q0 32 -24 51t-75 39l-42 16q-51 20 -79 52.5t-28 85.5q0 34 14 60.5t37.5 44.5t54 27.5t64.5 9.5q23 0 44 -3q-8 14 -12.5 32t-4.5 41q0 28 10.5 53.5t32 45.5t53.5 32t74 12h147v-244q61 31 122 31
q52 0 94.5 -18.5t72.5 -52t46.5 -81t16.5 -104.5q0 -125 -66.5 -194.5t-184.5 -69.5q-21 0 -46 4t-50 11.5t-47 17t-37 20.5v618h-68q-50 0 -74 -22t-24 -61q0 -43 21.5 -75.5t58.5 -64.5l-55 -48q-12 8 -22.5 18t-18.5 20q-17 5 -38 8.5t-45 3.5q-42 0 -68 -17t-26 -50
q0 -27 18 -46t71 -40l43 -17q57 -23 87 -56t30 -87q0 -64 -44.5 -100.5t-130.5 -36.5q-53 0 -91.5 11.5t-64.5 25.5zM828 246q0 44 -11.5 79.5t-32.5 61t-50.5 39.5t-65.5 14q-58 0 -109 -27v-332q23 -11 50 -16t54 -5q81 0 123 47.5t42 138.5z" />
    <glyph glyph-name="s_h" horiz-adv-x="956" 
d="M559 0h-79v661h-68q-50 0 -74 -22t-24 -61q0 -43 21.5 -75.5t58.5 -64.5l-55 -48q-12 8 -22.5 18t-18.5 20q-17 5 -38 8.5t-45 3.5q-42 0 -68 -17t-26 -50q0 -27 18 -46t71 -40l43 -17q57 -23 87 -56t30 -87q0 -64 -44.5 -100.5t-130.5 -36.5q-53 0 -91.5 11.5
t-64.5 25.5l22 64q20 -10 55 -20.5t78 -10.5q45 0 72 14.5t27 49.5q0 32 -24 51t-75 39l-42 16q-51 20 -79 52.5t-28 85.5q0 34 14 60.5t37.5 44.5t54 27.5t64.5 9.5q23 0 44 -3q-8 14 -12.5 32t-4.5 41q0 28 10.5 53.5t32 45.5t53.5 32t74 12h147v-279q38 32 80 49t82 17
q77 0 116.5 -46t39.5 -135v-329h-79v317q0 123 -101 123q-32 0 -71 -17.5t-67 -43.5v-379z" />
    <glyph glyph-name="s_k" horiz-adv-x="908" 
d="M61 91q20 -10 55 -20.5t78 -10.5q45 0 72 14.5t27 49.5q0 32 -24 51t-75 39l-42 16q-51 20 -79 52.5t-28 85.5q0 34 14 60.5t37.5 44.5t54 27.5t64.5 9.5q23 0 44 -3q-8 14 -12.5 32t-4.5 41q0 28 10.5 53.5t32 45.5t53.5 32t74 12h147v-492l209 269h91l-163 -209
l182 -291h-90l-149 240l-80 -100v-140h-79v661h-68q-50 0 -74 -22t-24 -61q0 -43 21.5 -75.5t58.5 -64.5l-55 -48q-12 8 -22.5 18t-18.5 20q-17 5 -38 8.5t-45 3.5q-42 0 -68 -17t-26 -50q0 -27 18 -46t71 -40l43 -17q57 -23 87 -56t30 -87q0 -64 -44.5 -100.5t-130.5 -36.5
q-53 0 -91.5 11.5t-64.5 25.5z" />
    <glyph glyph-name="s_l" horiz-adv-x="644" 
d="M61 91q20 -10 55 -20.5t78 -10.5q45 0 72 14.5t27 49.5q0 32 -24 51t-75 39l-42 16q-51 20 -79 52.5t-28 85.5q0 34 14 60.5t37.5 44.5t54 27.5t64.5 9.5q23 0 44 -3q-8 14 -12.5 32t-4.5 41q0 28 10.5 53.5t32 45.5t53.5 32t74 12h147v-723h-79v661h-68q-50 0 -74 -22
t-24 -61q0 -43 21.5 -75.5t58.5 -64.5l-55 -48q-12 8 -22.5 18t-18.5 20q-17 5 -38 8.5t-45 3.5q-42 0 -68 -17t-26 -50q0 -27 18 -46t71 -40l43 -17q57 -23 87 -56t30 -87q0 -64 -44.5 -100.5t-130.5 -36.5q-53 0 -91.5 11.5t-64.5 25.5z" />
    <glyph glyph-name="seven.fitted" horiz-adv-x="576" 
d="M490 585l-242 -585h-81l242 584h-257l-5 -107h-54l-7 173h404v-65z" />
    <glyph glyph-name="seven.taboldstyle" horiz-adv-x="576" 
d="M490 436l-242 -586h-81l242 584h-257l-5 -107h-54l-7 173h404v-64z" />
    <glyph glyph-name="six.fitted" horiz-adv-x="576" 
d="M365 589q-51 0 -89.5 -23.5t-64 -60t-39 -81.5t-15.5 -87q9 8 24.5 17.5t35.5 17.5t43.5 13.5t48.5 5.5q47 0 86 -13t67 -38.5t43.5 -62t15.5 -83.5q0 -45 -15 -82.5t-43 -64.5t-69 -42t-93 -15q-113 0 -169.5 77.5t-56.5 224.5q0 75 17.5 141.5t53.5 117t92.5 79.5
t134.5 29q41 0 69.5 -9.5t36.5 -13.5l-16 -61q-8 3 -35 8.5t-63 5.5zM309 59q57 0 92 32.5t35 94.5q0 38 -11 64t-29.5 42t-43 23t-51.5 7q-50 0 -87.5 -19.5t-54.5 -39.5q0 -94 36.5 -149t113.5 -55z" />
    <glyph glyph-name="six.taboldstyle" horiz-adv-x="576" 
d="M355 589q-51 0 -89.5 -23.5t-64 -60t-39 -81.5t-15.5 -87q9 8 24.5 17.5t35.5 17.5t43.5 13.5t48.5 5.5q47 0 86 -13t67 -38.5t43.5 -62t15.5 -83.5q0 -45 -14.5 -82.5t-42.5 -64.5t-69 -42t-93 -15q-114 0 -170.5 77.5t-56.5 224.5q0 75 17.5 141.5t53.5 117t92.5 79.5
t134.5 29q41 0 69.5 -9.5t36.5 -13.5l-16 -61q-8 3 -35 8.5t-63 5.5zM299 59q57 0 92 32.5t35 94.5q0 38 -11 64t-29.5 42t-42.5 23t-51 7q-50 0 -88 -19.5t-55 -39.5q0 -94 36.5 -149t113.5 -55z" />
    <glyph glyph-name="sterling.smcp" horiz-adv-x="555" 
d="M79 280h58q-3 23 -3 48q0 88 47.5 135t128.5 47q47 0 82 -13.5t52 -22.5l-25 -59q-20 8 -47.5 16.5t-64.5 8.5q-90 0 -90 -106q0 -14 1 -27t3 -27h159v-63h-150q2 -13 3.5 -26t1.5 -25q0 -31 -6.5 -53t-18.5 -39q44 -3 78 -10.5t69 -7.5q34 -1 51.5 18t29.5 48l53 -21
q-10 -50 -47.5 -80.5t-91.5 -30.5q-42 0 -84 10t-90 10h-12q-4 -5 -9 -9q-4 -4 -9 -8.5t-10 -7.5l-53 14l-13 53q9 5 26 10.5t34 8.5q11 25 15.5 44.5t4.5 43.5q0 14 -2 28t-4 30h-67v63z" />
    <glyph glyph-name="summation.smcp" horiz-adv-x="580" 
d="M517 584h-367l205 -334l-214 -334h385v-66h-472v61l219 339l-210 339v61h454v-66z" />
    <glyph glyph-name="three.fitted" horiz-adv-x="576" 
d="M371 477q0 55 -34 84t-103 29q-21 0 -41.5 -3.5t-38 -8.5t-30 -10t-18.5 -8l-24 55q5 3 19.5 10.5t35.5 15t48 13t58 5.5q50 0 89 -13.5t65.5 -37t40 -55.5t13.5 -69q0 -47 -28 -84.5t-66 -60.5q49 -20 81.5 -60.5t32.5 -98.5q0 -86 -62.5 -138t-174.5 -52
q-54 0 -95.5 14t-62.5 25l23 58q15 -6 50.5 -16.5t93.5 -10.5q29 0 55.5 7.5t47.5 21.5t33.5 35t12.5 49q0 62 -40 94t-113 32h-53v66h103q14 5 28.5 14.5t26.5 23.5t19.5 32.5t7.5 41.5z" />
    <glyph glyph-name="three.taboldstyle" horiz-adv-x="576" 
d="M371 328q0 54 -33 83t-99 29q-20 0 -40 -3.5t-36.5 -8.5t-29 -9.5t-17.5 -7.5l-25 55q5 3 19 10.5t34.5 15t47 13t56.5 5.5q49 0 87 -13.5t63.5 -37t39 -55.5t13.5 -69q0 -48 -27.5 -85.5t-66.5 -59.5q49 -21 81.5 -61t32.5 -98q0 -86 -61 -138t-171 -52q-53 0 -93 13.5
t-61 24.5l24 59q14 -6 48 -17t91 -11q27 0 53 7.5t46.5 21.5t32.5 35.5t12 48.5q0 62 -40 94t-113 32h-48v66h98q14 6 28.5 15.5t26.5 23.5t19.5 32.5t7.5 41.5z" />
    <glyph glyph-name="threequarters.smcp" horiz-adv-x="582" 
d="M526 475l-422 -485l-48 34l422 486zM453 243v-142h43v-45h-43v-56h-53v56h-123v42l123 145h53zM179 436q0 14 -12 19.5t-29 5.5q-15 0 -28 -3t-22 -7l-15 41q7 5 25 11t44 6q45 0 69 -20t24 -50q0 -19 -10 -32t-18 -18q11 -4 23.5 -18.5t12.5 -37.5q0 -35 -27.5 -56
t-73.5 -21q-25 0 -44 5.5t-27 10.5l14 42q8 -2 22 -6t36 -4q18 0 31 5.5t13 21.5q0 31 -38 31h-39v47h56q5 2 9 8.5t4 18.5zM400 101v75l-61 -75h61z" />
    <glyph glyph-name="two.fitted" horiz-adv-x="576" 
d="M84 57q88 97 145 163t90.5 112.5t46.5 77.5t13 57q0 59 -30.5 91t-90.5 32q-23 0 -45.5 -4.5t-40.5 -10.5t-30.5 -12t-17.5 -9l-26 55q8 5 25 13.5t39.5 16.5t49.5 14t56 6q45 0 81 -13.5t61.5 -37.5t39 -58t13.5 -75q0 -37 -16.5 -76t-50.5 -87t-86 -108t-123 -138h305
v-66h-408v57z" />
    <glyph glyph-name="two.taboldstyle" horiz-adv-x="576" 
d="M94 57q63 53 112.5 92.5t83 71.5t51.5 59.5t18 56.5q0 103 -106 103q-21 0 -40.5 -4.5t-36 -10t-28 -11t-15.5 -7.5l-26 55q8 5 23 13t35.5 16t45.5 13.5t51 5.5q84 0 132.5 -45.5t48.5 -119.5q0 -39 -18.5 -73.5t-50 -67.5t-73.5 -66.5t-90 -71.5h261v-66h-378v57z" />
    <glyph glyph-name="uni0E3F.smcp" horiz-adv-x="571" 
d="M313 641l-4 -142q72 -5 113 -38.5t41 -92.5q0 -38 -18.5 -61.5t-47.5 -40.5q38 -12 64.5 -44t26.5 -76q0 -65 -41.5 -103t-137.5 -43l4 -141h-73l3 141h-131v500h132l-4 141h73zM189 226v-164h88q63 0 95.5 15.5t32.5 62.5q0 39 -28 62.5t-86 23.5h-102zM189 287h138
q21 9 37 28t16 48q0 40 -28.5 57.5t-76.5 17.5h-86v-151z" />
    <glyph glyph-name="uni20B1.smcp" horiz-adv-x="599" 
d="M63 404h65v96h163q68 0 114 -25.5t64 -70.5h76v-38h-67q1 -5 1 -9v-9v-10t-1 -10h67v-39h-77q-18 -47 -64.5 -72.5t-116.5 -25.5h-79v-191h-80v289h-65v39h65v38h-65v38zM396 343q0 6 -0.5 11.5t-1.5 11.5h-186v-38h187q1 5 1 15zM291 252q61 0 89 37h-172v-37h83z
M208 404h169q-28 36 -90 36h-79v-36z" />
    <glyph glyph-name="uni20B9.smcp" horiz-adv-x="507" 
d="M88 377h170q-7 32 -34.5 52.5t-73.5 20.5h-58v50h352v-50h-151q11 -7 26.5 -24t20.5 -49h83v-50h-82q-5 -30 -20 -53t-37 -39t-47.5 -25t-51.5 -12l182 -198h-91l-188 205v48q44 -3 74 1t50 14t30.5 25t14.5 34h-169v50z" />
    <glyph glyph-name="uni20BA.smcp" horiz-adv-x="508" 
d="M42 256l110 73v171h79v-118l110 74l25 -38l-135 -89v-69l110 73l25 -37l-135 -90v-137q34 0 62 9.5t48 26.5t30 39.5t8 49.5l75 5q2 -43 -14.5 -80t-46.5 -63t-71.5 -41t-90.5 -15h-79v153l-87 -57l-23 37l110 74v69l-87 -57z" />
    <glyph glyph-name="won.smcp" horiz-adv-x="914" 
d="M39 361h91l-47 139h84l43 -139h169l42 129h77l41 -129h169l44 139h83l-46 -139h86v-43h-101l-18 -55h70v-43h-84l-74 -220h-84l-125 377l-125 -377h-83l-74 220h-94v43h80l-19 55h-105v43zM571 263h107l17 55h-142zM241 263h107l17 55h-141zM625 96l40 124h-80zM293 96
l40 124h-79z" />
    <glyph glyph-name="yen.smcp" horiz-adv-x="541" 
d="M58 340h91l-100 160h87l135 -219l134 219h87l-100 -160h92v-60h-426v60zM67 219h407v-60h-164v-159h-81v159h-162v60z" />
    <glyph glyph-name="zero.fitted" horiz-adv-x="576" 
d="M291 59q67 0 109 67.5t42 193.5q0 62 -10.5 112.5t-31 85.5t-49.5 54t-66 19q-68 0 -110 -69t-42 -195q0 -62 11 -111.5t31.5 -84.5t49.5 -53.5t66 -18.5zM285 -10q-60 0 -104.5 25t-73.5 69t-43.5 104.5t-14.5 131.5t15 133t45.5 108t76 72t105.5 26t104 -25t73 -69.5
t43.5 -105t14.5 -132.5q0 -71 -15.5 -132.5t-45.5 -107t-75 -71.5t-105 -26z" />
    <glyph glyph-name="zero.fitted.slash" horiz-adv-x="576" 
d="M285 -10q-60 0 -104.5 25t-73.5 69t-43.5 104.5t-14.5 131.5t15 133t45.5 108t76 72t105.5 26t104 -25t73 -69.5t43.5 -105t14.5 -132.5q0 -71 -15.5 -132.5t-45.5 -107t-75 -71.5t-105 -26zM291 59q67 0 109 67.5t42 193.5q0 88 -21 151l-234 -357q40 -55 104 -55z
M133 327q0 -84 20 -147l235 357q-42 54 -103 54q-68 0 -110 -69t-42 -195z" />
    <glyph glyph-name="zero.slash" horiz-adv-x="638" 
d="M316 -10q-65 0 -113 25t-79.5 69t-47 104.5t-15.5 131.5t16.5 133t49 108t81.5 72t114 26t113 -25t79.5 -69.5t47 -105t15.5 -132.5q0 -71 -16.5 -132.5t-49 -107t-81.5 -71.5t-114 -26zM322 59q76 0 123.5 67.5t47.5 193.5q0 98 -31 166l-250 -381q44 -46 110 -46z
M145 327q0 -96 29 -162l250 380q-43 46 -108 46q-77 0 -124 -69t-47 -195z" />
    <glyph glyph-name="zero.taboldstyle" horiz-adv-x="576" 
d="M291 59q36 0 65.5 14t50.5 39t33 59t12 74q0 41 -11.5 76.5t-33 62.5t-52.5 42.5t-70 15.5q-36 0 -65.5 -14.5t-51 -40t-33 -60t-11.5 -75.5q0 -40 11.5 -75t33 -61t52.5 -41.5t70 -15.5zM285 -10q-59 0 -105 21t-77 56t-47 81t-16 97t17 99t49.5 84.5t79 59t105.5 22.5
t104.5 -21t76.5 -56.5t47.5 -82.5t16.5 -98t-17.5 -98t-49.5 -83.5t-78.5 -58.5t-105.5 -22z" />
    <glyph glyph-name="zero.taboldstyle.slash" horiz-adv-x="576" 
d="M285 -10q-59 0 -105 21t-77 56t-47 81t-16 97t17 99t49.5 84.5t79 59t105.5 22.5t104.5 -21t76.5 -56.5t47.5 -82.5t16.5 -98t-17.5 -98t-49.5 -83.5t-78.5 -58.5t-105.5 -22zM124 252q0 -38 10.5 -72t30.5 -60l199 301q-34 21 -79 21q-36 0 -65.5 -14.5t-51 -40t-33 -60
t-11.5 -75.5zM291 59q36 0 65.5 14t50.5 39t33 59t12 74q0 38 -10.5 72.5t-29.5 60.5l-199 -301q35 -18 78 -18z" />
    <glyph glyph-name="zerooldstyle.slash" horiz-adv-x="619" 
d="M306 -10q-59 0 -104.5 21t-77 56t-47.5 81t-16 97t17 99t49.5 84.5t79 59t105.5 22.5t104.5 -21t77 -56.5t48 -82.5t16.5 -98t-17.5 -98t-50 -83.5t-79 -58.5t-105.5 -22zM145 252q0 -79 42 -132l198 301q-34 21 -79 21q-36 0 -65.5 -14.5t-51 -40t-33 -60t-11.5 -75.5z
M312 59q36 0 65.5 14t51 39t33.5 59t12 74q0 38 -10.5 72.5t-30.5 60.5l-198 -301q33 -18 77 -18z" />
    </font>
</defs>
</svg>
