<svg width="491" height="311" xmlns="http://www.w3.org/2000/svg"><title>background</title><path fill="none" d="M-1-1h493v313H-1z"/><g><title>Layer 1</title><path class="st0" d="M152.755 133.522c-.108 17.435 0 34.978.107 52.413 29.274.97 58.656.538 87.93.97-12.915 65.004-101.383 86.1-148.092 43.587-48.108-37.238-45.848-118.925 4.198-153.473 34.978-27.876 84.7-20.988 119.678 3.12 13.776-12.7 26.583-26.26 38.96-40.36-29.058-23.246-64.79-39.713-102.78-37.99C73.542-.9.68 68.516-.61 147.835c-5.06 64.79 37.56 128.29 97.723 151.213 59.947 23.03 136.79 7.317 174.998-46.495 25.292-34.01 30.674-77.813 27.768-118.925-49.077-.323-98.154-.216-147.123-.108zM440.89 131.148l-.354-48.23H392.54c-.117 16.076-.354 32.153-.354 48.23-16.077.118-32.154.118-48.23.355v47.994c16.076.12 32.153.355 48.23.473.12 16.077.12 32.154.355 48.113h48.114c.118-16.077.118-32.154.355-48.23 16.076-.12 32.153-.237 48.23-.356v-47.994c-16.195-.12-32.272-.12-48.35-.355z" fill="#fff" stroke="null"/></g></svg>