<svg id="Layer_1" viewBox="0 0 512 512" xmlns="http://www.w3.org/2000/svg"><style>.st0{fill:#ffffff;}</style><path class="st0" d="M173.9 235.5c-.1 16.2 0 32.5.1 48.7 27.2.9 54.5.5 81.7.9-12 60.4-94.2 80-137.6 40.5C73.4 291 75.5 215.1 122 183c32.5-25.9 78.7-19.5 111.2 2.9 12.8-11.8 24.7-24.4 36.2-37.5-27-21.6-60.2-36.9-95.5-35.3-73.6-2.5-141.3 62-142.5 135.7C26.7 309 66.3 368 122.2 389.3c55.7 21.4 127.1 6.8 162.6-43.2 23.5-31.6 28.5-72.3 25.8-110.5-45.6-.3-91.2-.2-136.7-.1zM440.2 235.3l-.3-40.8h-40.6c-.1 13.6-.3 27.2-.3 40.8-13.6.1-27.2.1-40.8.3v40.6c13.6.1 27.2.3 40.8.4.1 13.6.1 27.2.3 40.7H440c.1-13.6.1-27.2.3-40.8l40.8-.3v-40.6c-13.7-.1-27.3-.1-40.9-.3z"/></svg>
