<svg viewBox="0 0 48 48" xmlns="http://www.w3.org/2000/svg"><g fill="#ffffff"><path d="M34.95 32.312c-.008-2.146-.016-4.292-.03-6.438-.008-.894-.13-1.77-.367-2.6-.43-1.51-1.232-2.503-2.455-3.033-1.35-.584-2.772-.7-4.224-.342-.925.227-1.72.675-2.375 1.338 0-.173 0-.344.006-.517 0-.08.008-.324-.163-.498-.172-.175-.417-.18-.493-.173-1.228.006-2.454.006-3.68 0-.134-.013-.34.013-.493.165-.15.15-.17.348-.17.485.008 4.525.007 9.05 0 13.574 0 .138.02.338.17.49.15.15.338.166.49.165 1.282-.01 2.565-.01 3.848 0h.013c.136 0 .327-.02.472-.164.15-.15.167-.352.166-.49-.008-2.15-.01-4.297 0-6.446.003-.522.035-1.045.095-1.552.07-.578.256-1.023.568-1.362.378-.41.882-.566 1.658-.564.867.016 1.364.39 1.61 1.214.173.58.187 1.19.188 1.818v6.86c0 .515.164.68.675.68h3.757c.256 0 .44 0 .59-.152.152-.152.152-.342.15-.584l-.007-1.876zM18.533 27.502v-1.607c0-1.727-.002-3.453.006-5.18 0-.154-.02-.353-.17-.502-.15-.15-.373-.178-.494-.165-1.276.01-2.55.01-3.824 0-.156.006-.35.015-.502.168-.153.152-.17.357-.17.498.006 4.515.006 9.032 0 13.55 0 .14.018.346.17.5.154.15.365.152.5.165 1.275-.01 2.55-.01 3.824 0h.014c.15 0 .338-.022.483-.166.15-.15.17-.346.17-.5-.01-1.734-.008-3.468-.007-5.202v-1.56zM15.975 13.07h-.02c-1.63.01-2.91 1.295-2.913 2.926 0 .778.32 1.54.877 2.09.545.542 1.26.84 2.014.84l.03-.002c1.675-.017 2.936-1.277 2.933-2.93-.002-.804-.303-1.545-.85-2.087-.543-.54-1.28-.836-2.072-.836z"/></g></svg>
