<svg width="512" height="512" xmlns="http://www.w3.org/2000/svg"><title>background</title><path fill="none" d="M-1-1h294.31v294.31H-1z"/><g><title>Layer 1</title><path fill="#fff" d="M407.143 510.787v-206.24s-5.648-55.17-55-55.17c-49.322 0-58.345 52.448-58.345 52.448v208.962H192.146l1.658-340.68h98.337l-.798 42.823s20.504-55.967 97.754-55.967c77.22 0 112.21 48 118.716 137.76v216.064h-100.67zM67.475 121.71c-34.928 0-63.287-27.02-63.287-60.414S32.548.814 67.475.814s63.287 27.087 63.287 60.482-28.36 60.415-63.287 60.415zm62.734 389.476H5.23V170.972l124.977-.864v341.078z" stroke="null"/></g></svg>